<svg width="800" height="800" viewBox="0 0 800 800" fill="none" xmlns="http://www.w3.org/2000/svg">
<g clip-path="url(#clip0_76_6594)">
<path fill-rule="evenodd" clip-rule="evenodd" d="M400 0C620.914 0 800 179.086 800 400C800 620.914 620.914 800 400 800C179.086 800 0 620.914 0 400C0 179.086 179.086 0 400 0ZM472.258 339.057C539.847 339.057 600 388.618 600 449.417C600 483.706 577.502 514.105 547.331 537.013L558.604 575L517.349 552.141C502.382 555.982 487.226 559.776 472.258 559.776C400.691 559.776 344.327 510.311 344.327 449.417C344.327 388.618 400.691 339.057 472.258 339.057ZM325.429 225C399.365 225 464.159 270.479 477.184 331.806C472.401 331.229 467.569 330.893 462.691 330.893C391.265 330.893 334.807 384.824 334.807 451.242C334.807 462.287 336.512 472.949 339.449 483.13C334.807 483.466 330.165 483.706 325.429 483.706C306.673 483.706 291.564 479.864 272.713 476.07L220.138 502.724L235.2 457.005C197.545 430.399 175 396.11 175 354.329C175 282.005 242.731 225 325.429 225ZM430.767 399.952C423.284 399.952 415.705 407.588 415.705 415.176C415.705 422.859 423.284 430.399 430.767 430.399C442.135 430.399 449.571 422.859 449.571 415.176C449.571 407.588 442.135 399.952 430.767 399.952ZM513.513 399.952C506.077 399.952 498.593 407.588 498.593 415.176C498.593 422.859 506.077 430.399 513.513 430.399C524.785 430.399 532.316 422.859 532.316 415.176C532.316 407.588 524.785 399.952 513.513 399.952ZM381.84 289.689C370.52 289.689 359.247 297.228 359.247 308.658C359.247 320.04 370.567 327.676 381.84 327.676C393.16 327.676 400.644 320.04 400.644 308.658C400.644 297.228 393.16 289.689 381.84 289.689ZM276.549 289.689C265.229 289.689 253.862 297.228 253.862 308.658C253.862 320.04 265.276 327.676 276.549 327.676C287.869 327.676 295.353 319.992 295.306 308.658C295.306 297.228 287.822 289.689 276.549 289.689Z" fill="#D7D7D7"/>
</g>
<defs>
<clipPath id="clip0_76_6594">
<rect width="800" height="800" fill="white"/>
</clipPath>
</defs>
</svg>
