<svg width="28" height="28" viewBox="0 0 28 28" fill="none" xmlns="http://www.w3.org/2000/svg">
<g clip-path="url(#clip0_1_33622)">
<path d="M19.9333 22.1586L19.7722 23.7914L21.3615 23.9482C19.2489 25.5134 16.7012 26.3594 14.0234 26.3594C10.7221 26.3594 7.61844 25.0738 5.28405 22.7394C2.94966 20.405 1.66406 17.3013 1.66406 14C1.66406 10.6987 2.94966 7.595 5.28405 5.26061C7.61844 2.92622 10.7221 1.64062 14.0234 1.64062C14.7062 1.64062 15.3911 1.69668 16.059 1.80731L16.327 0.188727C15.5708 0.0634922 14.7958 0 14.0234 0C10.2839 0 6.76821 1.45627 4.12391 4.10047C1.47966 6.74477 0.0234375 10.2605 0.0234375 14C0.0234375 17.7395 1.47966 21.2552 4.12391 23.8995C6.76821 26.5437 10.2839 28 14.0234 28C17.0524 28 19.9344 27.0443 22.3255 25.276L22.1821 26.729L23.8147 26.8901L24.2398 22.5836L19.9333 22.1586Z" fill="#AB3534"/>
<path d="M18.5717 0.755249L18.0391 2.30701C18.6809 2.52734 19.3095 2.80341 19.9071 3.12754L20.6893 1.68537C20.0119 1.31798 19.2994 1.00506 18.5717 0.755249Z" fill="#AB3534"/>
<path d="M27.5965 10.5601L26.0059 10.962C26.1719 11.619 26.2843 12.2963 26.34 12.975L27.9751 12.8409C27.912 12.0721 27.7847 11.3047 27.5965 10.5601Z" fill="#AB3534"/>
<path d="M25.7436 6.34033L24.3711 7.23912C24.7437 7.80814 25.071 8.41162 25.344 9.03271L26.846 8.37268C26.5367 7.6688 26.1658 6.98504 25.7436 6.34033Z" fill="#AB3534"/>
<path d="M26.3409 15.0179C26.2856 15.6968 26.1735 16.3744 26.0078 17.0317L27.5987 17.4328C27.7865 16.6878 27.9135 15.9201 27.9761 15.1512L26.3409 15.0179Z" fill="#AB3534"/>
<path d="M25.3473 18.9618C25.0746 19.5833 24.7474 20.187 24.375 20.7564L25.7479 21.6545C26.1698 21.0095 26.5405 20.3254 26.8496 19.6211L25.3473 18.9618Z" fill="#AB3534"/>
<path d="M22.6218 2.95166L21.6133 4.24568C22.1493 4.66343 22.6546 5.12877 23.1153 5.62894L24.322 4.51742C23.8005 3.95135 23.2285 3.42454 22.6218 2.95166Z" fill="#AB3534"/>
<path d="M6.02251 15.9241C6.11855 15.6834 6.25707 15.4593 6.43382 15.2629L7.52719 14.048C8.10414 13.407 8.42187 12.579 8.42187 11.7166C8.42187 10.5594 7.48043 9.61792 6.32324 9.61792C5.16605 9.61792 4.22461 10.5594 4.22461 11.7166V12.3415H5.86523V11.7166C5.86523 11.464 6.07069 11.2585 6.32324 11.2585C6.57579 11.2585 6.78125 11.464 6.78125 11.7166C6.78125 12.173 6.61308 12.6112 6.30771 12.9505L5.2144 14.1653C4.57619 14.8745 4.22466 15.7904 4.22466 16.7445V17.5648H8.5004V15.9241H6.02251Z" fill="#AB3534"/>
<path d="M13.2322 13.9925V9.61792H11.2637L8.7793 13.7918V15.6332H11.5915V17.4965H13.2322V15.6332H13.9174V13.9925H13.2322ZM11.5915 13.9925H10.5691L11.5915 12.2748V13.9925Z" fill="#AB3534"/>
<path d="M19.9707 9.61792V11.2585H22.2349L21.083 17.3439L22.6951 17.6491L24.2152 9.61792H19.9707Z" fill="#AB3534"/>
<path d="M16.5681 9.58778L15.2852 17.3638L16.904 17.6309L18.187 9.85489L16.5681 9.58778Z" fill="#AB3534"/>
</g>
<defs>
<clipPath id="clip0_1_33622">
<rect width="28" height="28" fill="white"/>
</clipPath>
</defs>
</svg>
