<svg width="28" height="28" viewBox="0 0 28 28" fill="none" xmlns="http://www.w3.org/2000/svg">
<g clip-path="url(#clip0_1_33612)">
<path d="M27.2777 7.24572L21.782 0.275685C21.6442 0.101884 21.4404 0 21.2187 0H6.78716C6.56542 0 6.36165 0.101884 6.22381 0.275685L0.728088 7.24572C0.626204 7.37158 0.572266 7.5274 0.572266 7.68921V27.2808C0.572266 27.6764 0.895896 28 1.29144 28H26.7084C27.1039 28 27.4276 27.6764 27.4276 27.2808V7.68921C27.4336 7.5274 27.3796 7.37158 27.2777 7.24572ZM25.324 7.0899H14.7221V1.43836H20.8711L25.324 7.0899ZM7.13477 1.43836H13.2837V7.0899H2.68185L7.13477 1.43836ZM2.01062 26.5616V8.52825H25.9892V26.5616H2.01062Z" fill="#AB3534"/>
<path d="M17.4136 14.3176L12.5951 19.1361L10.5934 17.1343C10.3117 16.8527 9.85622 16.8527 9.57454 17.1343C9.29286 17.416 9.29286 17.8715 9.57454 18.1532L12.0857 20.6643C12.2235 20.8021 12.4093 20.8741 12.5951 20.8741C12.7809 20.8741 12.9607 20.8021 13.1045 20.6643L18.4264 15.3424C18.7081 15.0607 18.7081 14.6052 18.4264 14.3236C18.1507 14.0359 17.6952 14.0359 17.4136 14.3176Z" fill="#AB3534"/>
</g>
<defs>
<clipPath id="clip0_1_33612">
<rect width="28" height="28" fill="white"/>
</clipPath>
</defs>
</svg>
