<svg width="28" height="28" viewBox="0 0 28 28" fill="none" xmlns="http://www.w3.org/2000/svg">
<path d="M11.6497 3.46554C11.9554 2.49382 12.7957 1.75 13.8585 1.75C14.9213 1.75 15.7616 2.49382 16.0672 3.46554C16.4308 3.20262 16.8712 3.04629 17.3585 3.04629C18.7034 3.04629 19.6918 4.23736 19.6918 5.57408V5.97413C20.0297 5.76225 20.4257 5.63889 20.8585 5.63889C22.2034 5.63889 23.1918 6.82995 23.1918 8.16667V11.6667C23.1918 11.9888 22.9306 12.25 22.6085 12.25C22.2863 12.25 22.0252 11.9888 22.0252 11.6667V8.16667C22.0252 7.35561 21.4465 6.80555 20.8585 6.80555C20.2704 6.80555 19.6918 7.35561 19.6918 8.16667V10.5C19.6918 10.8222 19.4306 11.0833 19.1085 11.0833C18.7863 11.0833 18.5252 10.8222 18.5252 10.5V5.57408C18.5252 4.76302 17.9465 4.21296 17.3585 4.21296C16.7704 4.21296 16.1918 4.76302 16.1918 5.57408V12.0555C16.1918 12.3777 15.9306 12.6388 15.6085 12.6388C15.2863 12.6388 15.0252 12.3777 15.0252 12.0555V4.27778C15.0252 3.46673 14.4465 2.91667 13.8585 2.91667C13.2704 2.91667 12.6918 3.46673 12.6918 4.27778V13.3518C12.6918 13.674 12.4306 13.9351 12.1085 13.9351C11.7863 13.9351 11.5251 13.674 11.5251 13.3518V5.57408C11.5251 4.76302 10.9465 4.21296 10.3585 4.21296C9.77042 4.21296 9.1918 4.76302 9.1918 5.57408V16.5926C9.1918 16.8364 9.04022 17.0544 8.81174 17.1394C8.58326 17.2243 8.32606 17.1583 8.16681 16.9737L4.88347 13.1684C4.43163 12.6707 3.72994 12.6721 3.27949 13.1726C2.79573 13.7101 2.79573 14.6044 3.27949 15.1419C3.28872 15.1522 3.29759 15.1628 3.30607 15.1737L6.16185 18.8394L7.83817 21.1185C7.85132 21.1365 7.86344 21.1551 7.87448 21.1743C9.27977 23.628 11.6948 25.0833 14.2582 25.0833H14.4418C14.7639 25.0833 15.0252 25.3445 15.0252 25.6667C15.0252 25.9888 14.7639 26.25 14.4418 26.25H14.2582C11.2478 26.25 8.47449 24.5472 6.87896 21.7835L5.22667 19.5373L2.39761 15.906C1.52926 14.9238 1.53416 13.3678 2.41231 12.3921C3.32745 11.3753 4.83922 11.3753 5.75436 12.3921L5.76252 12.4012L8.02513 15.0236V5.57408C8.02513 4.23736 9.01351 3.04629 10.3585 3.04629C10.8457 3.04629 11.2861 3.20262 11.6497 3.46554V3.46554Z" fill="#AB3534"/>
<path d="M22.2953 19.3657C22.5232 19.1379 22.5233 18.7686 22.2956 18.5406C22.0678 18.3127 21.6986 18.3126 21.4706 18.5404L19.8369 20.1728L18.711 19.034C18.4845 18.8048 18.1152 18.8027 17.886 19.0293C17.657 19.2558 17.6549 19.6251 17.8814 19.8543L19.4196 21.4101C19.5288 21.5205 19.6774 21.5828 19.8327 21.5833C19.9879 21.5837 20.137 21.5224 20.2468 21.4126L22.2953 19.3657Z" fill="#AB3534"/>
<path fill-rule="evenodd" clip-rule="evenodd" d="M19.4096 13.5048C19.6883 13.4351 19.9797 13.4351 20.2584 13.5048L24.6422 14.6007C24.9019 14.6657 25.084 14.899 25.084 15.1667V18.6667C25.084 21.0535 23.9601 23.3011 22.0507 24.7333L20.884 25.6083C20.2618 26.075 19.4062 26.075 18.784 25.6083L17.6173 24.7333C15.7078 23.3011 14.584 21.0535 14.584 18.6667V15.1667C14.584 14.899 14.7661 14.6657 15.0258 14.6007L19.4096 13.5048ZM19.9755 14.6367C19.8825 14.6134 19.7855 14.6134 19.6925 14.6367L15.7507 15.6221V18.6667C15.7507 20.6863 16.7016 22.5882 18.3173 23.8L19.484 24.675C19.6914 24.8305 19.9765 24.8305 20.184 24.675L21.3506 23.8C22.9664 22.5882 23.9173 20.6863 23.9173 18.6667V15.6221L19.9755 14.6367Z" fill="#AB3534"/>
</svg>
