<svg width="52" height="52" viewBox="0 0 52 52" fill="none" xmlns="http://www.w3.org/2000/svg">
<g clip-path="url(#clip0_69_189)">
<path d="M12.1332 35.5333C10.6973 35.5333 9.5332 36.6974 9.5332 38.1333C9.5332 39.5692 10.6972 40.7333 12.1332 40.7333C13.5692 40.7333 14.7332 39.5693 14.7332 38.1333C14.7316 36.698 13.5685 35.5348 12.1332 35.5333ZM12.1332 39C11.6545 39 11.2666 38.612 11.2666 38.1333C11.2666 37.6547 11.6545 37.2667 12.1332 37.2667C12.6119 37.2667 12.9998 37.6547 12.9998 38.1333C12.9993 38.6118 12.6117 38.9994 12.1332 39Z" fill="#AB3534"/>
<path d="M39.8666 35.5333C38.4307 35.5333 37.2666 36.6974 37.2666 38.1333C37.2666 39.5692 38.4307 40.7333 39.8666 40.7333C41.3025 40.7333 42.4666 39.5693 42.4666 38.1333C42.4651 36.698 41.3019 35.5348 39.8666 35.5333ZM39.8666 39C39.3879 39 39 38.612 39 38.1333C39 37.6547 39.388 37.2667 39.8666 37.2667C40.3453 37.2667 40.7332 37.6547 40.7332 38.1333C40.7328 38.6118 40.3451 38.9994 39.8666 39Z" fill="#AB3534"/>
<path d="M51.3394 23.1969L45.3693 16.4734C44.8747 15.9165 44.165 15.5985 43.4201 15.6H35.5334V10.4C35.5318 8.96471 34.3686 7.80151 32.9334 7.79999H2.6C1.16472 7.80151 0.00152352 8.96471 8.46389e-08 10.4V32.9334C-0.000101478 33.1632 0.0912032 33.3837 0.253805 33.5463C0.416305 33.7088 0.636797 33.8001 0.866735 33.8001H1.73337V36.4001C1.73489 37.8354 2.89809 38.9986 4.33337 39.0001H6.1359C6.56307 41.984 9.11899 44.2001 12.1334 44.2001C15.1477 44.2001 17.7037 41.984 18.1308 39.0001H33.8694C34.2965 41.984 36.8525 44.2001 39.8668 44.2001C42.8812 44.2001 45.4371 41.984 45.8643 39.0001H49.4C50.8353 38.9986 51.9985 37.8354 52 36.4001V24.9252C51.9994 24.2874 51.7643 23.6724 51.3394 23.1969ZM1.73337 32.0666V10.4C1.73387 9.92153 2.12154 9.53376 2.6 9.53335H32.9334C33.4118 9.53386 33.7996 9.92153 33.8 10.4V32.0666H1.73337ZM6.1359 37.2666H4.33337C3.85491 37.2661 3.46714 36.8784 3.46673 36.4V33.8H7.89588C6.94383 34.7305 6.32521 35.9489 6.1359 37.2666ZM12.1334 42.4666C9.74015 42.4666 7.8 40.5265 7.8 38.1333C7.8 35.74 9.74015 33.8 12.1334 33.8C14.5266 33.8 16.4667 35.7401 16.4667 38.1334C16.4639 40.5254 14.5254 42.4639 12.1334 42.4666ZM20.8 37.2666H18.1307C17.9414 35.9489 17.3229 34.7304 16.3709 33.8H20.8V37.2666ZM28.6 37.2666H22.5334V33.8H28.6V37.2666ZM33.8693 37.2666H30.3334V33.8H35.6291C34.6771 34.7305 34.0586 35.9489 33.8693 37.2666ZM39.8666 42.4666C37.4734 42.4666 35.5333 40.5265 35.5333 38.1333C35.5333 35.74 37.4733 33.7999 39.8666 33.7999C42.2598 33.7999 44.2 35.74 44.2 38.1333C44.1972 40.5254 42.2587 42.4639 39.8666 42.4666ZM50.2666 36.4C50.2661 36.8784 49.8785 37.2662 49.4 37.2666H45.8641C45.432 34.2855 42.8791 32.072 39.8666 32.0666H35.5333V17.3334H39V26C39.0015 27.4353 40.1647 28.5985 41.6 28.6H50.2666V36.4ZM50.2666 26.8666H41.6C41.1215 26.8661 40.7338 26.4784 40.7334 26V17.3334H43.4201C43.6689 17.3319 43.9064 17.4374 44.0722 17.6228L50.0445 24.3488C50.1867 24.5072 50.2657 24.7123 50.2667 24.9252V26.8666H50.2666Z" fill="#AB3534"/>
</g>
<defs>
<clipPath id="clip0_69_189">
<rect width="52" height="52" fill="white"/>
</clipPath>
</defs>
</svg>
