<svg width="44" height="44" viewBox="0 0 44 44" fill="none" xmlns="http://www.w3.org/2000/svg">
<g clip-path="url(#clip0_96_5562)">
<path d="M43.6372 21.9809L36.2423 14.3403C35.9996 14.0894 35.6653 13.9478 35.3161 13.9478H30.5907V8.38623C30.5907 7.67432 30.0135 7.09717 29.3016 7.09717H5.35898C4.64707 7.09717 4.06991 7.67432 4.06991 8.38623V12.2546H3.09418C2.38227 12.2546 1.80512 12.8318 1.80512 13.5437C1.80512 14.2556 2.38227 14.8327 3.09418 14.8327H4.06991V17.4121H1.28906C0.577156 17.4121 0 17.9892 0 18.7011C0 19.413 0.577156 19.9902 1.28906 19.9902H4.06991V31.8287C4.06991 32.5406 4.64707 33.1178 5.35898 33.1178H8.10287C8.35278 33.9496 8.80593 34.7119 9.4374 35.3434C10.443 36.3491 11.7801 36.9029 13.2023 36.9029C14.6245 36.9029 15.9615 36.3491 16.9672 35.3434C17.6063 34.7043 18.0478 33.9417 18.2934 33.1319H30.6035C30.8492 33.9417 31.2907 34.7043 31.9297 35.3434C32.9354 36.3491 34.2725 36.9029 35.6947 36.9029C37.1168 36.9029 38.4538 36.3491 39.4596 35.3434C40.0986 34.7043 40.5402 33.9417 40.7858 33.1319H42.7109C43.4228 33.1319 44 32.5548 44 31.8429V22.8774C44 22.5428 43.8699 22.2214 43.6372 21.9809ZM39.6694 21.5884H30.5545V16.5259H34.7698L39.6694 21.5884ZM6.64804 19.9901H13.3574C14.0693 19.9901 14.6465 19.413 14.6465 18.7011C14.6465 17.9891 14.0693 17.412 13.3574 17.412H6.64804V14.8327H14.303C15.0149 14.8327 15.5921 14.2555 15.5921 13.5436C15.5921 12.8317 15.0149 12.2545 14.303 12.2545H6.64804V9.67521H14.303H28.0124L27.9763 30.5536H18.4253C18.2298 29.5489 17.7439 28.5899 16.9672 27.8132C15.9616 26.8075 14.6245 26.2537 13.2023 26.2537C11.7801 26.2537 10.4431 26.8075 9.4374 27.8132C8.68115 28.5694 8.18056 29.5131 7.9787 30.5395H6.64804V19.9901ZM15.1442 33.5204C14.6255 34.0391 13.9358 34.3248 13.2023 34.3248C12.4688 34.3248 11.7791 34.0391 11.2604 33.5204C10.7417 33.0017 10.456 32.3119 10.456 31.5784C10.456 30.8447 10.7417 30.155 11.2604 29.6363C11.7791 29.1175 12.4688 28.8319 13.2023 28.8319C13.9358 28.8319 14.6255 29.1175 15.1442 29.6363C16.215 30.7071 16.215 32.4495 15.1442 33.5204ZM37.6364 33.5204C37.1177 34.0391 36.428 34.3248 35.6945 34.3248C34.961 34.3248 34.2713 34.0391 33.7526 33.5204C32.6818 32.4495 32.6818 30.7072 33.7526 29.6363C34.2713 29.1176 34.961 28.832 35.6945 28.832C36.428 28.832 37.1177 29.1176 37.6364 29.6363C38.1551 30.1551 38.4407 30.8448 38.4407 31.5784C38.4408 32.3119 38.1551 33.0017 37.6364 33.5204ZM40.9176 30.5537C40.7221 29.5489 40.2361 28.59 39.4594 27.8133C38.4538 26.8075 37.1167 26.2538 35.6945 26.2538C34.2723 26.2538 32.9353 26.8075 31.9296 27.8133C31.2448 28.4981 30.7874 29.3248 30.5544 30.1995V24.1665H41.4219V30.5537H40.9176Z" fill="#AB3534"/>
</g>
<defs>
<clipPath id="clip0_96_5562">
<rect width="44" height="44" fill="white"/>
</clipPath>
</defs>
</svg>
