<svg width="52" height="52" viewBox="0 0 52 52" fill="none" xmlns="http://www.w3.org/2000/svg">
<g clip-path="url(#clip0_69_134)">
<path d="M51.5168 16.4266L26.5947 0.176574C26.4186 0.0616708 26.2129 0.000488281 26.0027 0.000488281C25.7924 0.000488281 25.5867 0.0616708 25.4106 0.176574L0.493977 16.4266C0.262122 16.5873 0.102111 16.8321 0.0479714 17.109C-0.00616826 17.3859 0.0498346 17.6729 0.204071 17.9092C0.358307 18.1454 0.598608 18.3121 0.873873 18.3739C1.14914 18.4357 1.43765 18.3877 1.67806 18.2401L4.33331 16.5067V48.75C4.33331 49.6119 4.67572 50.4386 5.28521 51.0481C5.89471 51.6576 6.72136 52 7.58331 52H44.4242C45.2862 52 46.1128 51.6576 46.7223 51.0481C47.3318 50.4386 47.6742 49.6119 47.6742 48.75V16.5067C48.0946 16.7072 50.4692 18.5261 50.9242 18.4167C51.1553 18.4121 51.3789 18.3343 51.5629 18.1943C51.7468 18.0544 51.8814 17.8596 51.9474 17.6381C52.0133 17.4166 52.0072 17.1798 51.9298 16.9621C51.8524 16.7443 51.7078 16.5568 51.5168 16.4266ZM37.9221 49.8333H35.7554V42.25C35.7554 41.9627 35.6413 41.6871 35.4381 41.484C35.2349 41.2808 34.9594 41.1667 34.6721 41.1667H31.4166V33.5833C31.4166 33.296 31.3025 33.0205 31.0993 32.8173C30.8962 32.6141 30.6206 32.5 30.3333 32.5H21.6666C21.3793 32.5 21.1038 32.6141 20.9006 32.8173C20.6974 33.0205 20.5833 33.296 20.5833 33.5833V41.1667H17.3333C17.046 41.1667 16.7704 41.2808 16.5673 41.484C16.3641 41.6871 16.25 41.9627 16.25 42.25V49.8333H14.0833V30.3333H37.9166L37.9221 49.8333ZM22.75 41.1667V34.6667H29.25V41.1667H22.75ZM18.4166 43.3333H24.9166V49.8333H18.4166V43.3333ZM27.0833 49.8333V43.3333H33.5833V49.8333H27.0833ZM45.5 48.75C45.5 49.0373 45.3858 49.3129 45.1827 49.516C44.9795 49.7192 44.704 49.8333 44.4166 49.8333H40.0833V29.25C40.0833 28.9627 39.9692 28.6871 39.766 28.484C39.5628 28.2808 39.2873 28.1667 39 28.1667H13C12.7127 28.1667 12.4371 28.2808 12.2339 28.484C12.0308 28.6871 11.9166 28.9627 11.9166 29.25V49.8333H7.58331C7.29599 49.8333 7.02044 49.7192 6.81728 49.516C6.61411 49.3129 6.49998 49.0373 6.49998 48.75V15.0941L26 2.37682L45.5 15.0941V48.75ZM34.6666 21.6667C34.6666 21.954 34.5525 22.2295 34.3493 22.4327C34.1462 22.6359 33.8706 22.75 33.5833 22.75H18.4166C18.1293 22.75 17.8538 22.6359 17.6506 22.4327C17.4474 22.2295 17.3333 21.954 17.3333 21.6667C17.3333 21.3793 17.4474 21.1038 17.6506 20.9006C17.8538 20.6975 18.1293 20.5833 18.4166 20.5833H33.5833C33.726 20.5826 33.8675 20.6101 33.9995 20.6642C34.1316 20.7184 34.2517 20.798 34.3528 20.8987C34.454 20.9994 34.5343 21.119 34.5891 21.2508C34.6439 21.3826 34.6721 21.5239 34.6721 21.6667H34.6666ZM18.4166 15.1667H33.5833C33.8706 15.1667 34.1462 15.2808 34.3493 15.484C34.5525 15.6871 34.6666 15.9627 34.6666 16.25C34.6666 16.5373 34.5525 16.8129 34.3493 17.016C34.1462 17.2192 33.8706 17.3333 33.5833 17.3333H18.4166C18.1293 17.3333 17.8538 17.2192 17.6506 17.016C17.4474 16.8129 17.3333 16.5373 17.3333 16.25C17.3333 15.9627 17.4474 15.6871 17.6506 15.484C17.8538 15.2808 18.1293 15.1667 18.4166 15.1667Z" fill="#AB3534"/>
</g>
<defs>
<clipPath id="clip0_69_134">
<rect width="52" height="52" fill="white"/>
</clipPath>
</defs>
</svg>
