<svg width="110" height="22" viewBox="0 0 110 22" fill="none" xmlns="http://www.w3.org/2000/svg">
<path d="M22.4998 21.0016L23.1049 15.5016C23.1049 15.5016 31.4998 19.0016 31.4998 16.0016C31.4998 15.0016 30.4998 14.5016 28.9998 14.0016C27.9777 13.6609 25.3454 12.2859 24.9998 12.0016C22.8767 10.2544 23.4998 8.00155 23.4998 8.00155C23.4998 8.00155 25.1141 6.04122 26.4998 5.50156C27.501 5.11163 28.9536 4.94225 30.1146 4.86944C31.18 4.80261 31.9998 4.81711 31.9998 4.81711C31.9998 4.81711 30.4998 5.30066 30.4998 6.50156C30.4998 8.00156 32.4998 8.50156 33.4998 9.00156C35.1123 9.80779 37.6583 10.6663 38.6049 13.0016C39.1917 14.4493 38.9081 16.5004 38.6049 17.0016C38.4628 17.2364 38.4203 18.0811 36.9998 19.5016C34.2349 22.2665 30.7225 21.8733 28.4998 22.0016C26.4998 22.117 22.4998 21.0016 22.4998 21.0016Z" fill="#79231E"/>
<path d="M41.9998 0.501549H48.4998L46.4998 22.0016L39.9998 22.0015L41.9998 0.501549Z" fill="#B73830"/>
<path d="M55.9998 0.501544H61.4998L54.4998 22.0015H47.9998L55.9998 0.501544Z" fill="#B73830"/>
<path d="M59.4998 0.501544H64.4998L68.9998 22.0015H62.9998L60.1364 4.68934L60.9998 2.03726L61.4998 0.501544H59.4998Z" fill="#B73830"/>
<path d="M57.2673 13.5015H61.6161L62.3487 18.0015H55.8022L57.2673 13.5015Z" fill="#79231E"/>
<path d="M72.4998 5.00156H78.4998L76.9998 22.0016L70.9998 22.0015L72.4998 5.00156Z" fill="#79231E"/>
<path d="M87.9998 0.501544L87.4998 5.00156H72.4998L72.8851 0.501544H87.9998Z" fill="#B73830"/>
<path d="M77.7498 13.5016L78.1469 9.00147H83.9998L83.4998 13.5015L77.7498 13.5016Z" fill="#B73830"/>
<path d="M87.9998 0.501544H94.9998L101.5 11.5015L100.5 22.0016L93.9998 22.0015L94.9998 11.5015L87.9998 0.501544Z" fill="#B73830"/>
<path d="M102.5 0.501544H109.5L101.5 11.5015L98.5453 6.50147L102.5 0.501544Z" fill="#79231E"/>
<path fill-rule="evenodd" clip-rule="evenodd" d="M27.4998 5.50156C28.3863 5.14697 29.2727 4.95775 30.1146 4.86944C28.9536 4.94225 27.501 5.11163 26.4998 5.50156C25.1141 6.04122 23.4998 8.00155 23.4998 8.00155C23.4998 8.00155 25.6869 6.22674 27.4998 5.50156Z" fill="#B73830"/>
<path d="M38.4998 7.00156L38.9998 1.00156C38.9998 1.00156 34.8714 -0.135326 32.4998 0.0015493C30.2772 0.129832 28.8362 0.24294 26.9998 1.50156C25.0338 2.84902 23.7095 4.71425 23.4998 6.50155C23.4316 7.08335 23.4998 8.00155 23.4998 8.00155C23.4998 8.00155 25.1141 6.04122 26.4998 5.50156C27.501 5.11163 28.9536 4.94225 30.1146 4.86944C31.6341 4.71004 33.0084 4.87939 33.9753 4.99854L33.9998 5.00156C36.2682 5.28102 38.4998 7.00156 38.4998 7.00156Z" fill="#B73830"/>
<path d="M8 0.0015493H13.5L6.5 21.5016H0L8 0.0015493Z" fill="#B73830"/>
<path d="M11.5 0.0015493H16.5L21 21.5016H15L12.1365 4.18935L13 1.53726L13.5 0.0015493H11.5Z" fill="#B73830"/>
<path d="M9.26744 13.0016H13.6163L14.3488 17.5016H7.80233L9.26744 13.0016Z" fill="#79231E"/>
</svg>
