<svg width="34" height="34" viewBox="0 0 34 34" fill="none" xmlns="http://www.w3.org/2000/svg">
<path d="M31.3673 8.5H13.7661C12.4346 8.5 11.2683 9.44563 10.993 10.7495L8.55671 22.3236C8.51932 22.5014 8.5 22.684 8.5 22.8673C8.5 24.3192 9.68077 25.5 11.1327 25.5H28.7339C30.0654 25.5 31.2317 24.5544 31.507 23.2505L33.9433 11.6764C33.9807 11.4986 34 11.316 34 11.1327C34 9.68077 32.8192 8.5 31.3673 8.5ZM13.7661 9.91664H31.3457C28.8852 11.6249 23.4737 15.3791 21.452 16.7641C21.1781 16.9516 20.6136 17.1349 20.294 16.8326C18.8395 15.4645 15.0016 11.7915 13.1907 10.0558C13.3699 9.97428 13.5606 9.91664 13.7661 9.91664ZM32.5571 11.3832L30.1207 22.9579C29.9831 23.6102 29.4 24.0834 28.7339 24.0834H11.1327C10.4624 24.0834 9.91664 23.5376 9.91664 22.8673C9.91664 22.7829 9.92561 22.6992 9.94294 22.6168L12.3445 11.2068C14.2119 12.9955 17.9049 16.5298 19.3221 17.8639C19.7143 18.2334 20.2103 18.4291 20.7561 18.4291C21.261 18.4291 21.7785 18.2575 22.253 17.9331C24.384 16.4728 30.2807 12.3807 32.5211 10.825C32.5482 10.9257 32.5834 11.0236 32.5834 11.1327C32.5834 11.2171 32.5743 11.3008 32.5571 11.3832Z" fill="#AB3534"/>
<path d="M6.375 22.6667H0.708356C0.316824 22.6667 0 22.9836 0 23.3751C0 23.7666 0.316824 24.0835 0.708356 24.0835H6.375C6.76653 24.0835 7.08336 23.7666 7.08336 23.3751C7.08336 22.9836 6.76653 22.6667 6.375 22.6667Z" fill="#AB3534"/>
<path d="M7.08336 18.4167H0.708355C0.316824 18.4167 0 18.7336 0 19.1251C0 19.5166 0.316824 19.8335 0.708355 19.8335H7.08336C7.47489 19.8335 7.79171 19.5166 7.79171 19.1251C7.79171 18.7336 7.47489 18.4167 7.08336 18.4167Z" fill="#AB3534"/>
<path d="M7.79164 14.1667H0.708355C0.316824 14.1667 0 14.4836 0 14.8751C0 15.2666 0.316824 15.5835 0.708355 15.5835H7.79171C8.18324 15.5835 8.50007 15.2666 8.50007 14.8751C8.50007 14.4836 8.18318 14.1667 7.79164 14.1667Z" fill="#AB3534"/>
<path d="M0.708355 11.3335H8.5C8.89153 11.3335 9.20836 11.0166 9.20836 10.6251C9.20836 10.2336 8.89153 9.91675 8.5 9.91675H0.708355C0.316824 9.91675 0 10.2336 0 10.6251C0 11.0166 0.316824 11.3335 0.708355 11.3335Z" fill="#AB3534"/>
</svg>
