<svg width="52" height="52" viewBox="0 0 52 52" fill="none" xmlns="http://www.w3.org/2000/svg">
<g clip-path="url(#clip0_69_5074)">
<path d="M48.1589 30.4957C48.1581 30.3628 48.12 30.2248 48.0522 30.1109L45.8828 26.4562C45.6646 26.0893 45.2643 25.8611 44.8375 25.8611H27.2652C26.8391 25.8611 26.4388 26.0885 26.2206 26.4547L24.0421 30.1097C24.0402 30.1133 24.0386 30.1172 24.0362 30.1208C24.0322 30.128 24.0279 30.1351 24.0239 30.1422H20.0098C19.5889 30.1422 19.2481 30.4834 19.2481 30.904C19.2481 31.3249 19.5889 31.6657 20.0098 31.6657H23.9346V33.2268H20.0098C19.5889 33.2268 19.2481 33.568 19.2481 33.9885C19.2481 34.4095 19.5889 34.7502 20.0098 34.7502H23.9346V41.0725H20.0098C19.5889 41.0725 19.2481 41.4137 19.2481 41.8342C19.2481 42.2552 19.5889 42.5959 20.0098 42.5959H23.9346V44.1571H20.0098C19.5889 44.1571 19.2481 44.4983 19.2481 44.9188C19.2481 45.3397 19.5889 45.6805 20.0098 45.6805H23.9346V50.4373H7.43112C6.2457 50.4373 5.28125 49.4728 5.28125 48.2874V3.67331C5.28125 2.48788 6.2457 1.52344 7.43112 1.52344H36.2074L41.9286 7.24387V23.1717C41.9286 23.5927 42.2698 23.9334 42.6904 23.9334C43.1109 23.9334 43.4521 23.5927 43.4521 23.1717V6.92847C43.4521 6.72614 43.3719 6.53253 43.2291 6.38971L37.0612 0.222961C36.9184 0.0801391 36.7248 0 36.5228 0H7.43112C5.40582 0 3.75781 1.64801 3.75781 3.67331V48.287C3.75781 50.3127 5.40582 51.9603 7.43112 51.9603H25.0883C25.1966 51.9853 25.3085 52 25.4236 52H46.67C47.4908 52 48.1589 51.3319 48.1589 50.5111V30.4997C48.1589 30.4985 48.1589 30.4969 48.1589 30.4957ZM46.0594 29.738H39.5086L39.0976 27.3846H44.6621L46.0594 29.738ZM34.3119 31.2614H38.107V36.6577L36.6645 35.583C36.3943 35.3818 36.0241 35.3818 35.7544 35.583L34.3119 36.6577V31.2614ZM37.5511 27.3846L37.9622 29.738H34.4412L34.8117 27.3846H37.5511ZM25.4581 50.4766V30.7096L27.4397 27.3846H33.2697L32.8987 29.738H28.5014C28.0808 29.738 27.7397 30.0788 27.7397 30.4997C27.7397 30.9206 28.0808 31.2614 28.5014 31.2614H32.7884V38.1748C32.7884 38.4628 32.9507 38.7263 33.2082 38.8556C33.4656 38.9845 33.7739 38.9579 34.0052 38.7858L36.2094 37.1437L38.4136 38.7858C38.5477 38.8853 38.7076 38.9365 38.8687 38.9365C38.9853 38.9365 39.1024 38.9099 39.2103 38.8556C39.4677 38.7263 39.6304 38.4628 39.6304 38.1748V31.2614H46.6354V50.4766H25.4581Z" fill="#AB3534"/>
<path d="M17.7863 4.50011C17.4887 4.20256 17.0067 4.20296 16.7092 4.50011L15.3353 5.87398C14.5593 5.19915 13.5468 4.78893 12.4396 4.78893C10.0029 4.78893 8.02002 6.77178 8.02002 9.20848C8.02002 11.6452 10.0029 13.628 12.4396 13.628C14.8767 13.628 16.8591 11.6456 16.8591 9.20848C16.8591 8.4301 16.656 7.69854 16.3013 7.06258L17.7867 5.57763C18.0838 5.28008 18.0838 4.79766 17.7863 4.50011ZM15.3357 9.20848C15.3357 10.8053 14.0368 12.1046 12.4396 12.1046C10.8427 12.1046 9.54346 10.8053 9.54346 9.20848C9.54346 7.61165 10.8427 6.31237 12.4396 6.31237C13.1267 6.31237 13.7579 6.55318 14.255 6.95427L12.5872 8.62212L12.369 8.40432C12.0714 8.10677 11.5894 8.10677 11.2918 8.40432C10.9943 8.70186 10.9943 9.18428 11.2918 9.48143L12.0484 10.238C12.1972 10.3868 12.392 10.4614 12.5872 10.4614C12.782 10.4614 12.9767 10.3868 13.1255 10.238L15.1572 8.20675C15.2726 8.51897 15.3357 8.85619 15.3357 9.20848Z" fill="#AB3534"/>
<path d="M36.9928 6.9043H20.0093C19.5887 6.9043 19.2476 7.24548 19.2476 7.66602C19.2476 8.08694 19.5887 8.42773 20.0093 8.42773H36.9928C37.4138 8.42773 37.7545 8.08694 37.7545 7.66602C37.7545 7.24548 37.4138 6.9043 36.9928 6.9043Z" fill="#AB3534"/>
<path d="M20.0093 11.5123H26.7195C27.1405 11.5123 27.4813 11.1715 27.4813 10.7505C27.4813 10.33 27.1405 9.98883 26.7195 9.98883H20.0093C19.5887 9.98883 19.2476 10.33 19.2476 10.7505C19.2476 11.1715 19.5887 11.5123 20.0093 11.5123Z" fill="#AB3534"/>
<path d="M17.7863 15.8925C17.4887 15.595 17.0067 15.595 16.7092 15.8925L15.3353 17.2664C14.5593 16.5912 13.5468 16.1814 12.4396 16.1814C10.0029 16.1814 8.02002 18.1638 8.02002 20.6009C8.02002 23.038 10.0029 25.0205 12.4396 25.0205C14.8767 25.0205 16.8591 23.038 16.8591 20.6009C16.8591 19.8225 16.656 19.091 16.3013 18.455L17.7867 16.97C18.0838 16.6721 18.0838 16.1901 17.7863 15.8925ZM15.3357 20.6009C15.3357 22.1977 14.0368 23.497 12.4396 23.497C10.8427 23.497 9.54346 22.1977 9.54346 20.6009C9.54346 19.0041 10.8427 17.7048 12.4396 17.7048C13.1267 17.7048 13.7579 17.9456 14.255 18.3467L12.5872 20.0145L12.369 19.7967C12.0714 19.4992 11.5894 19.4992 11.2918 19.7967C10.9943 20.0943 10.9943 20.5767 11.2918 20.8739L12.0484 21.6304C12.1972 21.7792 12.392 21.8538 12.5872 21.8538C12.782 21.8538 12.9767 21.7792 13.1255 21.6304L15.1572 19.5992C15.2726 19.9114 15.3357 20.249 15.3357 20.6009Z" fill="#AB3534"/>
<path d="M37.7545 19.0585C37.7545 18.6379 37.4138 18.2968 36.9928 18.2968H20.0093C19.5887 18.2968 19.2476 18.6379 19.2476 19.0585C19.2476 19.4794 19.5887 19.8202 20.0093 19.8202H36.9928C37.4138 19.8202 37.7545 19.4794 37.7545 19.0585Z" fill="#AB3534"/>
<path d="M20.0093 21.3813C19.5887 21.3813 19.2476 21.7225 19.2476 22.143C19.2476 22.5639 19.5887 22.9047 20.0093 22.9047H26.7195C27.1405 22.9047 27.4813 22.5639 27.4813 22.143C27.4813 21.7225 27.1405 21.3813 26.7195 21.3813H20.0093Z" fill="#AB3534"/>
<path d="M12.4396 28.0265C10.0029 28.0265 8.02002 30.0093 8.02002 32.446C8.02002 34.8831 10.0029 36.8656 12.4396 36.8656C14.8767 36.8656 16.8591 34.8831 16.8591 32.446C16.8591 30.0093 14.8767 28.0265 12.4396 28.0265ZM12.4396 35.3422C10.8427 35.3422 9.54346 34.0429 9.54346 32.446C9.54346 30.8492 10.8427 29.5499 12.4396 29.5499C14.0368 29.5499 15.3357 30.8492 15.3357 32.446C15.3357 34.0429 14.0364 35.3422 12.4396 35.3422Z" fill="#AB3534"/>
<path d="M12.4396 38.9568C10.0029 38.9568 8.02002 40.9396 8.02002 43.3767C8.02002 45.8134 10.0029 47.7963 12.4396 47.7963C14.8767 47.7963 16.8591 45.8134 16.8591 43.3767C16.8591 40.9396 14.8767 38.9568 12.4396 38.9568ZM12.4396 46.2724C10.8427 46.2724 9.54346 44.9735 9.54346 43.3763C9.54346 41.7795 10.8427 40.4802 12.4396 40.4802C14.0368 40.4802 15.3357 41.7795 15.3357 43.3763C15.3357 44.9735 14.0364 46.2724 12.4396 46.2724Z" fill="#AB3534"/>
</g>
<defs>
<clipPath id="clip0_69_5074">
<rect width="52" height="52" fill="white"/>
</clipPath>
</defs>
</svg>
