<svg width="40" height="44" viewBox="0 0 40 44" fill="none" xmlns="http://www.w3.org/2000/svg">
<path d="M22.9307 27.3392C25.803 27.3392 28.1388 25.0035 28.1388 22.1312C28.1388 19.2588 25.803 16.9231 22.9307 16.9231C20.0584 16.9231 17.7227 19.2588 17.7227 22.1312C17.7227 25.0035 20.0583 27.3392 22.9307 27.3392ZM22.9307 18.9966C24.6627 18.9966 26.0653 20.4053 26.0653 22.1312C26.0653 23.8631 24.6566 25.2658 22.9307 25.2658C21.1987 25.2658 19.7961 23.8571 19.7961 22.1312C19.7961 20.4053 21.2048 18.9966 22.9307 18.9966Z" fill="#AB3534"/>
<path d="M26.3274 28.9125H19.5216C15.7222 28.9125 12.6304 31.9983 12.6304 35.7853V42.1643C12.6304 43.1949 13.4353 43.9999 14.466 43.9999H31.3646C32.3953 43.9999 33.2002 43.1949 33.2002 42.1643V35.7914C33.2064 31.9982 30.1205 28.9125 26.3274 28.9125ZM31.1268 41.9326H29.2179V35.8158C29.2179 35.3463 28.8337 34.9621 28.3641 34.9621C27.8946 34.9621 27.5104 35.3463 27.5104 35.8158V41.9326H18.2957V35.8158C18.2957 35.3463 17.9114 34.9621 17.4419 34.9621C16.9724 34.9621 16.5881 35.3463 16.5881 35.8158V41.9326H14.7098V35.7915C14.7098 33.1448 16.8686 30.9859 19.5214 30.9859H26.3272C28.974 30.9859 31.1266 33.1387 31.1266 35.7853V41.9326H31.1268Z" fill="#AB3534"/>
<path d="M29.4434 10.4161C32.3157 10.4161 34.6515 8.08039 34.6515 5.20806C34.6515 2.33574 32.3157 0 29.4434 0C26.5711 0 24.2354 2.33574 24.2354 5.20806C24.2354 8.08039 26.5711 10.4161 29.4434 10.4161ZM29.4434 2.07346C31.1754 2.07346 32.578 3.48217 32.578 5.20806C32.578 6.93396 31.1693 8.34267 29.4434 8.34267C27.7114 8.34267 26.3088 6.93396 26.3088 5.20806C26.3088 3.48217 27.7114 2.07346 29.4434 2.07346Z" fill="#AB3534"/>
<path d="M37.6948 14.0019C36.3958 12.7029 34.67 11.9834 32.8344 11.9834H25.9188C23.7478 11.9834 21.6865 13.0323 20.3997 14.7887C20.0582 15.2521 20.1619 15.8985 20.6193 16.2401C20.8022 16.3742 21.0217 16.4414 21.2291 16.4414C21.5462 16.4414 21.8634 16.295 22.0645 16.0206C22.9609 14.7949 24.4003 14.0631 25.9126 14.0631H32.8404C34.121 14.0631 35.3224 14.5631 36.2311 15.4718C37.1397 16.3804 37.6398 17.5879 37.6398 18.8624V25.0097H35.7309V18.8929C35.7309 18.4234 35.3467 18.0392 34.8771 18.0392C34.4076 18.0392 34.0234 18.4234 34.0234 18.8929V25.0097H28.6751C28.1018 25.0097 27.6384 25.4731 27.6384 26.0464C27.6384 26.6197 28.1018 27.0831 28.6751 27.0831H37.8716C38.9022 27.0831 39.7072 26.2782 39.7072 25.2476V18.8626C39.7132 18.8626 39.7132 18.8626 39.7132 18.8626C39.7133 17.0267 38.9999 15.301 37.6948 14.0019Z" fill="#AB3534"/>
<path d="M10.5811 17.3683C13.4534 17.3683 15.7892 15.0325 15.7892 12.1602C15.7892 9.28789 13.4534 6.95215 10.5811 6.95215C7.70878 6.95215 5.37305 9.28789 5.37305 12.1602C5.37305 15.0325 7.70866 17.3683 10.5811 17.3683ZM10.5811 9.01953C12.3131 9.01953 13.7157 10.4282 13.7157 12.1541C13.7157 13.8861 12.307 15.2887 10.5811 15.2887C8.84914 15.2887 7.4465 13.88 7.4465 12.1541C7.4465 10.4282 8.85521 9.01953 10.5811 9.01953Z" fill="#AB3534"/>
<path d="M11.2397 31.9618H5.97066V25.8389C5.97066 25.3694 5.58641 24.9852 5.11688 24.9852C4.64735 24.9852 4.2631 25.3694 4.2631 25.8389V31.9618H2.35437V25.8145C2.35437 23.1678 4.51323 21.0151 7.17211 21.0151L14.0207 21.0212C14.6366 21.0212 15.2099 21.131 15.7831 21.3627C15.9112 21.4115 16.0392 21.4358 16.1735 21.4358C16.582 21.4358 16.9723 21.1919 17.1371 20.7894C17.3505 20.2589 17.0944 19.6551 16.5638 19.4417C15.7405 19.1123 14.9111 18.9477 14.0269 18.9477L7.17831 18.9417C3.37895 18.9417 0.287109 22.0274 0.287109 25.8145V32.1934C0.287109 33.2241 1.09205 34.029 2.12271 34.029H11.2398C11.8131 34.029 12.2766 33.5656 12.2766 32.9923C12.2764 32.4252 11.813 31.9618 11.2397 31.9618Z" fill="#AB3534"/>
</svg>
