<svg width="52" height="52" viewBox="0 0 52 52" fill="none" xmlns="http://www.w3.org/2000/svg">
<g clip-path="url(#clip0_69_6186)">
<path d="M42.4127 18.0658H33.6784L23.811 10.2457C23.6625 10.1283 23.4797 10.0645 23.2901 10.0645H18.1027C17.4963 10.0645 17.0845 10.7195 17.3462 11.2664L20.6079 18.0658H8.46174L4.88884 14.534C4.73116 14.3772 4.55503 14.2807 4.29839 14.2916L0.837871 14.295C0.374903 14.2958 0 14.6707 0 15.1337V28.4155C0 28.7594 0.209677 29.068 0.529226 29.1955L4.33026 30.7052C4.42923 30.7437 4.53406 30.7639 4.63974 30.7639H20.7673L17.3101 40.8242C17.1248 41.3626 17.5399 41.9355 18.1027 41.9355H23.2901C23.5275 41.9355 23.7531 41.8348 23.9125 41.6595L33.7623 30.7639H42.4127C45.7801 30.7639 52 28.1463 52 24.4148C52 20.6834 45.7801 18.0658 42.4127 18.0658ZM19.4354 11.7419H22.9983L30.9769 18.0658H22.469L19.4354 11.7419ZM22.9177 40.2581H19.2777L22.5412 30.7639H31.5011L22.9177 40.2581ZM42.4127 29.0865H4.79994L1.67742 27.846V15.9715L3.95535 15.969L7.52826 19.5008C7.68594 19.6568 7.89729 19.7432 8.11787 19.7432H42.4135C45.2484 19.7432 50.3234 22.0983 50.3234 24.4148C50.3226 26.7314 45.2484 29.0865 42.4127 29.0865Z" fill="#AB3534"/>
<path d="M42.4126 23.5174H40.7352C40.2722 23.5174 39.8965 23.1425 39.8965 22.6787C39.8965 22.2149 40.2722 21.84 40.7352 21.84H42.4126C42.8756 21.84 43.2513 22.2149 43.2513 22.6787C43.2513 23.1425 42.8764 23.5174 42.4126 23.5174Z" fill="#AB3534"/>
<path d="M37.1965 23.5174H33.6571C33.1942 23.5174 32.8184 23.1425 32.8184 22.6787C32.8184 22.2149 33.1942 21.84 33.6571 21.84H37.1965C37.6595 21.84 38.0352 22.2149 38.0352 22.6787C38.0352 23.1425 37.6595 23.5174 37.1965 23.5174ZM30.1178 23.5174H26.5793C26.1163 23.5174 25.7406 23.1425 25.7406 22.6787C25.7406 22.2149 26.1163 21.84 26.5793 21.84H30.1178C30.5808 21.84 30.9565 22.2149 30.9565 22.6787C30.9565 23.1425 30.5808 23.5174 30.1178 23.5174ZM23.0399 23.5174H19.5006C19.0376 23.5174 18.6619 23.1425 18.6619 22.6787C18.6619 22.2149 19.0376 21.84 19.5006 21.84H23.0399C23.5029 21.84 23.8786 22.2149 23.8786 22.6787C23.8786 23.1425 23.5029 23.5174 23.0399 23.5174ZM15.962 23.5174H12.4227C11.9597 23.5174 11.584 23.1425 11.584 22.6787C11.584 22.2149 11.9597 21.84 12.4227 21.84H15.962C16.425 21.84 16.8008 22.2149 16.8008 22.6787C16.8008 23.1425 16.425 23.5174 15.962 23.5174Z" fill="#AB3534"/>
<path d="M8.8843 23.5174H7.20687C6.74391 23.5174 6.36816 23.1425 6.36816 22.6787C6.36816 22.2149 6.74391 21.84 7.20687 21.84H8.8843C9.34726 21.84 9.72301 22.2149 9.72301 22.6787C9.72301 23.1425 9.34726 23.5174 8.8843 23.5174Z" fill="#AB3534"/>
<path d="M14.7738 34.6136H7.01156C6.54859 34.6136 6.17285 34.2387 6.17285 33.7749C6.17285 33.3111 6.54859 32.9362 7.01156 32.9362H14.7738C15.2368 32.9362 15.6125 33.3111 15.6125 33.7749C15.6125 34.2387 15.2368 34.6136 14.7738 34.6136Z" fill="#AB3534"/>
<path d="M13.2255 38.4716H5.46322C5.00025 38.4716 4.62451 38.0967 4.62451 37.6329C4.62451 37.1691 5.00025 36.7942 5.46322 36.7942H13.2255C13.6884 36.7942 14.0642 37.1691 14.0642 37.6329C14.0642 38.0967 13.6884 38.4716 13.2255 38.4716Z" fill="#AB3534"/>
</g>
<defs>
<clipPath id="clip0_69_6186">
<rect width="52" height="52" fill="white"/>
</clipPath>
</defs>
</svg>
