<svg width="52" height="52" viewBox="0 0 52 52" fill="none" xmlns="http://www.w3.org/2000/svg">
<path d="M49.0881 46.696C48.6721 46.28 48.0481 46.28 47.6321 46.696C46.9561 47.372 45.7081 47.372 45.0321 46.696C44.0441 45.708 42.6921 45.396 41.4441 45.656C43.8881 42.328 45.3961 38.272 45.7081 34.008C45.8121 32.656 44.9801 31.356 43.6281 30.888L40.0401 29.536V20.384C40.0401 18.668 38.6361 17.264 36.9201 17.264H35.8801V12.064H39.0001C39.5721 12.064 40.0401 11.596 40.0401 11.024C40.0401 10.452 39.5721 9.98404 39.0001 9.98404H34.8401H29.6401V6.34404C29.6401 4.31604 28.0281 2.70404 26.0001 2.70404C23.9721 2.70404 22.3601 4.31604 22.3601 6.34404V9.98404H17.1601H13.0001C12.4281 9.98404 11.9601 10.452 11.9601 11.024C11.9601 11.596 12.4281 12.064 13.0001 12.064H16.1201V17.264H15.0801C13.3641 17.264 11.9601 18.668 11.9601 20.384V29.536L8.3721 30.836C7.0721 31.304 6.2401 32.604 6.2921 33.956C6.6041 38.22 8.1121 42.276 10.5561 45.604C10.2961 45.552 10.0361 45.5 9.7241 45.5C8.6841 45.5 7.6961 45.916 6.9681 46.644C6.2921 47.32 5.0441 47.32 4.3681 46.644C3.9521 46.228 3.3281 46.228 2.9121 46.644C2.4961 47.06 2.4961 47.684 2.9121 48.1C3.6401 48.828 4.6281 49.244 5.6681 49.244C6.7081 49.244 7.6961 48.828 8.4241 48.1C9.1001 47.424 10.3481 47.424 11.0241 48.1C11.9081 48.984 13.1561 49.4 14.4041 49.192H14.5081H14.5601H14.6121C15.3401 49.036 16.0161 48.672 16.5361 48.152C17.2121 47.476 18.4601 47.476 19.1361 48.152C19.8641 48.88 20.8521 49.296 21.8921 49.296C22.9321 49.296 23.9201 48.88 24.6481 48.152C25.3761 47.424 26.5201 47.424 27.2481 48.152C28.7561 49.66 31.2521 49.66 32.7601 48.152C33.4881 47.424 34.6321 47.424 35.3601 48.152C35.8801 48.672 36.6081 49.036 37.3361 49.192H37.3881C37.6481 49.244 37.9081 49.244 38.1161 49.244C39.1561 49.244 40.1441 48.828 40.8721 48.1C41.6001 47.372 42.7441 47.372 43.4721 48.1C44.2001 48.828 45.1881 49.244 46.2281 49.244C47.2681 49.244 48.2561 48.828 48.9841 48.1C49.5041 47.736 49.5041 47.112 49.0881 46.696ZM24.4401 6.34404C24.4401 5.46004 25.1161 4.78404 26.0001 4.78404C26.8841 4.78404 27.5601 5.46004 27.5601 6.34404V9.98404H24.4401V6.34404ZM18.2001 12.064H23.4001H28.6001H33.8001V17.264H18.2001V12.064ZM14.0401 20.384C14.0401 19.812 14.5081 19.344 15.0801 19.344H36.9201C37.4921 19.344 37.9601 19.812 37.9601 20.384V28.808L26.3641 24.596C26.3121 24.596 26.3121 24.596 26.2601 24.596H26.2081C26.1041 24.596 25.9481 24.596 25.8441 24.596H25.7921C25.7401 24.596 25.7401 24.596 25.6881 24.596L14.0401 28.808V20.384ZM31.3561 46.696C30.6281 47.424 29.4841 47.424 28.7561 46.696C27.2481 45.188 24.7521 45.188 23.2441 46.696C22.5681 47.372 21.3201 47.372 20.6441 46.696C19.9161 45.968 18.9281 45.552 17.8881 45.552C16.8481 45.552 15.8601 45.968 15.1321 46.696C14.9761 46.852 14.8201 46.956 14.6121 47.06C11.0241 43.732 8.7361 38.948 8.3721 33.852C8.3201 33.436 8.6321 32.968 9.0481 32.812L24.9601 27.04V41.184C24.9601 41.756 25.4281 42.224 26.0001 42.224C26.5721 42.224 27.0401 41.756 27.0401 41.184V27.04L42.9521 32.76C43.3681 32.916 43.6801 33.332 43.6281 33.8C43.2641 38.896 41.0281 43.68 37.3881 47.008C37.2321 46.904 37.0241 46.8 36.8681 46.644C35.3601 45.136 32.8641 45.136 31.3561 46.696Z" fill="#AB3534"/>
</svg>
