<svg width="24" height="25" viewBox="0 0 24 25" fill="none" xmlns="http://www.w3.org/2000/svg">
<mask id="mask0_1_1051" style="mask-type:luminance" maskUnits="userSpaceOnUse" x="14" y="2" width="9" height="10">
<path fill-rule="evenodd" clip-rule="evenodd" d="M14.354 2.50024H22.893V11.0331H14.354V2.50024Z" fill="white"/>
</mask>
<g mask="url(#mask0_1_1051)">
<path fill-rule="evenodd" clip-rule="evenodd" d="M22.1427 11.0331C21.7657 11.0331 21.4417 10.7501 21.3987 10.3671C21.0197 6.99106 18.3977 4.37106 15.0207 3.99606C14.6097 3.95006 14.3127 3.58006 14.3587 3.16806C14.4037 2.75706 14.7707 2.45406 15.1867 2.50606C19.2647 2.95906 22.4317 6.12206 22.8887 10.1991C22.9347 10.6111 22.6387 10.9821 22.2277 11.0281C22.1997 11.0311 22.1707 11.0331 22.1427 11.0331Z" fill="#AB3534"/>
</g>
<path fill-rule="evenodd" clip-rule="evenodd" d="M18.6026 11.0439C18.2506 11.0439 17.9376 10.7959 17.8676 10.4379C17.5796 8.95791 16.4386 7.81691 14.9606 7.52991C14.5536 7.45091 14.2886 7.05791 14.3676 6.65091C14.4466 6.24391 14.8466 5.97791 15.2466 6.05791C17.3276 6.46191 18.9346 8.06791 19.3396 10.1499C19.4186 10.5579 19.1536 10.9509 18.7476 11.0299C18.6986 11.0389 18.6506 11.0439 18.6026 11.0439Z" fill="#AB3534"/>
<mask id="mask1_1_1051" style="mask-type:luminance" maskUnits="userSpaceOnUse" x="2" y="2" width="21" height="22">
<path fill-rule="evenodd" clip-rule="evenodd" d="M2.00043 2.49988H22.5007V23.0004H2.00043V2.49988Z" fill="white"/>
</mask>
<g mask="url(#mask1_1_1051)">
<path fill-rule="evenodd" clip-rule="evenodd" d="M4.35951 5.56142C4.36151 5.56142 4.31151 5.61342 4.24851 5.67542C4.00651 5.91042 3.50551 6.39942 3.50051 7.42242C3.49251 8.85342 4.43351 11.5104 8.96451 16.0404C13.4735 20.5484 16.1265 21.5004 17.5615 21.5004H17.5825C18.6055 21.4944 19.0935 20.9934 19.3285 20.7524C19.3995 20.6794 19.4575 20.6244 19.4985 20.5914C20.4955 19.5884 21.0055 18.8434 21.0005 18.3644C20.9945 17.8764 20.3875 17.3004 19.5485 16.5014C19.2815 16.2484 18.9915 15.9714 18.6855 15.6654C17.8915 14.8744 17.5005 15.0094 16.6355 15.3134C15.4405 15.7324 13.8035 16.3064 11.2525 13.7534C8.70051 11.2024 9.27251 9.56542 9.68951 8.36942C9.99151 7.50542 10.1295 7.11242 9.33651 6.31842C9.02651 6.00842 8.74751 5.71442 8.49051 5.44442C7.69651 4.61042 7.12351 4.00742 6.63851 4.00042H6.63051C6.15151 4.00042 5.40751 4.51242 4.35451 5.56542C4.35751 5.56242 4.35851 5.56142 4.35951 5.56142ZM17.5615 23.0004C15.0695 23.0004 11.8205 21.0164 7.90451 17.1014C3.97251 13.1704 1.98551 9.91142 2.00051 7.41442C2.00951 5.76442 2.87451 4.91942 3.19951 4.60242C3.21651 4.58142 3.27451 4.52442 3.29451 4.50442C4.72951 3.06942 5.71551 2.47942 6.65751 2.50042C7.77451 2.51542 8.57051 3.35242 9.57751 4.41142C9.82651 4.67242 10.0955 4.95742 10.3965 5.25742C11.8555 6.71742 11.4405 7.90842 11.1055 8.86442C10.7415 9.90742 10.4265 10.8074 12.3125 12.6934C14.1985 14.5794 15.0975 14.2644 16.1395 13.8974C17.0965 13.5634 18.2845 13.1454 19.7465 14.6054C20.0435 14.9024 20.3235 15.1684 20.5835 15.4154C21.6465 16.4274 22.4865 17.2264 22.5005 18.3464C22.5115 19.3004 21.9315 20.2744 20.4995 21.7064L19.8655 21.2764L20.4025 21.7994C20.0855 22.1244 19.2425 22.9904 17.5915 23.0004H17.5615Z" fill="#AB3534"/>
</g>
</svg>
