<svg width="52" height="52" viewBox="0 0 52 52" fill="none" xmlns="http://www.w3.org/2000/svg">
<g clip-path="url(#clip0_69_1910)">
<path d="M44.9584 40.2585V12.9999C44.9584 7.61256 41.6576 6.69281 32.4612 6.53458L33.9778 2.73323C36.8876 3.21636 38.3501 3.89997 38.4584 4.33333C38.4584 4.93163 38.9434 5.41669 39.5417 5.41669C40.14 5.41669 40.6251 4.93163 40.6251 4.33333C40.6251 0.563363 31.4309 0 25.9461 0C21.5672 0 11.3753 0.422497 11.3753 4.33333C11.3753 4.93163 11.8604 5.41669 12.4587 5.41669C13.057 5.41669 13.542 4.93163 13.542 4.33333C13.6504 3.89997 15.102 3.20884 18.0161 2.7246L19.5393 6.53143C10.3462 6.69281 7.04199 7.61256 7.04199 12.9999V40.2585C7.04199 43.5085 9.47947 46.7086 12.2733 47.4854L8.59 50.0247C8.09763 50.3649 7.97413 51.0397 8.31426 51.5322C8.65439 52.0246 9.32926 52.1481 9.82174 51.8079L15.8277 47.6664H36.1725L42.1763 51.8079C42.6687 52.1481 43.3437 52.0247 43.6838 51.5322C44.024 51.0398 43.9006 50.3649 43.4081 50.0247L39.6273 47.4171C43.5057 46.5245 44.9584 43.307 44.9584 40.2585ZM25.9461 2.16662C27.8879 2.159 29.8289 2.25051 31.7614 2.44073L30.1364 6.50858C28.8516 6.49995 27.4887 6.49995 26.0002 6.49995C24.5117 6.49995 23.1489 6.49995 21.863 6.50858L20.2336 2.43525C22.132 2.24908 24.0385 2.1594 25.9461 2.16662ZM42.7917 40.2585C42.7917 42.2162 42.0876 45.4996 37.3751 45.4996H13.5419C11.6505 45.4996 9.20861 42.9582 9.20861 40.2585V12.9999C9.20861 9.0718 10.7772 8.66656 26.0001 8.66656C41.223 8.66656 42.7917 9.0718 42.7917 12.9999V40.2585Z" fill="#AB3534"/>
<path d="M14.9158 31.4164H36.9962C38.8605 31.4164 40.622 29.721 40.622 27.927V15.8794C40.6253 13.989 38.8009 12.9999 36.9962 12.9999H14.9158C12.864 12.9999 11.3755 14.211 11.3755 15.8794V27.927C11.3755 29.721 13.0958 31.4164 14.9158 31.4164ZM13.5421 15.8794C13.5421 15.3605 14.3838 15.1665 14.9157 15.1665H36.9961C37.607 15.1665 38.4553 15.4146 38.4553 15.8794L38.4585 27.927C38.4585 28.5076 37.646 29.2498 36.9961 29.2498H14.9158C14.2875 29.2498 13.5422 28.5326 13.5422 27.927V15.8794H13.5421Z" fill="#AB3534"/>
<path d="M36.2918 34.6664C33.8986 34.6664 31.9585 36.6064 31.9585 38.9997C31.9585 41.3929 33.8986 43.333 36.2918 43.333C38.685 43.333 40.6252 41.393 40.6252 38.9997C40.6252 36.6065 38.685 34.6664 36.2918 34.6664ZM36.2918 41.1663C35.0952 41.1663 34.1252 40.1963 34.1252 38.9997C34.1252 37.8031 35.0952 36.8331 36.2918 36.8331C37.4884 36.8331 38.4584 37.8031 38.4584 38.9997C38.4585 40.1963 37.4884 41.1663 36.2918 41.1663Z" fill="#AB3534"/>
<path d="M15.7088 34.6664C13.3156 34.6664 11.3755 36.6064 11.3755 38.9997C11.3755 41.3929 13.3156 43.333 15.7088 43.333C18.102 43.333 20.0422 41.393 20.0422 38.9997C20.0421 36.6065 18.102 34.6664 15.7088 34.6664ZM15.7088 41.1663C14.5122 41.1663 13.5422 40.1963 13.5422 38.9997C13.5422 37.8031 14.5122 36.8331 15.7088 36.8331C16.9054 36.8331 17.8754 37.8031 17.8754 38.9997C17.8754 40.1963 16.9054 41.1663 15.7088 41.1663Z" fill="#AB3534"/>
</g>
<defs>
<clipPath id="clip0_69_1910">
<rect width="52" height="52" fill="white"/>
</clipPath>
</defs>
</svg>
