<svg width="26" height="28" viewBox="0 0 26 28" fill="none" xmlns="http://www.w3.org/2000/svg">
<path d="M25.3423 13.9121H20.0064L20.0059 0.546875C20.0059 0.244836 19.761 0 19.4591 0H0.658203C0.356219 0 0.111328 0.244891 0.111328 0.546875V25.3115C0.111328 25.6134 0.356219 25.8583 0.658203 25.8583H11.8694V27.4531C11.8694 27.7551 12.1143 28 12.4163 28H24.2485C24.5505 28 24.7954 27.7551 24.7954 27.4531V17.8498H25.3422C25.6442 17.8498 25.8891 17.6049 25.8891 17.3029V14.459C25.8892 14.157 25.6443 13.9121 25.3423 13.9121V13.9121ZM1.20508 24.7646V1.09375H18.9122L18.9126 13.9121H11.3229H11.3225C11.0206 13.9121 10.7757 14.157 10.7757 14.459V17.3029C10.7757 17.6002 11.0252 17.8498 11.3225 17.8498H11.8694V24.7646H1.20508ZM23.7017 26.9062H12.9632V17.8498H23.7017V26.9062ZM24.7954 16.756H11.8695L11.8697 15.0059H24.7954V16.756H24.7954Z" fill="#AB3534"/>
<path d="M4.04102 7.99675H16.0762C16.3782 7.99675 16.6231 7.75186 16.6231 7.44988V4.07227C16.6231 3.77028 16.3782 3.52539 16.0762 3.52539H4.04102C3.73903 3.52539 3.49414 3.77028 3.49414 4.07227V7.44993C3.49414 7.75191 3.73898 7.99675 4.04102 7.99675V7.99675ZM4.58789 4.61914H15.5293V6.90306H4.58789V4.61914Z" fill="#AB3534"/>
<path d="M4.04102 11.7129H16.0762C16.3782 11.7129 16.6231 11.468 16.6231 11.166C16.6231 10.864 16.3782 10.6191 16.0762 10.6191H4.04102C3.73903 10.6191 3.49414 10.864 3.49414 11.166C3.49414 11.468 3.73898 11.7129 4.04102 11.7129V11.7129Z" fill="#AB3534"/>
<path d="M8.61207 14.1211H4.04102C3.73903 14.1211 3.49414 14.366 3.49414 14.668C3.49414 14.97 3.73903 15.2148 4.04102 15.2148H8.61207C8.91406 15.2148 9.15895 14.97 9.15895 14.668C9.15895 14.366 8.91406 14.1211 8.61207 14.1211Z" fill="#AB3534"/>
<path d="M8.61263 17.6221H6.54785C6.24587 17.6221 6.00098 17.867 6.00098 18.1689C6.00098 18.4709 6.24587 18.7158 6.54785 18.7158H8.61263C8.91462 18.7158 9.15951 18.4709 9.15951 18.1689C9.15951 17.867 8.91462 17.6221 8.61263 17.6221Z" fill="#AB3534"/>
<path d="M8.61207 20.9775H4.04102C3.73903 20.9775 3.49414 21.2224 3.49414 21.5244C3.49414 21.8264 3.73903 22.0713 4.04102 22.0713H8.61207C8.91406 22.0713 9.15895 21.8264 9.15895 21.5244C9.15895 21.2224 8.91406 20.9775 8.61207 20.9775Z" fill="#AB3534"/>
<path d="M3.73704 18.6247C4.15103 18.896 4.70058 18.5028 4.56747 18.024C4.50502 17.7992 4.30104 17.6353 4.06769 17.6237C3.83461 17.6121 3.61465 17.7558 3.53093 17.9732C3.43954 18.2106 3.52836 18.4816 3.73704 18.6247V18.6247Z" fill="#AB3534"/>
<path d="M15.5566 25.1333H21.4675C21.7695 25.1333 22.0144 24.8884 22.0144 24.5864V21.8301C22.0144 21.5281 21.7695 21.2832 21.4675 21.2832H15.5566C15.2547 21.2832 15.0098 21.5281 15.0098 21.8301V24.5864C15.0098 24.8885 15.2547 25.1333 15.5566 25.1333ZM16.1035 22.377H20.9207V24.0396H16.1035V22.377Z" fill="#AB3534"/>
</svg>
