<svg width="28" height="28" viewBox="0 0 28 28" fill="none" xmlns="http://www.w3.org/2000/svg">
<g clip-path="url(#clip0_1_33089)">
<path d="M27.8108 7.97649L17.9454 2.28073C17.8878 2.24748 17.8226 2.22998 17.7562 2.22998H12.1692C11.9602 2.22998 11.7908 2.39935 11.7908 2.60836C11.7908 2.81738 11.9602 2.98675 12.1692 2.98675H16.3441L7.7893 7.92574H0.378492C0.169477 7.92574 0.000109375 8.09511 0.000109375 8.30412C0.000109375 8.51314 0.169477 8.6825 0.378492 8.6825H7.51226V13.6216H2.99403C2.78502 13.6216 2.61565 13.791 2.61565 14C2.61565 14.209 2.78502 14.3784 2.99403 14.3784H7.51226V19.3175H0.378383C0.169367 19.3175 0 19.4868 0 19.6959C0 19.9049 0.169367 20.0742 0.378383 20.0742H7.7893L17.567 25.7192C17.6256 25.7531 17.691 25.77 17.7562 25.77C17.8215 25.77 17.8869 25.7531 17.9454 25.7192L27.8108 20.0235C27.9278 19.956 27.9999 19.8311 27.9999 19.6959V8.30412C28 8.16899 27.9278 8.04397 27.8108 7.97649V7.97649ZM17.7561 3.04526L26.8649 8.30423L23.9798 9.96996L14.8711 4.71088L17.7561 3.04526ZM14.1144 5.14772L23.223 10.4068L21.3979 11.4606L12.289 6.20161L14.1144 5.14772ZM23.6016 11.0622V14.5583L21.7763 15.6122V12.1159L23.6016 11.0622ZM17.3778 24.7363L8.26902 19.4775V8.9595L17.3778 14.2184V24.7363ZM17.7562 13.5631L8.64724 8.30412L11.5323 6.63845L20.6411 11.8975L17.7562 13.5631ZM27.2432 19.4774L18.1345 24.7363V14.2184L21.0195 12.5527V16.2674C21.0195 16.4026 21.0917 16.5276 21.2087 16.5951C21.2672 16.6289 21.3326 16.6458 21.3979 16.6458C21.4631 16.6458 21.5286 16.6289 21.587 16.5951L24.169 15.1045C24.2861 15.037 24.3582 14.9121 24.3582 14.7768V10.6251L27.2431 8.9595V19.4774H27.2432ZM2.61565 2.60836C2.61565 2.39935 2.78502 2.22998 2.99403 2.22998H8.86791C9.07692 2.22998 9.24629 2.39935 9.24629 2.60836C9.24629 2.81738 9.07692 2.98675 8.86791 2.98675H2.99403C2.78496 2.98675 2.61565 2.81738 2.61565 2.60836Z" fill="#AB3534"/>
</g>
<defs>
<clipPath id="clip0_1_33089">
<rect width="28" height="28" fill="white"/>
</clipPath>
</defs>
</svg>
