<svg width="28" height="28" viewBox="0 0 28 28" fill="none" xmlns="http://www.w3.org/2000/svg">
<g clip-path="url(#clip0_1_33109)">
<path d="M6.53379 19.1338C5.76062 19.1338 5.13379 19.7606 5.13379 20.5338C5.13379 21.307 5.76056 21.9338 6.53379 21.9338C7.30701 21.9338 7.93379 21.307 7.93379 20.5338C7.93291 19.7609 7.30663 19.1346 6.53379 19.1338ZM6.53379 21.0004C6.27605 21.0004 6.06714 20.7915 6.06714 20.5338C6.06714 20.276 6.27605 20.0671 6.53379 20.0671C6.79153 20.0671 7.00044 20.276 7.00044 20.5338C7.00016 20.7914 6.79142 21.0002 6.53379 21.0004Z" fill="#AB3534"/>
<path d="M21.4664 19.1338C20.6932 19.1338 20.0664 19.7606 20.0664 20.5338C20.0664 21.307 20.6932 21.9338 21.4664 21.9338C22.2396 21.9338 22.8664 21.307 22.8664 20.5338C22.8656 19.7609 22.2392 19.1346 21.4664 19.1338ZM21.4664 21.0004C21.2087 21.0004 20.9998 20.7915 20.9998 20.5338C20.9998 20.276 21.2087 20.0671 21.4664 20.0671C21.7241 20.0671 21.9331 20.276 21.9331 20.5338C21.9328 20.7914 21.724 21.0002 21.4664 21.0004Z" fill="#AB3534"/>
<path d="M27.6443 12.4908L24.4296 8.87051C24.1633 8.5706 23.7811 8.39938 23.3801 8.4002H19.1334V5.6002C19.1325 4.82735 18.5062 4.20102 17.7334 4.2002H1.4C0.627156 4.20102 0.000820358 4.82735 4.55748e-08 5.6002V17.7335C-5.46419e-05 17.8573 0.0491094 17.976 0.136664 18.0636C0.224164 18.1511 0.342891 18.2002 0.466703 18.2002H0.933352V19.6003C0.934172 20.3731 1.56051 20.9994 2.33335 21.0003H3.30395C3.53396 22.607 4.91023 23.8003 6.53335 23.8003C8.15648 23.8003 9.53274 22.607 9.76276 21.0003H18.2374C18.4674 22.607 19.8436 23.8003 21.4668 23.8003C23.0899 23.8003 24.4661 22.607 24.6962 21.0003H26.6C27.3728 20.9994 27.9992 20.3731 28 19.6003V13.4214C27.9997 13.0781 27.8731 12.7469 27.6443 12.4908ZM0.933352 17.2668V5.6002C0.933625 5.34256 1.14237 5.13377 1.4 5.13355H17.7334C17.991 5.13382 18.1998 5.34256 18.2 5.6002V17.2668H0.933352ZM3.30395 20.0668H2.33335C2.07572 20.0666 1.86692 19.8578 1.8667 19.6002V18.2002H4.25163C3.73898 18.7012 3.40588 19.3573 3.30395 20.0668ZM6.53335 22.8668C5.2447 22.8668 4.2 21.8222 4.2 20.5335C4.2 19.2448 5.2447 18.2002 6.53335 18.2002C7.82201 18.2002 8.8667 19.2449 8.8667 20.5335C8.86517 21.8215 7.82135 22.8654 6.53335 22.8668ZM11.2 20.0668H9.7627C9.66077 19.3573 9.32772 18.7012 8.81508 18.2002H11.2V20.0668ZM15.4 20.0668H12.1334V18.2002H15.4V20.0668ZM18.2373 20.0668H16.3334V18.2002H19.1849C18.6723 18.7012 18.3392 19.3573 18.2373 20.0668ZM21.4666 22.8668C20.178 22.8668 19.1333 21.8222 19.1333 20.5335C19.1333 19.2448 20.1779 18.2001 21.4666 18.2001C22.7553 18.2001 23.8 19.2448 23.8 20.5335C23.7985 21.8215 22.7547 22.8654 21.4666 22.8668ZM27.0666 19.6002C27.0664 19.8578 26.8576 20.0666 26.6 20.0668H24.6961C24.4634 18.4616 23.0887 17.2697 21.4666 17.2668H19.1333V9.33355H21V14.0002C21.0008 14.773 21.6272 15.3994 22.4 15.4002H27.0666V19.6002ZM27.0666 14.4668H22.4C22.1424 14.4666 21.9336 14.2578 21.9334 14.0002V9.33355H23.3801C23.514 9.33278 23.6419 9.38955 23.7312 9.48941L26.947 13.1111C27.0236 13.1964 27.0662 13.3068 27.0667 13.4214V14.4668H27.0666Z" fill="#AB3534"/>
</g>
<defs>
<clipPath id="clip0_1_33109">
<rect width="28" height="28" fill="white"/>
</clipPath>
</defs>
</svg>
