<svg width="28" height="28" viewBox="0 0 28 28" fill="none" xmlns="http://www.w3.org/2000/svg">
<g clip-path="url(#clip0_1_33099)">
<path d="M22.8376 9.72782H18.1345L12.8213 5.51698C12.7414 5.45376 12.6429 5.41943 12.5408 5.41943H9.74761C9.4211 5.41943 9.19935 5.77214 9.34026 6.06659L11.0966 9.72782H4.55632L2.63245 7.82608C2.54755 7.74163 2.45271 7.68969 2.31452 7.69556L0.451161 7.69737C0.201871 7.69782 0 7.89969 0 8.14898V15.3007C0 15.4859 0.112903 15.6521 0.284968 15.7207L2.33168 16.5336C2.38497 16.5544 2.44142 16.5652 2.49832 16.5652H11.1824L9.32084 21.9823C9.22103 22.2723 9.44458 22.5807 9.74761 22.5807H12.5408C12.6686 22.5807 12.7901 22.5265 12.8759 22.4321L18.1797 16.5652H22.8376C24.6508 16.5652 28 15.1558 28 13.1465C28 11.1373 24.6508 9.72782 22.8376 9.72782ZM10.4652 6.32266H12.3837L16.6799 9.72782H12.0987L10.4652 6.32266ZM12.3403 21.6775H10.3803L12.1375 16.5652H16.9621L12.3403 21.6775ZM22.8376 15.662H2.58458L0.903226 14.9941V8.60014L2.12981 8.59879L4.05368 10.5005C4.13858 10.5845 4.25239 10.631 4.37116 10.631H22.8381C24.3645 10.631 27.0972 11.8992 27.0972 13.1465C27.0968 14.3939 24.3645 15.662 22.8376 15.662Z" fill="#AB3534"/>
<path d="M22.8373 12.663H21.934C21.6847 12.663 21.4824 12.4611 21.4824 12.2114C21.4824 11.9616 21.6847 11.7598 21.934 11.7598H22.8373C23.0866 11.7598 23.2889 11.9616 23.2889 12.2114C23.2889 12.4611 23.087 12.663 22.8373 12.663Z" fill="#AB3534"/>
<path d="M20.0287 12.663H18.1229C17.8736 12.663 17.6712 12.4611 17.6712 12.2114C17.6712 11.9616 17.8736 11.7598 18.1229 11.7598H20.0287C20.2779 11.7598 20.4803 11.9616 20.4803 12.2114C20.4803 12.4611 20.2779 12.663 20.0287 12.663ZM16.217 12.663H14.3117C14.0624 12.663 13.8601 12.4611 13.8601 12.2114C13.8601 11.9616 14.0624 11.7598 14.3117 11.7598H16.217C16.4663 11.7598 16.6687 11.9616 16.6687 12.2114C16.6687 12.4611 16.4663 12.663 16.217 12.663ZM12.4059 12.663H10.5001C10.2508 12.663 10.0485 12.4611 10.0485 12.2114C10.0485 11.9616 10.2508 11.7598 10.5001 11.7598H12.4059C12.6552 11.7598 12.8575 11.9616 12.8575 12.2114C12.8575 12.4611 12.6552 12.663 12.4059 12.663ZM8.59472 12.663H6.68892C6.43963 12.663 6.2373 12.4611 6.2373 12.2114C6.2373 11.9616 6.43963 11.7598 6.68892 11.7598H8.59472C8.84401 11.7598 9.04634 11.9616 9.04634 12.2114C9.04634 12.4611 8.84401 12.663 8.59472 12.663Z" fill="#AB3534"/>
<path d="M4.78355 12.663H3.88032C3.63103 12.663 3.42871 12.4611 3.42871 12.2114C3.42871 11.9616 3.63103 11.7598 3.88032 11.7598H4.78355C5.03284 11.7598 5.23516 11.9616 5.23516 12.2114C5.23516 12.4611 5.03284 12.663 4.78355 12.663Z" fill="#AB3534"/>
<path d="M7.95551 18.6376H3.77583C3.52654 18.6376 3.32422 18.4357 3.32422 18.186C3.32422 17.9362 3.52654 17.7344 3.77583 17.7344H7.95551C8.2048 17.7344 8.40712 17.9362 8.40712 18.186C8.40712 18.4357 8.2048 18.6376 7.95551 18.6376Z" fill="#AB3534"/>
<path d="M7.12152 20.7157H2.94185C2.69256 20.7157 2.49023 20.5138 2.49023 20.2641C2.49023 20.0144 2.69256 19.8125 2.94185 19.8125H7.12152C7.37082 19.8125 7.57314 20.0144 7.57314 20.2641C7.57314 20.5138 7.37082 20.7157 7.12152 20.7157V20.7157Z" fill="#AB3534"/>
</g>
<defs>
<clipPath id="clip0_1_33099">
<rect width="28" height="28" fill="white"/>
</clipPath>
</defs>
</svg>
