<svg width="28" height="28" viewBox="0 0 28 28" fill="none" xmlns="http://www.w3.org/2000/svg">
<path d="M26.4324 25.1441C26.2084 24.9201 25.8724 24.9201 25.6484 25.1441C25.2844 25.5081 24.6124 25.5081 24.2484 25.1441C23.7164 24.6121 22.9884 24.4441 22.3164 24.5841C23.6324 22.7921 24.4444 20.6081 24.6124 18.3121C24.6684 17.5841 24.2204 16.8841 23.4924 16.6321L21.5604 15.9041V10.9761C21.5604 10.0521 20.8044 9.29606 19.8804 9.29606H19.3204V6.49606H21.0004C21.3084 6.49606 21.5604 6.24406 21.5604 5.93606C21.5604 5.62806 21.3084 5.37606 21.0004 5.37606H18.7604H15.9604V3.41605C15.9604 2.32405 15.0924 1.45605 14.0004 1.45605C12.9084 1.45605 12.0404 2.32405 12.0404 3.41605V5.37606H9.24039H7.00039C6.69239 5.37606 6.44039 5.62806 6.44039 5.93606C6.44039 6.24406 6.69239 6.49606 7.00039 6.49606H8.68039V9.29606H8.12039C7.19639 9.29606 6.44039 10.0521 6.44039 10.9761V15.9041L4.50839 16.6041C3.80839 16.8561 3.36039 17.5561 3.38839 18.2841C3.55639 20.5801 4.36839 22.7641 5.68439 24.5561C5.54439 24.5281 5.40439 24.5001 5.23639 24.5001C4.67639 24.5001 4.14439 24.7241 3.75239 25.1161C3.38839 25.4801 2.71639 25.4801 2.35239 25.1161C2.12839 24.8921 1.79239 24.8921 1.56839 25.1161C1.34439 25.3401 1.34439 25.6761 1.56839 25.9001C1.96039 26.2921 2.49239 26.5161 3.05239 26.5161C3.61239 26.5161 4.14439 26.2921 4.53639 25.9001C4.90039 25.5361 5.57239 25.5361 5.93639 25.9001C6.41239 26.3761 7.08439 26.6001 7.75639 26.4881H7.81239H7.84039H7.86839C8.26039 26.4041 8.62439 26.2081 8.90439 25.9281C9.26839 25.5641 9.94039 25.5641 10.3044 25.9281C10.6964 26.3201 11.2284 26.5441 11.7884 26.5441C12.3484 26.5441 12.8804 26.3201 13.2724 25.9281C13.6644 25.5361 14.2804 25.5361 14.6724 25.9281C15.4844 26.7401 16.8284 26.7401 17.6404 25.9281C18.0324 25.5361 18.6484 25.5361 19.0404 25.9281C19.3204 26.2081 19.7124 26.4041 20.1044 26.4881H20.1324C20.2724 26.5161 20.4124 26.5161 20.5244 26.5161C21.0844 26.5161 21.6164 26.2921 22.0084 25.9001C22.4004 25.5081 23.0164 25.5081 23.4084 25.9001C23.8004 26.2921 24.3324 26.5161 24.8924 26.5161C25.4524 26.5161 25.9844 26.2921 26.3764 25.9001C26.6564 25.7041 26.6564 25.3681 26.4324 25.1441V25.1441ZM13.1604 3.41605C13.1604 2.94005 13.5244 2.57605 14.0004 2.57605C14.4764 2.57605 14.8404 2.94005 14.8404 3.41605V5.37606H13.1604V3.41605ZM9.80039 6.49606H12.6004H15.4004H18.2004V9.29606H9.80039V6.49606ZM7.56039 10.9761C7.56039 10.6681 7.81239 10.4161 8.12039 10.4161H19.8804C20.1884 10.4161 20.4404 10.6681 20.4404 10.9761V15.5121L14.1964 13.2441C14.1684 13.2441 14.1684 13.2441 14.1404 13.2441H14.1124C14.0564 13.2441 13.9724 13.2441 13.9164 13.2441H13.8884C13.8604 13.2441 13.8604 13.2441 13.8324 13.2441L7.56039 15.5121V10.9761ZM16.8844 25.1441C16.4924 25.5361 15.8764 25.5361 15.4844 25.1441C14.6724 24.3321 13.3284 24.3321 12.5164 25.1441C12.1524 25.5081 11.4804 25.5081 11.1164 25.1441C10.7244 24.7521 10.1924 24.5281 9.63239 24.5281C9.07239 24.5281 8.54039 24.7521 8.14839 25.1441C8.06439 25.2281 7.98039 25.2841 7.86839 25.3401C5.93639 23.5481 4.70439 20.9721 4.50839 18.2281C4.48039 18.0041 4.64839 17.7521 4.87239 17.6681L13.4404 14.5601V22.1761C13.4404 22.4841 13.6924 22.7361 14.0004 22.7361C14.3084 22.7361 14.5604 22.4841 14.5604 22.1761V14.5601L23.1284 17.6401C23.3524 17.7241 23.5204 17.9481 23.4924 18.2001C23.2964 20.9441 22.0924 23.5201 20.1324 25.3121C20.0484 25.2561 19.9364 25.2001 19.8524 25.1161C19.0404 24.3041 17.6964 24.3041 16.8844 25.1441V25.1441Z" fill="#AB3534"/>
</svg>
