<svg width="28" height="28" viewBox="0 0 28 28" fill="none" xmlns="http://www.w3.org/2000/svg">
<g clip-path="url(#clip0_1_33114)">
<path d="M27.7395 8.84482L14.3199 0.0948155C14.2251 0.0329445 14.1143 0 14.0011 0C13.8879 0 13.7771 0.0329445 13.6823 0.0948155L0.26565 8.84482C0.140805 8.93136 0.0546448 9.06319 0.0254927 9.21228C-0.00365941 9.36136 0.026496 9.51594 0.109546 9.64314C0.192596 9.77033 0.321989 9.86012 0.470209 9.89339C0.618429 9.92666 0.773783 9.90081 0.903233 9.82131L2.33298 8.88798V26.2497C2.33298 26.7139 2.51736 27.159 2.84555 27.4872C3.17374 27.8154 3.61885 27.9997 4.08298 27.9997H23.9204C24.3845 27.9997 24.8296 27.8154 25.1578 27.4872C25.486 27.159 25.6704 26.7139 25.6704 26.2497V8.88798C25.8967 8.9959 27.1754 9.97531 27.4204 9.9164C27.5448 9.91396 27.6652 9.87203 27.7643 9.79667C27.8633 9.72131 27.9358 9.61642 27.9713 9.49715C28.0069 9.37788 28.0035 9.25041 27.9619 9.13315C27.9202 9.01589 27.8423 8.91492 27.7395 8.84482V8.84482ZM20.4192 26.8331H19.2526V22.7497C19.2526 22.595 19.1911 22.4466 19.0817 22.3373C18.9723 22.2279 18.8239 22.1664 18.6692 22.1664H16.9163V18.0831C16.9163 17.9284 16.8549 17.78 16.7455 17.6706C16.6361 17.5612 16.4877 17.4997 16.333 17.4997H11.6663C11.5116 17.4997 11.3632 17.5612 11.2538 17.6706C11.1444 17.78 11.083 17.9284 11.083 18.0831V22.1664H9.33298C9.17827 22.1664 9.0299 22.2279 8.9205 22.3373C8.81111 22.4466 8.74965 22.595 8.74965 22.7497V26.8331H7.58298V16.3331H20.4163L20.4192 26.8331ZM12.2497 22.1664V18.6664H15.7497V22.1664H12.2497ZM9.91632 23.3331H13.4163V26.8331H9.91632V23.3331ZM14.583 26.8331V23.3331H18.083V26.8331H14.583ZM24.4997 26.2497C24.4997 26.4044 24.4382 26.5528 24.3288 26.6622C24.2194 26.7716 24.071 26.8331 23.9163 26.8331H21.583V15.7497C21.583 15.595 21.5215 15.4466 21.4121 15.3373C21.3027 15.2279 21.1544 15.1664 20.9997 15.1664H6.99965C6.84494 15.1664 6.69657 15.2279 6.58717 15.3373C6.47778 15.4466 6.41632 15.595 6.41632 15.7497V26.8331H4.08298C3.92827 26.8331 3.7799 26.7716 3.6705 26.6622C3.56111 26.5528 3.49965 26.4044 3.49965 26.2497V8.12732L13.9997 1.27957L24.4997 8.12732V26.2497ZM18.6663 11.6664C18.6663 11.8211 18.6049 11.9695 18.4955 12.0789C18.3861 12.1883 18.2377 12.2497 18.083 12.2497H9.91632C9.76161 12.2497 9.61323 12.1883 9.50384 12.0789C9.39444 11.9695 9.33298 11.8211 9.33298 11.6664C9.33298 11.5117 9.39444 11.3633 9.50384 11.2539C9.61323 11.1445 9.76161 11.0831 9.91632 11.0831H18.083C18.1598 11.0827 18.236 11.0975 18.3071 11.1266C18.3782 11.1558 18.4429 11.1987 18.4973 11.2529C18.5518 11.3071 18.5951 11.3715 18.6246 11.4425C18.6541 11.5135 18.6692 11.5895 18.6692 11.6664H18.6663ZM9.91632 8.1664H18.083C18.2377 8.1664 18.3861 8.22786 18.4955 8.33725C18.6049 8.44665 18.6663 8.59502 18.6663 8.74973C18.6663 8.90444 18.6049 9.05281 18.4955 9.16221C18.3861 9.27161 18.2377 9.33307 18.083 9.33307H9.91632C9.76161 9.33307 9.61323 9.27161 9.50384 9.16221C9.39444 9.05281 9.33298 8.90444 9.33298 8.74973C9.33298 8.59502 9.39444 8.44665 9.50384 8.33725C9.61323 8.22786 9.76161 8.1664 9.91632 8.1664Z" fill="#AB3534"/>
</g>
<defs>
<clipPath id="clip0_1_33114">
<rect width="28" height="28" fill="white"/>
</clipPath>
</defs>
</svg>
