<svg width="28" height="28" viewBox="0 0 28 28" fill="none" xmlns="http://www.w3.org/2000/svg">
<g clip-path="url(#clip0_1_33104)">
<path d="M24.2085 21.6777V6.99995C24.2085 4.09907 22.4312 3.60382 17.4792 3.51862L18.2959 1.47174C19.8627 1.73188 20.6502 2.09998 20.7085 2.33333C20.7085 2.65549 20.9697 2.91668 21.2919 2.91668C21.614 2.91668 21.8752 2.65549 21.8752 2.33333C21.8752 0.303349 16.9245 0 13.9711 0C11.6133 0 6.12533 0.227498 6.12533 2.33333C6.12533 2.65549 6.38651 2.91668 6.70867 2.91668C7.03083 2.91668 7.29202 2.65549 7.29202 2.33333C7.35037 2.09998 8.13201 1.72784 9.70115 1.46709L10.5213 3.51693C5.57118 3.60382 3.79199 4.09907 3.79199 6.99995V21.6777C3.79199 23.4277 5.10448 25.1508 6.60887 25.569L4.62553 26.9364C4.36041 27.1195 4.29391 27.4829 4.47706 27.7481C4.6602 28.0132 5.0236 28.0797 5.28878 27.8966L8.52275 25.6665H19.4777L22.7105 27.8966C22.9756 28.0797 23.3391 28.0133 23.5222 27.7481C23.7054 27.483 23.6389 27.1195 23.3737 26.9364L21.3379 25.5323C23.4263 25.0517 24.2085 23.3192 24.2085 21.6777ZM13.9711 1.16664C15.0167 1.16254 16.0619 1.21181 17.1024 1.31424L16.2274 3.50462C15.5356 3.49997 14.8018 3.49997 14.0003 3.49997C13.1988 3.49997 12.4649 3.49997 11.7725 3.50462L10.8952 1.31129C11.9174 1.21105 12.944 1.16276 13.9711 1.16664ZM23.0418 21.6777C23.0418 22.7318 22.6627 24.4998 20.1252 24.4998H7.29197C6.27347 24.4998 4.95863 23.1313 4.95863 21.6777V6.99995C4.95863 4.88481 5.80327 4.66661 14.0002 4.66661C22.1971 4.66661 23.0418 4.88481 23.0418 6.99995V21.6777Z" fill="#AB3534"/>
<path d="M8.03134 16.9166H19.9207C20.9246 16.9166 21.8731 16.0037 21.8731 15.0377V8.55049C21.8749 7.5326 20.8925 7 19.9207 7H8.03134C6.92649 7 6.125 7.65214 6.125 8.55049V15.0377C6.125 16.0037 7.05134 16.9166 8.03134 16.9166ZM7.29164 8.55049C7.29164 8.27109 7.74489 8.16664 8.03128 8.16664H19.9207C20.2497 8.16664 20.7064 8.30024 20.7064 8.55049L20.7082 15.0377C20.7082 15.3503 20.2707 15.7499 19.9207 15.7499H8.03134C7.69299 15.7499 7.29169 15.3638 7.29169 15.0377V8.55049H7.29164Z" fill="#AB3534"/>
<path d="M19.5423 18.666C18.2537 18.666 17.209 19.7106 17.209 20.9993C17.209 22.288 18.2537 23.3327 19.5423 23.3327C20.831 23.3327 21.8757 22.2881 21.8757 20.9993C21.8757 19.7107 20.831 18.666 19.5423 18.666ZM19.5423 22.166C18.898 22.166 18.3757 21.6437 18.3757 20.9993C18.3757 20.355 18.898 19.8327 19.5423 19.8327C20.1866 19.8327 20.709 20.355 20.709 20.9993C20.709 21.6437 20.1866 22.166 19.5423 22.166Z" fill="#AB3534"/>
<path d="M8.45833 18.666C7.16969 18.666 6.125 19.7106 6.125 20.9993C6.125 22.288 7.16969 23.3327 8.45833 23.3327C9.74698 23.3327 10.7917 22.2881 10.7917 20.9993C10.7916 19.7107 9.74698 18.666 8.45833 18.666ZM8.45833 22.166C7.81401 22.166 7.29169 21.6437 7.29169 20.9993C7.29169 20.355 7.81401 19.8327 8.45833 19.8327C9.10266 19.8327 9.62497 20.355 9.62497 20.9993C9.62497 21.6437 9.10266 22.166 8.45833 22.166Z" fill="#AB3534"/>
</g>
<defs>
<clipPath id="clip0_1_33104">
<rect width="28" height="28" fill="white"/>
</clipPath>
</defs>
</svg>
