<svg width="45" height="44" viewBox="0 0 45 44" fill="none" xmlns="http://www.w3.org/2000/svg">
<g clip-path="url(#clip0_1_760)">
<path d="M44.4914 10.8515C44.44 10.3782 44.1459 9.95935 43.7064 9.75422L23.0814 0.129215C22.7128 -0.0427461 22.287 -0.0427461 21.9185 0.129215L1.29346 9.75422C0.853977 9.95935 0.559898 10.3781 0.508422 10.8515C0.507305 10.8613 0.5 10.993 0.5 11.0002V34.3752C0.5 34.9374 0.842289 35.4431 1.36436 35.6518L21.9894 43.9018C22.1532 43.9674 22.3267 44.0002 22.5 44.0002C22.6733 44.0002 22.8468 43.9675 23.0106 43.9018L43.6356 35.6518C44.1577 35.4431 44.5 34.9374 44.5 34.3752V11.0002C44.5 10.993 44.4925 10.8613 44.4914 10.8515V10.8515ZM22.5 2.89254L39.6655 10.9031L33.0557 13.5471L15.5672 6.12791L22.5 2.89254ZM12.2141 7.69266L29.4314 14.9967L22.5 17.7693L5.3345 10.9031L12.2141 7.69266ZM3.25 13.0311L21.125 20.1811V40.5943L3.25 33.4443V13.0311ZM23.875 40.5944V20.1811L41.75 13.0311V33.4443L23.875 40.5944Z" fill="#AB3534"/>
</g>
<defs>
<clipPath id="clip0_1_760">
<rect width="44" height="44" fill="white" transform="translate(0.5)"/>
</clipPath>
</defs>
</svg>
