<svg width="36" height="36" viewBox="0 0 36 36" fill="none" xmlns="http://www.w3.org/2000/svg">
<g clip-path="url(#clip0_1_747)">
<path d="M35.3925 21.136C35.2322 20.0476 35.0944 19.1054 35.0494 18.5007C34.9003 16.4813 34.3547 15.4069 33.2213 14.8641C32.7344 14.6361 32.2004 14.5272 31.6631 14.5463C31.5 13.8601 31.1681 12.7491 30.6619 12.2485C29.79 11.3879 28.5947 11.3626 27.8944 11.4441C27.7967 11.1226 27.6242 10.8287 27.391 10.5867C27.1578 10.3447 26.8705 10.1615 26.5528 10.0519C25.7825 9.82782 24.9566 9.89489 24.2325 10.2404C24.0131 6.87944 23.7319 3.7885 23.4112 3.15569C23.2996 2.89768 23.1231 2.67297 22.8988 2.50342C22.6746 2.33388 22.4102 2.22528 22.1316 2.18819C21.2681 2.08132 20.4216 2.69163 20.1628 2.98694C19.9828 3.19507 19.8534 3.34413 19.8647 9.45569C19.8647 12.3216 19.9153 15.5729 19.9575 16.1494C19.9941 16.6416 19.9266 18.3994 19.8478 20.0869C19.7104 19.8741 19.591 19.6502 19.4906 19.4176C18.855 18.0113 17.5219 16.861 15.7753 16.1888C14.625 15.7501 13.5534 15.8682 12.9037 16.5038C12.6705 16.7285 12.5078 17.0162 12.4354 17.3319C12.3629 17.6475 12.384 17.9774 12.4959 18.2813C12.7125 18.8832 13.2047 19.471 13.7728 20.1516C14.2993 20.7436 14.77 21.3829 15.179 22.0613C15.5477 22.7691 15.8608 23.5044 16.1156 24.2607C16.4075 25.139 16.7843 25.9867 17.2406 26.7919C17.4516 27.1407 17.6822 27.5091 17.9184 27.8888C18.639 28.9983 19.2963 30.1476 19.8872 31.3313C20.5875 32.8585 23.13 34.1438 23.4169 34.3013C23.4836 34.3359 23.5566 34.3568 23.6316 34.3627C23.7066 34.3685 23.7819 34.3593 23.8533 34.3356C23.9246 34.3119 23.9905 34.2741 24.0469 34.2244C24.1034 34.1748 24.1494 34.1144 24.1821 34.0467C24.2148 33.979 24.2336 33.9054 24.2374 33.8303C24.2412 33.7552 24.2299 33.6801 24.2042 33.6095C24.1785 33.5388 24.1389 33.474 24.0877 33.419C24.0365 33.3639 23.9748 33.3196 23.9062 33.2888C23.2228 32.9485 21.3525 31.8488 20.8969 30.856C20.2827 29.6254 19.5972 28.4318 18.8437 27.2813C18.6103 26.9073 18.3825 26.5416 18.1744 26.1957C17.762 25.4593 17.421 24.6852 17.1562 23.8838C16.8824 23.0719 16.5448 22.2828 16.1466 21.5241C15.7057 20.7842 15.1963 20.0874 14.625 19.4429C14.144 18.8804 13.6912 18.3179 13.5422 17.9129C13.5034 17.8119 13.4958 17.7017 13.5203 17.5964C13.5449 17.4911 13.6005 17.3956 13.68 17.3223C13.9331 17.0748 14.5069 16.9285 15.3675 17.2548C17.3644 18.0169 18.1603 19.2235 18.4612 19.8957C18.7465 20.5856 19.1942 21.1963 19.7662 21.676C19.7381 22.1879 19.7156 22.6407 19.6959 22.9726C19.6875 23.1213 19.7384 23.2674 19.8375 23.3787C19.9367 23.4899 20.0759 23.5573 20.2247 23.566H20.25C20.3935 23.5663 20.5317 23.5117 20.6363 23.4134C20.7408 23.3151 20.8039 23.1805 20.8125 23.0373C20.8125 22.7954 21.15 17.131 21.0712 16.0679C20.9812 14.7488 20.9278 4.97819 21.0937 3.65632C21.3447 3.44263 21.6614 3.32151 21.9909 3.31319C22.0584 3.31319 22.2384 3.34413 22.4016 3.67038C22.6575 4.1935 22.9641 7.75413 23.2116 12.1304V12.2063C23.2116 12.2063 23.2116 12.2204 23.2116 12.2288C23.3466 14.5519 23.4647 17.1029 23.5575 19.5413C23.5631 19.6905 23.6277 19.8314 23.7372 19.9329C23.8466 20.0344 23.9919 20.0883 24.1411 20.0827C24.2903 20.0771 24.4311 20.0125 24.5327 19.9031C24.6342 19.7936 24.6881 19.6483 24.6825 19.4991C24.6403 18.3741 24.5137 15.2044 24.3225 11.9448C24.3172 11.8275 24.3399 11.7108 24.3888 11.6041C24.4378 11.4975 24.5114 11.4041 24.6037 11.3316C25.02 11.0026 25.8075 11.0026 26.1956 11.1263C26.8144 11.326 26.8987 12.1107 26.9016 12.1416C26.9016 12.1416 26.9044 12.1726 26.9016 12.1416C26.9016 12.1923 27.4022 17.3701 27.4641 18.5457C27.472 18.6894 27.5347 18.8247 27.6394 18.9236C27.744 19.0225 27.8826 19.0775 28.0266 19.0773H28.0603C28.2091 19.0686 28.3483 19.0012 28.4474 18.8899C28.5466 18.7787 28.5975 18.6326 28.5891 18.4838C28.5328 17.4994 28.1953 13.9135 28.0687 12.5579C28.5581 12.5101 29.3344 12.5354 29.8603 13.0529C30.1837 13.3707 30.5213 14.5435 30.6591 15.2748V15.2944C30.6591 15.2944 30.6591 15.3085 30.6591 15.3169C30.9469 16.5063 31.0474 17.7332 30.9572 18.9535C30.9498 19.027 30.957 19.1012 30.9783 19.172C30.9996 19.2427 31.0346 19.3085 31.0813 19.3657C31.1281 19.4229 31.1856 19.4704 31.2507 19.5053C31.3158 19.5403 31.3871 19.5621 31.4606 19.5694H31.5169C31.6568 19.5701 31.792 19.5187 31.896 19.4251C32 19.3314 32.0654 19.2024 32.0794 19.0632C32.1712 17.9349 32.1078 16.7993 31.8909 15.6882C32.183 15.7021 32.4696 15.7728 32.7347 15.8963C33.3478 16.1776 33.7809 16.7401 33.9188 18.5963C33.9666 19.2404 34.1072 20.1994 34.2703 21.3104C34.5713 23.3691 34.9481 25.9313 34.8666 27.4979C34.7428 29.8716 33.7669 33.4998 33.7584 33.5363C33.7381 33.6121 33.7339 33.6913 33.746 33.7688C33.7581 33.8462 33.7863 33.9204 33.8288 33.9863L34.9538 35.7526C35.0365 35.8725 35.1625 35.9557 35.3053 35.9845C35.4481 36.0134 35.5965 35.9858 35.7193 35.9074C35.8422 35.8291 35.9298 35.7061 35.9638 35.5644C35.9978 35.4228 35.9755 35.2734 35.9016 35.1479L34.9059 33.5898C35.1309 32.7179 35.8763 29.7141 35.9888 27.5569C36.0872 25.8751 35.7019 23.2454 35.3925 21.136Z" fill="#AB3534"/>
<path d="M0.5625 4.50011H16.9369C17.0723 5.27241 17.4437 5.98377 18 6.53636C18.1055 6.64191 18.2487 6.7012 18.398 6.7012C18.5472 6.7012 18.6904 6.64191 18.7959 6.53636C18.9015 6.43081 18.9608 6.28766 18.9608 6.13839C18.9608 5.98912 18.9015 5.84597 18.7959 5.74042C18.3569 5.29964 18.0838 4.72064 18.0228 4.10152C17.9618 3.4824 18.1167 2.86123 18.4612 2.34324C18.8058 1.82525 19.3188 1.44229 19.9134 1.25925C20.508 1.07621 21.1475 1.10433 21.7237 1.33886C21.7921 1.36693 21.8653 1.38127 21.9391 1.38105C22.013 1.38084 22.0861 1.36607 22.1543 1.33761C22.2919 1.28011 22.4011 1.17029 22.4578 1.0323C22.4859 0.963967 22.5002 0.890779 22.5 0.81691C22.4998 0.743041 22.485 0.669937 22.4566 0.601773C22.4281 0.533609 22.3865 0.47172 22.3341 0.419638C22.2817 0.367557 22.2196 0.326303 22.1513 0.298233C21.6068 0.0742278 21.0179 -0.0208704 20.4306 0.020367C19.8433 0.0616043 19.2734 0.238061 18.7656 0.535953C18.2578 0.833845 17.8257 1.24511 17.5031 1.73762C17.1805 2.23013 16.9761 2.79055 16.9059 3.37511H0.5625C0.413316 3.37511 0.270242 3.43437 0.164752 3.53986C0.0592632 3.64535 0 3.78842 0 3.93761C0 4.08679 0.0592632 4.22987 0.164752 4.33536C0.270242 4.44085 0.413316 4.50011 0.5625 4.50011Z" fill="#AB3534"/>
<path d="M25.3125 3.37524C25.1633 3.37524 25.0202 3.43451 24.9148 3.54C24.8093 3.64549 24.75 3.78856 24.75 3.93774C24.75 4.08693 24.8093 4.23 24.9148 4.33549C25.0202 4.44098 25.1633 4.50024 25.3125 4.50024H35.4375C35.5867 4.50024 35.7298 4.44098 35.8352 4.33549C35.9407 4.23 36 4.08693 36 3.93774C36 3.78856 35.9407 3.64549 35.8352 3.54C35.7298 3.43451 35.5867 3.37524 35.4375 3.37524H25.3125Z" fill="#AB3534"/>
<path d="M3.93751 21.9377C4.88355 21.9366 5.79756 21.5949 6.51234 20.9752C7.22711 20.3555 7.69486 19.4991 7.83001 18.5627H10.6875C10.8367 18.5627 10.9798 18.5035 11.0853 18.398C11.1907 18.2925 11.25 18.1494 11.25 18.0002C11.25 17.8511 11.1907 17.708 11.0853 17.6025C10.9798 17.497 10.8367 17.4377 10.6875 17.4377H7.83001C7.72216 16.6905 7.40178 15.9901 6.90704 15.4199C6.4123 14.8496 5.76406 14.4336 5.03955 14.2215C4.31504 14.0093 3.54481 14.0099 2.82062 14.2231C2.09642 14.4364 1.4488 14.8533 0.954913 15.4243C0.461024 15.9953 0.141686 16.6962 0.0349483 17.4435C-0.0717899 18.1909 0.0385708 18.9532 0.352882 19.6396C0.667193 20.326 1.1722 20.9075 1.80775 21.315C2.44329 21.7225 3.18257 21.9386 3.93751 21.9377ZM3.93751 15.1877C4.49377 15.1877 5.03754 15.3527 5.50005 15.6617C5.96256 15.9708 6.32305 16.41 6.53592 16.9239C6.74879 17.4379 6.80449 18.0034 6.69597 18.5489C6.58745 19.0945 6.31958 19.5956 5.92625 19.989C5.53291 20.3823 5.03177 20.6502 4.4862 20.7587C3.94063 20.8672 3.37513 20.8115 2.86121 20.5986C2.34729 20.3858 1.90804 20.0253 1.599 19.5628C1.28996 19.1003 1.12501 18.5565 1.12501 18.0002C1.12501 17.2543 1.42132 16.5389 1.94877 16.0115C2.47622 15.4841 3.19159 15.1877 3.93751 15.1877Z" fill="#AB3534"/>
<path d="M0.5625 32.6252H8.4825C8.62442 33.5558 9.0951 34.4048 9.8092 35.0183C10.5233 35.6318 11.4336 35.9691 12.375 35.9691C13.3164 35.9691 14.2267 35.6318 14.9408 35.0183C15.6549 34.4048 16.1256 33.5558 16.2675 32.6252H18.2812C18.4304 32.6252 18.5735 32.5659 18.679 32.4604C18.7845 32.3549 18.8438 32.2118 18.8438 32.0627C18.8438 31.9135 18.7845 31.7704 18.679 31.6649C18.5735 31.5594 18.4304 31.5002 18.2812 31.5002H16.2675C16.1256 30.5695 15.6549 29.7205 14.9408 29.107C14.2267 28.4936 13.3164 28.1562 12.375 28.1562C11.4336 28.1562 10.5233 28.4936 9.8092 29.107C9.0951 29.7205 8.62442 30.5695 8.4825 31.5002H0.5625C0.413316 31.5002 0.270242 31.5594 0.164752 31.6649C0.0592632 31.7704 0 31.9135 0 32.0627C0 32.2118 0.0592632 32.3549 0.164752 32.4604C0.270242 32.5659 0.413316 32.6252 0.5625 32.6252ZM12.375 29.2502C12.9313 29.2502 13.475 29.4151 13.9375 29.7242C14.4001 30.0332 14.7605 30.4724 14.9734 30.9864C15.1863 31.5003 15.242 32.0658 15.1335 32.6114C15.0249 33.1569 14.7571 33.6581 14.3637 34.0514C13.9704 34.4447 13.4693 34.7126 12.9237 34.8211C12.3781 34.9296 11.8126 34.8739 11.2987 34.6611C10.7848 34.4482 10.3455 34.0877 10.0365 33.6252C9.72745 33.1627 9.5625 32.6189 9.5625 32.0627C9.5625 31.3167 9.85882 30.6014 10.3863 30.0739C10.9137 29.5465 11.6291 29.2502 12.375 29.2502Z" fill="#AB3534"/>
</g>
<defs>
<clipPath id="clip0_1_747">
<rect width="36" height="36" fill="white" transform="translate(0 0.000244141)"/>
</clipPath>
</defs>
</svg>
