<svg width="36" height="36" viewBox="0 0 36 36" fill="none" xmlns="http://www.w3.org/2000/svg">
<g clip-path="url(#clip0_250_450)">
<path d="M8.68956 8.06945C9.03263 8.06945 9.31025 7.79153 9.31025 7.44876V2.48324C9.31025 2.14047 9.03263 1.86255 8.68956 1.86255C8.34648 1.86255 8.06886 2.14047 8.06886 2.48324V7.44876C8.06886 7.79153 8.34648 8.06945 8.68956 8.06945Z" fill="#AB3534"/>
<path d="M35.9524 17.7626C35.8566 17.5308 35.63 17.3795 35.379 17.3795H27.9308V5.58651C27.9308 5.24373 27.6532 4.96582 27.3101 4.96582C26.967 4.96582 26.6894 5.24373 26.6894 5.58651V18.0002C26.6894 18.343 26.967 18.6209 27.3101 18.6209H33.8806L17.9998 34.5017L2.11903 18.6209H8.68956C9.03263 18.6209 9.31024 18.343 9.31024 18.0002V9.9313C9.31024 9.58853 9.03263 9.31062 8.68956 9.31062C8.34648 9.31062 8.06887 9.58853 8.06887 9.9313V17.3795H0.620654C0.369713 17.3795 0.143017 17.5308 0.0472475 17.7626C-0.0491283 17.9947 0.00421174 18.2615 0.18181 18.439L17.561 35.8182C17.6822 35.9395 17.841 36.0001 17.9998 36.0001C18.1586 36.0001 18.3174 35.9395 18.4387 35.8182L35.8179 18.439C35.9955 18.2615 36.0488 17.9947 35.9524 17.7626Z" fill="#AB3534"/>
<path d="M14.8965 4.34532C15.2396 4.34532 15.5172 4.0674 15.5172 3.72463V0.621178C15.5172 0.278404 15.2396 0.000488281 14.8965 0.000488281C14.5534 0.000488281 14.2758 0.278404 14.2758 0.621178V3.72463C14.2758 4.0674 14.5534 4.34532 14.8965 4.34532Z" fill="#AB3534"/>
<path d="M21.1032 6.20738C21.4463 6.20738 21.7239 5.92947 21.7239 5.58669V0.621178C21.7239 0.278404 21.4463 0.000488281 21.1032 0.000488281C20.7602 0.000488281 20.4826 0.278404 20.4826 0.621178V5.58669C20.4826 5.92947 20.7602 6.20738 21.1032 6.20738Z" fill="#AB3534"/>
<path d="M4.34483 32.8967H3.10345V31.6554C3.10345 31.3126 2.82584 31.0347 2.48276 31.0347C2.13968 31.0347 1.86207 31.3126 1.86207 31.6554V32.8967H0.62069C0.277613 32.8967 0 33.1747 0 33.5174C0 33.8602 0.277613 34.1381 0.62069 34.1381H1.86207V35.3795C1.86207 35.7223 2.13968 36.0002 2.48276 36.0002C2.82584 36.0002 3.10345 35.7223 3.10345 35.3795V34.1381H4.34483C4.6879 34.1381 4.96552 33.8602 4.96552 33.5174C4.96552 33.1747 4.6879 32.8967 4.34483 32.8967Z" fill="#AB3534"/>
<path d="M7.44827 29.1728C7.44827 29.8586 6.89274 30.4142 6.20689 30.4142C5.52135 30.4142 4.96552 29.8586 4.96552 29.1728C4.96552 28.4872 5.52135 27.9314 6.20689 27.9314C6.89274 27.9314 7.44827 28.4872 7.44827 29.1728Z" fill="#AB3534"/>
<path d="M35.379 32.8967H34.1376V31.6554C34.1376 31.3126 33.86 31.0347 33.517 31.0347C33.1739 31.0347 32.8963 31.3126 32.8963 31.6554V32.8967H31.6549C31.3118 32.8967 31.0342 33.1747 31.0342 33.5174C31.0342 33.8602 31.3118 34.1381 31.6549 34.1381H32.8963V35.3795C32.8963 35.7223 33.1739 36.0002 33.517 36.0002C33.86 36.0002 34.1376 35.7223 34.1376 35.3795V34.1381H35.379C35.7221 34.1381 35.9997 33.8602 35.9997 33.5174C35.9997 33.1747 35.7221 32.8967 35.379 32.8967Z" fill="#AB3534"/>
<path d="M31.0342 29.1725C31.0342 29.8584 30.4787 30.4139 29.7928 30.4139C29.1073 30.4139 28.5515 29.8584 28.5515 29.1725C28.5515 28.487 29.1073 27.9312 29.7928 27.9312C30.4787 27.9312 31.0342 28.487 31.0342 29.1725Z" fill="#AB3534"/>
<path d="M17.5568 18.6209H18.443C19.5674 18.6209 20.4826 19.5358 20.4826 20.6602C20.4826 21.7846 19.5674 22.6996 18.443 22.6996H15.7833C15.4402 22.6996 15.1626 22.9775 15.1626 23.3203C15.1626 23.663 15.4402 23.9409 15.7833 23.9409H17.3792V25.0938C17.3792 25.4366 17.6568 25.7145 17.9999 25.7145C18.343 25.7145 18.6206 25.4366 18.6206 25.0938V23.9231C20.346 23.8288 21.724 22.4086 21.724 20.6602C21.724 18.8512 20.2523 17.3795 18.443 17.3795H17.5568C16.4324 17.3795 15.5172 16.4645 15.5172 15.3402C15.5172 14.2158 16.4324 13.3008 17.5568 13.3008H19.7735C20.1165 13.3008 20.3941 13.0229 20.3941 12.6801C20.3941 12.3374 20.1165 12.0594 19.7735 12.0594H18.6206V10.9066C18.6206 10.5638 18.343 10.2859 17.9999 10.2859C17.6568 10.2859 17.3792 10.5638 17.3792 10.9066V12.0776C15.6538 12.1719 14.2758 13.5921 14.2758 15.3402C14.2758 17.1492 15.7475 18.6209 17.5568 18.6209V18.6209Z" fill="#AB3534"/>
</g>
<defs>
<clipPath id="clip0_250_450">
<rect width="36" height="36" fill="white" transform="translate(0 0.000244141)"/>
</clipPath>
</defs>
</svg>
