<svg width="36" height="36" viewBox="0 0 36 36" fill="none" xmlns="http://www.w3.org/2000/svg">
<g clip-path="url(#clip0_250_405)">
<path d="M6.32784 12.5053H7.36523V18.8025C7.36523 19.0944 7.60183 19.3309 7.89363 19.3309H11.9405C12.2323 19.3309 12.4689 19.0944 12.4689 18.8025V12.5053H13.5062C13.717 12.5053 13.9076 12.38 13.9913 12.1866C14.0749 11.9932 14.0356 11.7685 13.8911 11.615L10.3019 7.79917C10.2021 7.693 10.0628 7.63281 9.91701 7.63281C9.77125 7.63281 9.63203 7.693 9.53212 7.79917L5.94288 11.615C5.79846 11.7685 5.75915 11.9932 5.84275 12.1866C5.9265 12.38 6.11711 12.5053 6.32784 12.5053V12.5053ZM9.91708 8.93233L12.2839 11.4486H11.9405C11.6487 11.4486 11.4121 11.6851 11.4121 11.977V18.2742H8.42203V11.977C8.42203 11.6851 8.18549 11.4486 7.89363 11.4486H7.55022L9.91708 8.93233Z" fill="#AB3534"/>
<path d="M14.4109 8.87032H15.4484V18.8027C15.4484 19.0945 15.685 19.3311 15.9768 19.3311H20.0236C20.3155 19.3311 20.552 19.0945 20.552 18.8027V8.87032H21.5894C21.8002 8.87032 21.9907 8.74502 22.0744 8.55159C22.158 8.35816 22.1186 8.13351 21.9742 7.97995L18.385 4.16416C18.2852 4.05799 18.1459 3.9978 18.0001 3.9978C17.8544 3.9978 17.7152 4.05799 17.6152 4.16416L14.026 7.97995C13.8816 8.13351 13.8423 8.35816 13.9259 8.55159C14.0096 8.74502 14.2002 8.87032 14.4109 8.87032V8.87032ZM18.0001 5.29732L20.3669 7.81359H20.0235C19.7317 7.81359 19.4951 8.05012 19.4951 8.34199V18.2743H16.505V8.34199C16.505 8.05012 16.2684 7.81359 15.9766 7.81359H15.6332L18.0001 5.29732Z" fill="#AB3534"/>
<path d="M22.4938 4.87283H23.5312V10.6076C23.5312 10.8995 23.7677 11.136 24.0596 11.136C24.3515 11.136 24.588 10.8995 24.588 10.6076V4.34443C24.588 4.05256 24.3515 3.81603 24.0596 3.81603H23.7162L26.083 1.29976L28.4498 3.81603H28.1064C27.8146 3.81603 27.578 4.05256 27.578 4.34443V18.2742H24.5879V12.721C24.5879 12.4292 24.3514 12.1926 24.0595 12.1926C23.7677 12.1926 23.5311 12.4292 23.5311 12.721V18.8025C23.5311 19.0944 23.7677 19.3309 24.0595 19.3309H28.1064C28.3982 19.3309 28.6348 19.0944 28.6348 18.8025V4.87283H29.6722C29.883 4.87283 30.0735 4.74753 30.1572 4.5541C30.2408 4.3606 30.2014 4.13603 30.057 3.98246L26.4679 0.166604C26.368 0.0604316 26.2287 0.000244141 26.083 0.000244141C25.9373 0.000244141 25.7979 0.0604316 25.6981 0.166604L22.1089 3.98239C21.9645 4.13595 21.9251 4.3606 22.0087 4.55403C22.0925 4.74753 22.283 4.87283 22.4938 4.87283V4.87283Z" fill="#AB3534"/>
<path d="M28.2033 30.551L27.4901 30.9396C27.1326 31.1345 26.77 31.3355 26.4029 31.539C23.2959 33.2617 19.7748 35.2148 16.3895 34.9121L4.40318 33.8421C4.38757 33.8407 4.37189 33.84 4.35621 33.84H1.05673V27.9082H4.35614C4.48109 27.9082 4.60195 27.8639 4.69737 27.7832C4.71262 27.7704 6.24755 26.4832 8.38111 25.6453C8.65273 25.5386 8.78646 25.232 8.67987 24.9604C8.57313 24.6888 8.26657 24.555 7.99488 24.6617C6.07591 25.4152 4.6305 26.4871 4.16904 26.8514H0.528398C0.236531 26.8514 0 27.088 0 27.3798V34.3684C0 34.6602 0.236531 34.8968 0.528398 34.8968H4.33266L16.2956 35.9647C16.5657 35.9888 16.8353 36.0003 17.1051 36.0003C20.5358 36.0003 23.9116 34.1287 26.9154 32.4632C27.2803 32.2609 27.6406 32.0612 27.9959 31.8675L28.709 31.479C28.9652 31.3394 29.0597 31.0185 28.9202 30.7622C28.7804 30.5059 28.4595 30.4114 28.2033 30.551V30.551Z" fill="#AB3534"/>
<path d="M35.5921 25.087C35.0303 24.3422 34.0517 24.085 33.2067 24.4388C33.1851 24.1009 33.0707 23.7717 32.8703 23.4911C32.342 22.7515 31.3376 22.5131 30.534 22.9368L29.2774 23.599C29.2613 23.3039 29.1742 23.0136 29.0191 22.7571C28.5176 21.9283 27.4582 21.6406 26.6073 22.1019L25.668 22.6111C25.6511 22.246 25.5275 21.89 25.3067 21.5895C24.7559 20.8402 23.7589 20.6095 22.9356 21.0413L16.1549 24.5978C15.3923 24.305 12.9613 23.5131 10.1214 24.042C9.83448 24.0954 9.6452 24.3713 9.69863 24.6582C9.752 24.9451 10.028 25.1342 10.3148 25.0809C13.3467 24.5165 15.9413 25.6505 15.9664 25.6617C16.0345 25.6922 16.1083 25.7081 16.1829 25.7081H23.2408C23.7423 25.7081 24.1502 26.1171 24.1502 26.6201C24.1502 27.0785 23.8083 27.4674 23.3548 27.5249L14.4091 28.6579C14.1445 28.6914 13.9464 28.9169 13.9472 29.1837C13.948 29.4504 14.1475 29.6747 14.4123 29.7067L18.2115 30.1646C21.8915 30.6081 25.55 29.8904 28.7909 28.0886L33.5388 25.4492C33.9562 25.232 34.4642 25.3467 34.7484 25.7235C34.9177 25.9478 34.9807 26.2342 34.9213 26.5092C34.862 26.7837 34.6868 27.0181 34.4407 27.1521L30.0661 29.5362C29.8098 29.6758 29.7153 29.9967 29.8549 30.2529C29.9508 30.4288 30.1322 30.5286 30.3194 30.5286C30.4048 30.5286 30.4914 30.5077 30.5717 30.464L34.9464 28.0801C35.4625 27.7987 35.8299 27.3075 35.9542 26.7324C36.0786 26.1567 35.9466 25.557 35.5921 25.087V25.087ZM21.9047 24.6513H18.3279L23.4264 21.9772C23.7835 21.79 24.2162 21.8902 24.4551 22.2154C24.5967 22.408 24.6458 22.6427 24.5936 22.8761C24.5415 23.1091 24.3974 23.2999 24.1879 23.4136C24.1879 23.4136 24.1879 23.4136 24.1879 23.4136L21.9047 24.6513ZM23.907 24.7678L27.1109 23.0308C27.4653 22.8388 27.9061 22.9589 28.115 23.3041C28.2242 23.4847 28.2533 23.6963 28.1967 23.8998C28.1404 24.1028 28.0068 24.2687 27.8208 24.3667L25.0419 25.8313C24.8259 25.3391 24.4149 24.9516 23.907 24.7678ZM32.1355 24.7251C32.0866 24.9426 31.9524 25.122 31.7579 25.2301L28.2775 27.1649C25.3713 28.7805 22.1083 29.4685 18.8106 29.1655L23.4876 28.5732C24.3553 28.4633 25.0336 27.7927 25.1781 26.9541L31.0267 23.8716C31.365 23.6933 31.7878 23.7937 32.0104 24.1053C32.1401 24.287 32.1846 24.5071 32.1355 24.7251V24.7251Z" fill="#AB3534"/>
</g>
<defs>
<clipPath id="clip0_250_405">
<rect width="36" height="36" fill="white" transform="translate(0 0.000244141)"/>
</clipPath>
</defs>
</svg>
