<svg width="32" height="32" viewBox="0 0 32 32" fill="none" xmlns="http://www.w3.org/2000/svg">
<g clip-path="url(#clip0_1_889)">
<path d="M32 2V8.1875C32 9.29206 31.1046 10.1875 30 10.1875C28.8954 10.1875 28 9.29206 28 8.1875V4H4V28H28V23.8125C28 22.7079 28.8954 21.8125 30 21.8125C31.1046 21.8125 32 22.7079 32 23.8125V30C32 31.1046 31.1046 32 30 32H2C0.895437 32 0 31.1046 0 30V2C0 0.895437 0.895437 0 2 0H30C31.1046 0 32 0.895437 32 2ZM24.5553 21.4447C24.9459 21.8352 25.4576 22.0306 25.9695 22.0305C26.4812 22.0305 26.9933 21.8352 27.3837 21.4447L31.4142 17.4142C31.7893 17.0391 32 16.5304 32 16C32 15.4696 31.7893 14.9609 31.4142 14.5858L27.3837 10.5553C26.6027 9.77425 25.3364 9.77425 24.5553 10.5553C23.7743 11.3364 23.7743 12.6027 24.5553 13.3837L25.1716 14H13.3357C12.2312 14 11.3357 14.8954 11.3357 16C11.3357 17.1046 12.2312 18 13.3357 18H25.1716L24.5553 18.6162C23.7743 19.3973 23.7743 20.6636 24.5553 21.4447Z" fill="#AB3534"/>
</g>
<defs>
<clipPath id="clip0_1_889">
<rect width="32" height="32" fill="white"/>
</clipPath>
</defs>
</svg>
