<svg width="40" height="40" viewBox="0 0 40 40" fill="none" xmlns="http://www.w3.org/2000/svg">
<path fill-rule="evenodd" clip-rule="evenodd" d="M34.375 36.25H36.875C37.22 36.25 37.5 36.53 37.5 36.875C37.5 37.22 37.22 37.5 36.875 37.5H3.125C2.78 37.5 2.5 37.22 2.5 36.875V3.125C2.5 2.78 2.78 2.5 3.125 2.5C3.47 2.5 3.75 2.78 3.75 3.125V36.25H5.625V25.625C5.625 25.28 5.905 25 6.25 25H11.25C11.595 25 11.875 25.28 11.875 25.625V36.25H13.125V23.125C13.125 22.78 13.405 22.5 13.75 22.5H18.75C19.095 22.5 19.375 22.78 19.375 23.125V27.5C19.375 27.845 19.095 28.125 18.75 28.125C18.405 28.125 18.125 27.845 18.125 27.5V23.75H14.375V36.25H18.125V30C18.125 29.655 18.405 29.375 18.75 29.375C19.095 29.375 19.375 29.655 19.375 30V36.25H20.625V20.625C20.625 20.28 20.905 20 21.25 20H26.25C26.595 20 26.875 20.28 26.875 20.625V36.25H28.125V26.25C28.125 25.905 28.405 25.625 28.75 25.625C29.095 25.625 29.375 25.905 29.375 26.25V36.25H33.125V18.75H29.375V23.75C29.375 24.095 29.095 24.375 28.75 24.375C28.405 24.375 28.125 24.095 28.125 23.75V18.125C28.125 17.78 28.405 17.5 28.75 17.5H33.75C34.095 17.5 34.375 17.78 34.375 18.125V36.25ZM6.875 26.25V36.25H10.625V26.25H6.875ZM21.875 21.25V36.25H25.625V21.25H21.875ZM20 3.125C15.8606 3.125 12.5 6.48562 12.5 10.625C12.5 14.7644 15.8606 18.125 20 18.125C24.1394 18.125 27.5 14.7644 27.5 10.625C27.5 6.48562 24.1394 3.125 20 3.125ZM20 4.375C23.4494 4.375 26.25 7.17562 26.25 10.625C26.25 14.0744 23.4494 16.875 20 16.875C16.5506 16.875 13.75 14.0744 13.75 10.625C13.75 7.17562 16.5506 4.375 20 4.375ZM23.6438 10.5637C22.7475 10.0462 21.6 10.3537 21.0825 11.25C20.565 12.1463 20.8725 13.2938 21.7688 13.8113C22.665 14.3288 23.8125 14.0213 24.33 13.125C24.8475 12.2287 24.54 11.0812 23.6438 10.5637ZM20.7087 8.14751L18.2088 12.4775C18.0363 12.7762 18.1388 13.1588 18.4375 13.3313C18.7362 13.5038 19.1187 13.4012 19.2912 13.1025L21.7913 8.77251C21.9638 8.47376 21.8612 8.09126 21.5625 7.91876C21.2638 7.74626 20.8812 7.84876 20.7087 8.14751ZM23.0188 11.6462C23.3175 11.8187 23.42 12.2013 23.2475 12.5C23.075 12.7987 22.6925 12.9013 22.3938 12.7288C22.095 12.5563 21.9925 12.1737 22.165 11.875C22.3375 11.5763 22.72 11.4737 23.0188 11.6462ZM18.2313 7.43876C17.335 6.92126 16.1875 7.22875 15.67 8.125C15.1525 9.02125 15.46 10.1688 16.3563 10.6863C17.2525 11.2038 18.4 10.8963 18.9175 10C19.435 9.10375 19.1275 7.95626 18.2313 7.43876ZM17.6063 8.52123C17.905 8.69373 18.0075 9.07625 17.835 9.375C17.6625 9.67375 17.28 9.77627 16.9813 9.60377C16.6825 9.43127 16.58 9.04875 16.7525 8.75C16.925 8.45125 17.3075 8.34873 17.6063 8.52123Z" fill="#AB3534"/>
</svg>
