<svg width="40" height="40" viewBox="0 0 40 40" fill="none" xmlns="http://www.w3.org/2000/svg">
<path d="M16.875 23.75H4.375C4.20924 23.75 4.05027 23.8158 3.93306 23.9331C3.81585 24.0503 3.75 24.2092 3.75 24.375V31.875C3.75 32.0408 3.81585 32.1997 3.93306 32.3169C4.05027 32.4342 4.20924 32.5 4.375 32.5H16.875C17.0408 32.5 17.1997 32.4342 17.3169 32.3169C17.4342 32.1997 17.5 32.0408 17.5 31.875V24.375C17.5 24.2092 17.4342 24.0503 17.3169 23.9331C17.1997 23.8158 17.0408 23.75 16.875 23.75ZM16.25 31.25H5V25H16.25V31.25Z" fill="#AB3534"/>
<path d="M6.875 27.5H7.5C7.66576 27.5 7.82473 27.4342 7.94194 27.3169C8.05915 27.1997 8.125 27.0408 8.125 26.875C8.125 26.7092 8.05915 26.5503 7.94194 26.4331C7.82473 26.3158 7.66576 26.25 7.5 26.25H6.875C6.70924 26.25 6.55027 26.3158 6.43306 26.4331C6.31585 26.5503 6.25 26.7092 6.25 26.875C6.25 27.0408 6.31585 27.1997 6.43306 27.3169C6.55027 27.4342 6.70924 27.5 6.875 27.5V27.5Z" fill="#AB3534"/>
<path d="M9.375 27.5H14.375C14.5408 27.5 14.6997 27.4342 14.8169 27.3169C14.9342 27.1997 15 27.0408 15 26.875C15 26.7092 14.9342 26.5503 14.8169 26.4331C14.6997 26.3158 14.5408 26.25 14.375 26.25H9.375C9.20924 26.25 9.05027 26.3158 8.93306 26.4331C8.81585 26.5503 8.75 26.7092 8.75 26.875C8.75 27.0408 8.81585 27.1997 8.93306 27.3169C9.05027 27.4342 9.20924 27.5 9.375 27.5V27.5Z" fill="#AB3534"/>
<path d="M6.875 30H7.5C7.66576 30 7.82473 29.9342 7.94194 29.8169C8.05915 29.6997 8.125 29.5408 8.125 29.375C8.125 29.2092 8.05915 29.0503 7.94194 28.9331C7.82473 28.8158 7.66576 28.75 7.5 28.75H6.875C6.70924 28.75 6.55027 28.8158 6.43306 28.9331C6.31585 29.0503 6.25 29.2092 6.25 29.375C6.25 29.5408 6.31585 29.6997 6.43306 29.8169C6.55027 29.9342 6.70924 30 6.875 30V30Z" fill="#AB3534"/>
<path d="M9.375 30H14.375C14.5408 30 14.6997 29.9342 14.8169 29.8169C14.9342 29.6997 15 29.5408 15 29.375C15 29.2092 14.9342 29.0503 14.8169 28.9331C14.6997 28.8158 14.5408 28.75 14.375 28.75H9.375C9.20924 28.75 9.05027 28.8158 8.93306 28.9331C8.81585 29.0503 8.75 29.2092 8.75 29.375C8.75 29.5408 8.81585 29.6997 8.93306 29.8169C9.05027 29.9342 9.20924 30 9.375 30V30Z" fill="#AB3534"/>
<path d="M38.3063 20.025L33.75 18.625V8.12501C33.75 8.01283 33.7197 7.90273 33.6625 7.80626L29.9125 1.55626C29.8577 1.46254 29.7791 1.3849 29.6848 1.33114C29.5904 1.27738 29.4836 1.2494 29.375 1.25001H5.625C5.51641 1.2494 5.40958 1.27738 5.31523 1.33114C5.22088 1.3849 5.14234 1.46254 5.0875 1.55626L1.3375 7.80626C1.28026 7.90273 1.25003 8.01283 1.25 8.12501V34.375C1.25 34.5408 1.31585 34.6997 1.43306 34.817C1.55027 34.9342 1.70924 35 1.875 35H24.0812C24.8779 35.8557 25.8089 36.5756 26.8375 37.1313L29.7062 38.675C29.7963 38.7242 29.8973 38.75 30 38.75C30.1027 38.75 30.2037 38.7242 30.2938 38.675L33.1625 37.1313C34.8526 36.2225 36.2647 34.8725 37.2486 33.2249C38.2325 31.5774 38.7514 29.694 38.75 27.775V20.625C38.7496 20.4908 38.7063 20.3602 38.6265 20.2522C38.5467 20.1443 38.4345 20.0647 38.3063 20.025V20.025ZM29.0188 2.50001L32.0187 7.50001H21.7625L20.7625 2.50001H29.0188ZM15.5125 2.50001H19.4875L20.4875 7.50001H14.5125L15.5125 2.50001ZM14.375 8.75001H20.625V15H14.375V8.75001ZM5.98125 2.50001H14.2375L13.2375 7.50001H2.98125L5.98125 2.50001ZM2.5 33.75V8.75001H13.125V15.625C13.125 15.7908 13.1908 15.9497 13.3081 16.067C13.4253 16.1842 13.5842 16.25 13.75 16.25H21.25C21.4158 16.25 21.5747 16.1842 21.6919 16.067C21.8092 15.9497 21.875 15.7908 21.875 15.625V8.75001H32.5V18.2375L30.1813 17.525C30.0633 17.4875 29.9367 17.4875 29.8187 17.525L21.6937 20.025C21.5655 20.0647 21.4533 20.1443 21.3735 20.2522C21.2937 20.3602 21.2504 20.4908 21.25 20.625V27.775C21.2495 29.9059 21.8897 31.9877 23.0875 33.75H2.5ZM37.5 27.775C37.5019 29.4686 37.0443 31.1309 36.1759 32.5849C35.3075 34.0389 34.0608 35.23 32.5688 36.0313L30 37.4125L27.4312 36.0313C25.9392 35.23 24.6925 34.0389 23.8241 32.5849C22.9557 31.1309 22.4981 29.4686 22.5 27.775V21.0875L30 18.7813L37.5 21.0875V27.775Z" fill="#AB3534"/>
<path d="M29.8163 20.143L24.1913 21.8743C24.0636 21.9136 23.9518 21.9927 23.8724 22.1001C23.793 22.2075 23.7501 22.3376 23.75 22.4712V27.7768C23.7487 29.2442 24.1454 30.6844 24.8979 31.9442C25.6504 33.204 26.7305 34.2361 28.0231 34.9305L29.7038 35.8355C29.7948 35.8845 29.8966 35.9102 30 35.9102C30.1034 35.9102 30.2052 35.8845 30.2963 35.8355L31.9769 34.9305C33.2695 34.2361 34.3496 33.204 35.1021 31.9442C35.8546 30.6844 36.2513 29.2442 36.25 27.7768V22.4712C36.2498 22.3377 36.2068 22.2078 36.1274 22.1005C36.048 21.9932 35.9363 21.9141 35.8088 21.8749L30.1838 20.1437C30.0641 20.1066 29.9361 20.1064 29.8163 20.143V20.143ZM35 22.933V27.7768C35.0011 29.0184 34.6654 30.237 34.0287 31.303C33.392 32.3689 32.4781 33.2422 31.3844 33.8299L30 34.5755L28.6156 33.8299C27.522 33.2422 26.6081 32.3688 25.9714 31.3029C25.3347 30.237 24.999 29.0184 25 27.7768V22.933L30 21.3943L35 22.933Z" fill="#AB3534"/>
<path d="M27.317 27.6833C27.1991 27.5694 27.0413 27.5064 26.8774 27.5078C26.7135 27.5093 26.5567 27.575 26.4409 27.6909C26.325 27.8068 26.2593 27.9635 26.2578 28.1274C26.2564 28.2913 26.3194 28.4491 26.4333 28.567L28.3083 30.442C28.4255 30.5592 28.5844 30.625 28.7501 30.625C28.9159 30.625 29.0748 30.5592 29.192 30.442L33.567 26.067C33.6809 25.9491 33.7438 25.7913 33.7424 25.6274C33.741 25.4635 33.6753 25.3068 33.5594 25.1909C33.4435 25.075 33.2868 25.0093 33.1229 25.0078C32.959 25.0064 32.8011 25.0694 32.6833 25.1833L28.7501 29.1164L27.317 27.6833Z" fill="#AB3534"/>
</svg>
