<svg width="40" height="40" viewBox="0 0 40 40" fill="none" xmlns="http://www.w3.org/2000/svg">
<g clip-path="url(#clip0_1_652)">
<path d="M20.1404 34.0563C12.3898 34.0563 6.08413 27.7506 6.08413 20C6.08413 12.2494 12.3898 5.94375 20.1404 5.94375C21.9116 5.94375 23.6818 6.28312 25.3231 6.93187L24.7417 7.23531C23.7377 7.75992 23.1099 8.74891 23.0623 9.88086C23.0148 11.0124 23.5571 12.0504 24.513 12.6572L33.1309 18.1298C34.0871 18.737 35.2573 18.7866 36.2609 18.2623C37.2649 17.738 37.8929 16.7494 37.9407 15.6177L38.3727 5.41766C38.4205 4.28586 37.8783 3.24758 36.9223 2.64031C35.9662 2.03305 34.796 1.98359 33.7919 2.50797L31.6374 3.63313C28.2596 1.25484 24.2928 0 20.1404 0C18.1533 0 16.1926 0.288672 14.3127 0.857969C14.003 0.951797 13.828 1.27891 13.9218 1.58859C14.0156 1.89828 14.3425 2.07336 14.6524 1.97953C16.422 1.44359 18.2684 1.17188 20.1404 1.17188C24.1648 1.17188 28.004 2.42383 31.243 4.7925C31.423 4.92422 31.6623 4.94227 31.86 4.83891L34.3342 3.54672C34.9628 3.21844 35.6954 3.24945 36.2938 3.62953C36.8923 4.00969 37.2318 4.65969 37.2018 5.36812L36.7698 15.5682C36.7398 16.2766 36.3468 16.8954 35.7184 17.2236C35.0902 17.5517 34.3577 17.5207 33.7591 17.1405L25.1411 11.6678C24.5427 11.288 24.2033 10.6384 24.233 9.93008C24.2629 9.22141 24.6559 8.60234 25.2841 8.27406L26.9395 7.41C27.1348 7.30812 27.2565 7.10531 27.2544 6.88508C27.2523 6.66484 27.1269 6.46438 26.9298 6.36609C24.8373 5.32305 22.4894 4.77172 20.1403 4.77172C11.7435 4.77172 4.91218 11.603 4.91218 19.9998C4.91218 28.3967 11.7435 35.228 20.1403 35.228C21.1328 35.228 21.9403 36.0355 21.9403 37.028C21.9403 38.0205 21.1329 38.8281 20.1404 38.8281C15.1113 38.8281 10.3834 36.8698 6.82733 33.3138C3.27085 29.7573 1.31226 25.0291 1.31226 20C1.31226 14.9709 3.27085 10.2427 6.82726 6.68625C8.49069 5.02352 10.4083 3.70547 12.5266 2.76867C12.8226 2.63781 12.9563 2.2918 12.8255 1.99578C12.6945 1.69977 12.3484 1.56594 12.0526 1.69687C9.80171 2.69234 7.76483 4.09219 5.99866 5.85758C2.22085 9.63539 0.140381 14.658 0.140381 20C0.140381 25.342 2.22093 30.3646 5.99874 34.1424C9.77601 37.9198 14.7983 40 20.1404 40C21.7791 40 23.1123 38.6669 23.1123 37.0281C23.1123 35.3894 21.7791 34.0563 20.1404 34.0563V34.0563Z" fill="#AB3534"/>
<path d="M26.5891 26.9078C26.5916 26.6105 26.596 26.0892 26.601 25.4343C27.3989 25.259 27.9978 24.5465 27.9978 23.6967C27.9978 22.8553 27.4104 22.1483 26.6241 21.9644C26.6502 17.1477 26.6202 16.7883 26.61 16.6671C26.519 15.5755 25.8464 14.6801 24.8964 14.3859C23.9449 14.0916 22.9502 14.4403 22.2345 15.3183C21.6071 16.0881 18.9674 20.8331 17.8616 22.8374C17.559 23.386 17.5688 24.0618 17.8873 24.6012C18.2058 25.1406 18.7928 25.4757 19.4192 25.4757H23.0427C23.0389 25.9678 23.0351 26.4397 23.0313 26.8773C23.0272 27.3524 23.2084 27.8008 23.5415 28.1397C23.8746 28.4785 24.3198 28.6674 24.7934 28.6715L24.8104 28.6716C25.7828 28.6714 26.5807 27.8803 26.5891 26.9078V26.9078ZM24.3773 27.3181C24.2637 27.2024 24.2018 27.0495 24.2032 26.8873C24.2084 26.2768 24.2139 25.5999 24.219 24.8939C24.2202 24.7378 24.1588 24.5877 24.0488 24.4769C23.9388 24.3661 23.7891 24.3038 23.633 24.3038H19.4192C19.2055 24.3038 19.0052 24.1894 18.8965 24.0053C18.7878 23.8213 18.7845 23.5907 18.8877 23.4035C20.641 20.2256 22.6796 16.6272 23.1429 16.0586C23.4632 15.6656 23.8473 15.4567 24.2318 15.4567C24.3382 15.4567 24.4448 15.4728 24.5499 15.5053C25.0408 15.6573 25.3911 16.1516 25.4423 16.7644C25.4564 16.9344 25.4762 17.9057 25.4492 22.5003C25.4483 22.6563 25.5096 22.8062 25.6197 22.9168C25.7296 23.0274 25.8791 23.0896 26.0352 23.0896H26.219C26.5537 23.0896 26.826 23.362 26.826 23.6967C26.826 24.0313 26.5538 24.3037 26.219 24.3037H26.0192C25.6973 24.3037 25.4356 24.5634 25.4333 24.8853C25.4266 25.7917 25.4204 26.5228 25.4172 26.8978C25.4144 27.2296 25.1421 27.4995 24.8104 27.4996H24.805C24.6428 27.4982 24.4909 27.4338 24.3773 27.3181V27.3181Z" fill="#AB3534"/>
<path d="M23.8168 18.0459C23.5614 17.9767 23.2915 18.0869 23.1576 18.315C22.5891 19.2851 21.7997 20.6712 20.9351 22.2179C20.8337 22.3994 20.8359 22.621 20.9412 22.8003C21.0463 22.9796 21.2387 23.0898 21.4466 23.0898H23.649C23.9712 23.0898 24.233 22.8295 24.2349 22.5072C24.2441 20.912 24.2491 19.5648 24.2491 18.6113C24.2491 18.3469 24.072 18.1153 23.8168 18.0459V18.0459ZM23.0664 21.9179H22.4469C22.6632 21.5338 22.8723 21.1639 23.0716 20.8131C23.0702 21.1628 23.0683 21.5319 23.0664 21.9179Z" fill="#AB3534"/>
<path d="M18.2056 19.8136C18.2498 19.5801 18.2988 19.2295 18.3053 18.992C18.3053 16.4833 16.2643 14.4424 13.7557 14.4424C11.5865 14.4424 9.70903 15.9857 9.29145 18.1121C9.19989 18.5784 9.29536 19.0524 9.56028 19.4468C9.8252 19.8413 10.2279 20.1089 10.6943 20.2005C11.657 20.3895 12.5936 19.7602 12.7825 18.7978C12.8733 18.3356 13.2825 18.0002 13.7557 18.0002C14.2748 18.0002 14.7007 18.395 14.7439 18.9068L14.7212 19.0838C14.5979 19.5475 14.3097 20.105 13.8642 20.7415C12.1559 23.1823 11.1369 24.5165 10.5893 25.2337C9.89059 26.1485 9.42903 26.7529 9.72176 27.7046C9.8977 28.2767 10.3289 28.7149 10.905 28.9069C11.1417 28.9858 11.3127 29.0429 13.4851 29.0429C14.3661 29.0429 15.5184 29.0337 17.0077 29.015C17.9885 29.0026 18.7764 28.1947 18.7641 27.2139C18.7518 26.2358 17.945 25.4476 16.9629 25.4575C16.26 25.4663 15.5318 25.4732 14.8521 25.4774C15.4541 24.6557 16.0904 23.7654 16.7791 22.7815C17.5118 21.7346 17.9918 20.7357 18.2056 19.8136V19.8136ZM13.2166 25.7169C13.0835 25.8946 13.0623 26.1323 13.1618 26.3307C13.2611 26.5289 13.4639 26.6541 13.6856 26.6541H13.6864C14.6446 26.6526 15.8442 26.6436 16.9761 26.6293C17.3118 26.6294 17.5881 26.895 17.5923 27.2287C17.5965 27.5634 17.3276 27.8391 16.9929 27.8434C15.5086 27.8621 14.3611 27.8711 13.4851 27.8711C11.5029 27.8711 11.355 27.8218 11.2755 27.7954C11.0601 27.7236 10.9061 27.569 10.8418 27.3602C10.735 27.0127 10.8464 26.8279 11.5208 25.9447C12.0734 25.2211 13.102 23.8743 14.8243 21.4136C15.3622 20.645 15.7126 19.9468 15.8659 19.3379C15.8858 19.2299 15.9181 19.0122 15.9175 18.9026C15.8697 17.7395 14.9201 16.8284 13.7556 16.8284C12.7239 16.8284 11.831 17.5617 11.6325 18.572C11.568 18.9004 11.2483 19.1148 10.9199 19.0507C10.7607 19.0194 10.6233 18.9281 10.5329 18.7935C10.4425 18.6589 10.41 18.4971 10.4412 18.338C10.7511 16.7597 12.145 15.6143 13.7555 15.6143C15.618 15.6143 17.1332 17.1296 17.1332 18.992C17.1297 19.0909 17.0813 19.4496 17.064 19.548C16.884 20.3243 16.4651 21.1861 15.8189 22.1096C14.8661 23.4713 14.0147 24.6512 13.2166 25.7169Z" fill="#AB3534"/>
<path d="M39.5721 26.5526C39.2452 26.0529 38.6942 25.7546 38.0982 25.7546H32.2333C31.2628 25.7546 30.4731 26.5446 30.4731 27.5156C30.4731 28.4861 31.2628 29.2757 32.2333 29.2757H35.4014L33.7516 33.029C33.6214 33.3253 33.756 33.671 34.0523 33.8012C34.3485 33.9316 34.6943 33.7968 34.8245 33.5006L36.8354 28.9256C36.9151 28.7444 36.8978 28.5352 36.7896 28.3695C36.6814 28.2037 36.4969 28.1039 36.299 28.1039H32.2334C31.909 28.1039 31.6451 27.84 31.6451 27.5156C31.6451 27.1907 31.909 26.9265 32.2334 26.9265H38.0982C38.2974 26.9265 38.4818 27.0266 38.5914 27.1942C38.7005 27.3608 38.7175 27.5693 38.6367 27.7525L33.9509 38.4125C33.8567 38.6265 33.645 38.7648 33.4114 38.7648C33.3303 38.7648 33.2503 38.7478 33.1753 38.7151C32.8781 38.5845 32.7424 38.2366 32.8728 37.9397L33.8814 35.646C34.0117 35.3497 33.8771 35.004 33.5809 34.8737C33.285 34.7435 32.939 34.8779 32.8087 35.1742L31.8 37.4681C31.4096 38.3567 31.8149 39.3973 32.7051 39.7885C32.9303 39.8867 33.168 39.9366 33.4114 39.9366C34.1096 39.9366 34.7424 39.5235 35.0237 38.8841L39.7093 28.2245C39.9504 27.6776 39.8992 27.0525 39.5721 26.5526V26.5526Z" fill="#AB3534"/>
<path d="M32.4066 19.6861C32.1159 19.544 31.765 19.6645 31.6229 19.9553L24.8528 33.8078C24.7108 34.0985 24.8313 34.4494 25.122 34.5915C25.2048 34.632 25.2924 34.6511 25.3788 34.6511C25.5956 34.6511 25.804 34.5303 25.9056 34.3224L32.6757 20.4698C32.8178 20.1792 32.6973 19.8282 32.4066 19.6861V19.6861Z" fill="#AB3534"/>
</g>
<defs>
<clipPath id="clip0_1_652">
<rect width="40" height="40" fill="white"/>
</clipPath>
</defs>
</svg>
