<svg width="40" height="40" viewBox="0 0 40 40" fill="none" xmlns="http://www.w3.org/2000/svg">
<path d="M37.5615 2.07104H30.0239C29.7003 2.07104 29.438 2.33339 29.438 2.65698C29.438 2.98058 29.7003 3.24292 30.0239 3.24292H37.5615C38.2599 3.24292 38.8281 3.81112 38.8281 4.50956V26.7732H1.17188V4.50956C1.17188 3.81112 1.74008 3.24292 2.43852 3.24292H27.2895C27.613 3.24292 27.8754 2.98058 27.8754 2.65698C27.8754 2.33339 27.613 2.07104 27.2895 2.07104H2.43852C1.09391 2.07104 0 3.16495 0 4.50956V28.6315C0 29.9761 1.09391 31.07 2.43852 31.07H8.04797C8.37156 31.07 8.63391 30.8077 8.63391 30.4841C8.63391 30.1605 8.37156 29.8982 8.04797 29.8982H2.43852C1.74008 29.8982 1.17188 29.33 1.17188 28.6315V27.945H38.8281V28.6315C38.8281 29.33 38.2599 29.8982 37.5615 29.8982H10.7566C10.433 29.8982 10.1706 30.1605 10.1706 30.4841C10.1706 30.8077 10.433 31.07 10.7566 31.07H14.4444L13.8659 34.4134H12.7966C11.8273 34.4134 11.0388 35.2019 11.0388 36.1712C11.0388 37.1405 11.8273 37.929 12.7966 37.929H27.2034C28.1727 37.929 28.9612 37.1405 28.9612 36.1712C28.9612 35.2019 28.1727 34.4134 27.2034 34.4134H26.1341L25.5556 31.07H37.5614C38.906 31.07 39.9999 29.9761 39.9999 28.6315V4.50956C40 3.16495 38.9061 2.07104 37.5615 2.07104V2.07104ZM24.9448 34.4134H23.3497C23.0261 34.4134 22.7638 34.6757 22.7638 34.9993C22.7638 35.3229 23.0261 35.5853 23.3497 35.5853H27.2034C27.5265 35.5853 27.7893 35.8481 27.7893 36.1712C27.7893 36.4943 27.5265 36.7571 27.2034 36.7571H12.7966C12.4735 36.7571 12.2107 36.4943 12.2107 36.1712C12.2107 35.8481 12.4735 35.5853 12.7966 35.5853H20.6144C20.938 35.5853 21.2003 35.3229 21.2003 34.9993C21.2003 34.6757 20.938 34.4134 20.6144 34.4134H15.0552L15.6337 31.07H24.3664L24.9448 34.4134Z" fill="#AB3534"/>
<path d="M31.697 16.8967C31.4765 16.8967 31.2747 17.0205 31.1747 17.217L28.4096 22.6517L26.0761 18.0654C25.9761 17.8689 25.7743 17.7452 25.5539 17.7452C25.3334 17.7452 25.1316 17.8689 25.0316 18.0654L23.7667 20.5516H21.7471C21.4235 20.5516 21.1611 20.8139 21.1611 21.1375C21.1611 21.4611 21.4235 21.7235 21.7471 21.7235H24.126C24.3464 21.7235 24.5482 21.5997 24.6482 21.4032L25.5539 19.6233L27.8873 24.2096C27.9873 24.4061 28.1891 24.5299 28.4096 24.5299C28.63 24.5299 28.8318 24.4061 28.9318 24.2096L31.697 18.7749L33.0343 21.4033C33.1343 21.5998 33.3361 21.7235 33.5565 21.7235H35.9354C36.259 21.7235 36.5214 21.4612 36.5214 21.1376C36.5214 20.814 36.259 20.5517 35.9354 20.5517H33.9158L32.2193 17.217C32.1193 17.0205 31.9175 16.8967 31.697 16.8967V16.8967Z" fill="#AB3534"/>
<path d="M21.7471 15.161H24.7876C25.1112 15.161 25.3736 14.8986 25.3736 14.575V8.40674C25.3736 8.08314 25.1112 7.8208 24.7876 7.8208H21.7471C21.4235 7.8208 21.1611 8.08314 21.1611 8.40674V14.575C21.1611 14.8986 21.4235 15.161 21.7471 15.161ZM22.333 8.99267H24.2017V13.9891H22.333V8.99267Z" fill="#AB3534"/>
<path d="M30.3821 9.49683H27.3416C27.018 9.49683 26.7556 9.75917 26.7556 10.0828V14.5749C26.7556 14.8985 27.018 15.1608 27.3416 15.1608H30.3821C30.7057 15.1608 30.968 14.8985 30.968 14.5749V10.0828C30.968 9.75917 30.7057 9.49683 30.3821 9.49683ZM29.7962 13.9889H27.9275V10.6687H29.7962V13.9889Z" fill="#AB3534"/>
<path d="M35.9353 15.1608C36.2589 15.1608 36.5213 14.8985 36.5213 14.5749V6.86011C36.5213 6.53651 36.2589 6.27417 35.9353 6.27417H32.8948C32.5712 6.27417 32.3088 6.53651 32.3088 6.86011V14.5749C32.3088 14.8985 32.5712 15.1608 32.8948 15.1608H35.9353ZM33.4807 7.44604H35.3494V13.9889H33.4807V7.44604Z" fill="#AB3534"/>
<path d="M17.3359 12.9026H4.05469C3.73109 12.9026 3.46875 13.1649 3.46875 13.4885C3.46875 13.8121 3.73109 14.0745 4.05469 14.0745H17.3359C17.6595 14.0745 17.9219 13.8121 17.9219 13.4885C17.9219 13.1649 17.6595 12.9026 17.3359 12.9026Z" fill="#AB3534"/>
<path d="M4.05469 17.187H6.43141C6.755 17.187 7.01735 16.9247 7.01735 16.6011C7.01735 16.2775 6.755 16.0151 6.43141 16.0151H4.05469C3.73109 16.0151 3.46875 16.2775 3.46875 16.6011C3.46875 16.9247 3.73109 17.187 4.05469 17.187V17.187Z" fill="#AB3534"/>
<path d="M17.3357 16.0151H9.11597C8.79237 16.0151 8.53003 16.2775 8.53003 16.6011C8.53003 16.9247 8.79237 17.187 9.11597 17.187H17.3357C17.6593 17.187 17.9217 16.9247 17.9217 16.6011C17.9217 16.2775 17.6593 16.0151 17.3357 16.0151Z" fill="#AB3534"/>
<path d="M17.3359 6.27417H4.05469C3.73109 6.27417 3.46875 6.53651 3.46875 6.86011C3.46875 7.1837 3.73109 7.44604 4.05469 7.44604H17.3359C17.6595 7.44604 17.9219 7.1837 17.9219 6.86011C17.9219 6.53651 17.6595 6.27417 17.3359 6.27417Z" fill="#AB3534"/>
<path d="M4.05469 10.5588H12.2908C12.6144 10.5588 12.8767 10.2965 12.8767 9.9729C12.8767 9.64931 12.6144 9.38696 12.2908 9.38696H4.05469C3.73109 9.38696 3.46875 9.64931 3.46875 9.9729C3.46875 10.2965 3.73109 10.5588 4.05469 10.5588V10.5588Z" fill="#AB3534"/>
<path d="M17.3357 9.38696H14.9753C14.6517 9.38696 14.3894 9.64931 14.3894 9.9729C14.3894 10.2965 14.6517 10.5588 14.9753 10.5588H17.3357C17.6593 10.5588 17.9217 10.2965 17.9217 9.9729C17.9217 9.64931 17.6593 9.38696 17.3357 9.38696V9.38696Z" fill="#AB3534"/>
<path d="M17.9219 19.6758C17.9219 19.3522 17.6595 19.0898 17.3359 19.0898H4.05469C3.73109 19.0898 3.46875 19.3522 3.46875 19.6758C3.46875 19.9994 3.73109 20.2617 4.05469 20.2617H17.3359C17.6595 20.2617 17.9219 19.9994 17.9219 19.6758Z" fill="#AB3534"/>
<path d="M4.05469 22.186C3.73109 22.186 3.46875 22.4484 3.46875 22.772C3.46875 23.0956 3.73109 23.3579 4.05469 23.3579H10.3047C10.6283 23.3579 10.8906 23.0956 10.8906 22.772C10.8906 22.4484 10.6283 22.186 10.3047 22.186H4.05469Z" fill="#AB3534"/>
</svg>
