<svg width="40" height="40" viewBox="0 0 40 40" fill="none" xmlns="http://www.w3.org/2000/svg">
<g clip-path="url(#clip0_1_648)">
<path d="M35.9585 26.0734V3.24465C35.9585 1.95574 34.9156 0.907227 33.6337 0.907227H12.857C12.4255 0.907227 12.0758 1.25699 12.0758 1.68848C12.0758 2.11996 12.4255 2.46973 12.857 2.46973H33.6337C34.0469 2.46973 34.3959 2.82457 34.3959 3.24465V8.32871H1.5625V3.24465C1.5625 2.82465 1.91156 2.46973 2.32477 2.46973H5.84141C6.27289 2.46973 6.62266 2.11996 6.62266 1.68848C6.62266 1.25699 6.27289 0.907227 5.84141 0.907227H2.32477C1.04289 0.907227 0 1.95574 0 3.24465V29.3449C0 30.6338 1.04289 31.6823 2.32477 31.6823H26.5335C26.5154 31.8847 26.5056 32.0895 26.5056 32.2965C26.5056 36.0439 29.5323 39.0926 33.2527 39.0926C36.9731 39.0926 40 36.0439 40 32.2964C40 29.5187 38.3356 27.1254 35.9585 26.0734ZM2.32477 30.1197C1.91156 30.1197 1.5625 29.7649 1.5625 29.3448V9.89113H34.396V25.6005C34.0243 25.5364 33.6424 25.5025 33.2528 25.5025C30.2881 25.5025 27.7639 27.4379 26.8608 30.1197H2.32477ZM33.2528 37.53C30.394 37.53 28.0682 35.1822 28.0682 32.2964C28.0682 29.4118 30.3941 27.065 33.2528 27.065C36.1117 27.065 38.4375 29.4118 38.4375 32.2964C38.4375 35.1822 36.1116 37.53 33.2528 37.53V37.53Z" fill="#AB3534"/>
<path d="M27.9707 5.39917C27.9707 4.96769 27.6209 4.61792 27.1894 4.61792H27.1873C26.7559 4.61792 26.4071 4.96769 26.4071 5.39917C26.4071 5.83065 26.758 6.18042 27.1895 6.18042C27.621 6.18042 27.9707 5.83065 27.9707 5.39917Z" fill="#AB3534"/>
<path d="M31.7443 5.39917C31.7443 4.96769 31.3945 4.61792 30.9631 4.61792H30.9586C30.5272 4.61792 30.1796 4.96769 30.1796 5.39917C30.1796 5.83065 30.5316 6.18042 30.963 6.18042C31.3944 6.18042 31.7443 5.83065 31.7443 5.39917Z" fill="#AB3534"/>
<path d="M24.1994 5.39917C24.1994 4.96769 23.8496 4.61792 23.4182 4.61792H23.4137C22.9823 4.61792 22.6346 4.96769 22.6346 5.39917C22.6346 5.83065 22.9867 6.18042 23.4181 6.18042C23.8495 6.18042 24.1994 5.83065 24.1994 5.39917Z" fill="#AB3534"/>
<path d="M4.21423 5.39917C4.21423 5.83065 4.564 6.18042 4.99548 6.18042H15.4989C15.9304 6.18042 16.2802 5.83065 16.2802 5.39917C16.2802 4.96769 15.9304 4.61792 15.4989 4.61792H4.99548C4.564 4.61792 4.21423 4.96769 4.21423 5.39917V5.39917Z" fill="#AB3534"/>
<path d="M29.6337 24.1985C29.6337 21.0639 28.4231 18.1172 26.2249 15.9009C26.2239 15.8999 26.2229 15.8989 26.2218 15.8979C26.2215 15.8976 26.2212 15.8972 26.2209 15.897C26.2205 15.8966 26.2201 15.8963 26.2197 15.8959C24.0247 13.6855 21.1095 12.4662 18.0072 12.4601C18.0015 12.4599 17.996 12.4592 17.9902 12.4592C17.986 12.4592 17.9819 12.4598 17.9778 12.4599C14.869 12.4615 11.9472 13.6817 9.74975 15.8958C9.74951 15.896 9.74928 15.8962 9.74896 15.8965C9.74873 15.8967 9.74857 15.8969 9.74842 15.8971C9.74725 15.8983 9.746 15.8995 9.74482 15.9007C7.54498 18.1163 6.3335 21.0632 6.3335 24.1986C6.3335 24.6301 6.68326 24.9799 7.11475 24.9799H28.8525C29.284 24.9798 29.6337 24.63 29.6337 24.1985ZM15.5186 23.4173C15.5462 23.1679 15.6114 22.9226 15.7134 22.6888C15.9794 22.0732 16.4672 21.6003 17.0871 21.3574C17.7011 21.1166 18.3714 21.1306 18.9748 21.3968C19.8026 21.7621 20.3529 22.5431 20.4499 23.4173H15.5186ZM22.0175 23.4173C21.9332 22.1883 21.2954 21.0553 20.2857 20.3507L21.2714 18.0794C21.4431 17.6836 21.2615 17.2234 20.8658 17.0517C20.4698 16.8799 20.0097 17.0616 19.838 17.4574L18.8561 19.7201C18.0814 19.546 17.2729 19.6061 16.5167 19.9027C15.5062 20.2989 14.7116 21.0682 14.2803 22.0664C14.0923 22.4972 13.9819 22.9538 13.9507 23.4173H7.92521C8.08693 21.2538 8.91951 19.2268 10.3206 17.582L10.987 18.2538C11.1397 18.4078 11.3407 18.4849 11.5417 18.4849C11.7405 18.4849 11.9395 18.4095 12.0919 18.2584C12.3982 17.9545 12.4002 17.4599 12.0963 17.1535L11.4201 16.4718C13.0515 15.0563 15.063 14.2155 17.209 14.052V15.0134C17.209 15.4449 17.5588 15.7946 17.9903 15.7946C18.4218 15.7946 18.7715 15.4449 18.7715 15.0134V14.0531C20.9127 14.2189 22.9198 15.0588 24.5488 16.4715L23.8715 17.1531C23.5674 17.4591 23.569 17.9538 23.8751 18.258C24.0275 18.4094 24.2266 18.4851 24.4258 18.4851C24.6265 18.4851 24.8272 18.4082 24.98 18.2545L25.6483 17.5818C27.0485 19.227 27.8806 21.2541 28.0422 23.4174H22.0175V23.4173Z" fill="#AB3534"/>
<path d="M36.055 29.8848C35.7232 29.6092 35.2306 29.6549 34.955 29.9867L32.4516 33.0008L31.455 32.1492C31.1268 31.8688 30.6339 31.9075 30.3535 32.2355C30.0732 32.5635 30.1118 33.0567 30.4398 33.337L32.0387 34.7034C32.1808 34.8248 32.3609 34.8907 32.5463 34.8907C32.5684 34.8907 32.5906 34.8898 32.6129 34.8879C32.8212 34.8701 33.0137 34.7695 33.1473 34.6086L36.1568 30.9849C36.4326 30.653 36.387 30.1605 36.055 29.8848V29.8848Z" fill="#AB3534"/>
<path d="M9.34919 2.46973C9.78068 2.46973 10.1304 2.11996 10.1304 1.68848C10.1304 1.25699 9.78068 0.907227 9.34919 0.907227H9.34474C8.91325 0.907227 8.56567 1.25699 8.56567 1.68848C8.56567 2.11996 8.91771 2.46973 9.34919 2.46973V2.46973Z" fill="#AB3534"/>
</g>
<defs>
<clipPath id="clip0_1_648">
<rect width="40" height="40" fill="white"/>
</clipPath>
</defs>
</svg>
