<svg width="18" height="19" viewBox="0 0 18 19" fill="none" xmlns="http://www.w3.org/2000/svg">
<mask id="mask0_1_690" style="mask-type:luminance" maskUnits="userSpaceOnUse" x="10" y="2" width="8" height="7">
<path fill-rule="evenodd" clip-rule="evenodd" d="M10.7654 2.00012H17.1696V8.39973H10.7654V2.00012Z" fill="white"/>
</mask>
<g mask="url(#mask0_1_690)">
<path fill-rule="evenodd" clip-rule="evenodd" d="M16.6069 8.39973C16.3242 8.39973 16.0812 8.18748 16.0489 7.90023C15.7647 5.36823 13.7982 3.40323 11.2654 3.12198C10.9572 3.08748 10.7344 2.80998 10.7689 2.50098C10.8027 2.19273 11.0779 1.96548 11.3899 2.00448C14.4484 2.34423 16.8237 4.71648 17.1664 7.77423C17.2009 8.08323 16.9789 8.36148 16.6707 8.39598C16.6497 8.39823 16.6279 8.39973 16.6069 8.39973" fill="white"/>
</g>
<path fill-rule="evenodd" clip-rule="evenodd" d="M13.9518 8.40787C13.6878 8.40787 13.4531 8.22187 13.4006 7.95337C13.1846 6.84337 12.3288 5.98762 11.2203 5.77237C10.9151 5.71312 10.7163 5.41837 10.7756 5.11312C10.8348 4.80787 11.1348 4.60837 11.4348 4.66837C12.9956 4.97137 14.2008 6.17587 14.5046 7.73737C14.5638 8.04337 14.3651 8.33812 14.0606 8.39737C14.0238 8.40412 13.9878 8.40787 13.9518 8.40787" fill="white"/>
<mask id="mask1_1_690" style="mask-type:luminance" maskUnits="userSpaceOnUse" x="1" y="1" width="16" height="17">
<path fill-rule="evenodd" clip-rule="evenodd" d="M1.50024 1.99988H16.8754V17.3753H1.50024V1.99988Z" fill="white"/>
</mask>
<g mask="url(#mask1_1_690)">
<path fill-rule="evenodd" clip-rule="evenodd" d="M3.26956 4.29603C3.27106 4.29603 3.23356 4.33503 3.18631 4.38153C3.00481 4.55778 2.62906 4.92453 2.62531 5.69178C2.61931 6.76503 3.32506 8.75778 6.72331 12.1553C10.1051 15.5363 12.0948 16.2503 13.1711 16.2503H13.1868C13.9541 16.2458 14.3201 15.87 14.4963 15.6893C14.5496 15.6345 14.5931 15.5933 14.6238 15.5685C15.3716 14.8163 15.7541 14.2575 15.7503 13.8983C15.7458 13.5323 15.2906 13.1003 14.6613 12.501C14.4611 12.3113 14.2436 12.1035 14.0141 11.874C13.4186 11.2808 13.1253 11.382 12.4766 11.61C11.5803 11.9243 10.3526 12.3548 8.43931 10.44C6.52531 8.52678 6.95431 7.29903 7.26706 6.40203C7.49356 5.75403 7.59706 5.45928 7.00231 4.86378C6.76981 4.63128 6.56056 4.41078 6.36781 4.20828C5.77231 3.58278 5.34256 3.13053 4.97881 3.12528H4.97281C4.61356 3.12528 4.05556 3.50928 3.26581 4.29903C3.26806 4.29678 3.26881 4.29603 3.26956 4.29603V4.29603ZM13.1711 17.3753C11.3021 17.3753 8.86531 15.8873 5.92831 12.951C2.97931 10.0028 1.48906 7.55853 1.50031 5.68578C1.50706 4.44828 2.15581 3.81453 2.39956 3.57678C2.41231 3.56103 2.45581 3.51828 2.47081 3.50328C3.54706 2.42703 4.28656 1.98453 4.99306 2.00028C5.83081 2.01153 6.42781 2.63928 7.18306 3.43353C7.36981 3.62928 7.57156 3.84303 7.79731 4.06803C8.89156 5.16303 8.58031 6.05628 8.32906 6.77328C8.05606 7.55553 7.81981 8.23053 9.23431 9.64503C10.6488 11.0595 11.3231 10.8233 12.1046 10.548C12.8223 10.2975 13.7133 9.98403 14.8098 11.079C15.0326 11.3018 15.2426 11.5013 15.4376 11.6865C16.2348 12.4455 16.8648 13.0448 16.8753 13.8848C16.8836 14.6003 16.4486 15.3308 15.3746 16.4048L14.8991 16.0823L15.3018 16.4745C15.0641 16.7183 14.4318 17.3678 13.1936 17.3753H13.1711Z" fill="white"/>
</g>
</svg>
