<svg width="40" height="40" viewBox="0 0 40 40" fill="none" xmlns="http://www.w3.org/2000/svg">
<g clip-path="url(#clip0_1_641)">
<path d="M23.9194 32.7472C24.3009 33.1096 24.8071 33.3117 25.3334 33.3117C25.8596 33.3117 26.3658 33.1096 26.7474 32.7472L33.414 26.0806C33.7783 25.7034 33.9799 25.1982 33.9754 24.6738C33.9708 24.1494 33.7605 23.6478 33.3897 23.2769C33.0188 22.9061 32.5172 22.6958 31.9928 22.6912C31.4684 22.6867 30.9632 22.8883 30.586 23.2526L25.3334 28.5073C24.9474 28.1777 24.4528 28.0032 23.9455 28.0177C23.4382 28.0323 22.9544 28.2348 22.588 28.5859C22.2131 28.961 22.0024 29.4696 22.0024 29.9999C22.0024 30.5302 22.2131 31.0389 22.588 31.4139L23.9194 32.7472ZM23.5293 29.5286C23.6552 29.4054 23.8243 29.3364 24.0004 29.3364C24.1764 29.3364 24.3455 29.4054 24.4714 29.5286L24.862 29.9193C24.987 30.0442 25.1566 30.1144 25.3334 30.1144C25.5101 30.1144 25.6797 30.0442 25.8047 29.9193L31.5287 24.1953C31.6544 24.0738 31.8228 24.0066 31.9976 24.0081C32.1724 24.0097 32.3396 24.0798 32.4632 24.2034C32.5868 24.327 32.657 24.4942 32.6585 24.669C32.66 24.8438 32.5928 25.0122 32.4714 25.1379L25.8047 31.8046C25.6776 31.9256 25.5088 31.9932 25.3334 31.9932C25.1579 31.9932 24.9891 31.9256 24.862 31.8046L23.5287 30.4713C23.4056 30.3452 23.3367 30.176 23.3368 29.9998C23.3369 29.8236 23.406 29.6544 23.5293 29.5286V29.5286Z" fill="#AB3534"/>
<path d="M1.74928e-05 20C-0.00337422 22.1945 0.486496 24.3617 1.43342 26.3414C2.38033 28.3211 3.76009 30.0627 5.47067 31.4374C7.18126 32.8121 9.17894 33.7848 11.316 34.2835C13.4531 34.7822 15.675 34.7942 17.8174 34.3187C18.9003 36.0669 20.4146 37.5071 22.2148 38.5011C24.015 39.4951 26.0407 40.0093 28.097 39.9945C30.1534 39.9796 32.1714 39.436 33.957 38.4161C35.7427 37.3962 37.236 35.9341 38.2935 34.1704C39.3509 32.4067 39.937 30.4007 39.9954 28.3451C40.0538 26.2896 39.5825 24.2535 38.6268 22.4327C37.6711 20.6118 36.2632 19.0674 34.5383 17.9477C32.8134 16.8281 30.8296 16.1709 28.7774 16.0393C28.0529 13.4213 26.613 11.057 24.6194 9.212L25.7667 7.51267C25.9628 7.22162 26.037 6.86525 25.9733 6.5201C25.9096 6.17495 25.7131 5.86854 25.426 5.66667L24.3194 4.9C24.0269 4.70158 23.6676 4.62741 23.3204 4.69379C22.9733 4.76017 22.6667 4.96167 22.468 5.254L21.3334 6.93334C20.0728 6.29008 18.7253 5.83353 17.3334 5.578V3.87734C17.7778 3.72079 18.1525 3.412 18.3911 3.00565C18.6297 2.5993 18.7168 2.12162 18.6369 1.65722C18.5571 1.19281 18.3155 0.771656 17.9548 0.468336C17.5942 0.165016 17.1379 -0.000889297 16.6667 3.5853e-06H12.6667C12.1955 -0.000889297 11.7391 0.165016 11.3785 0.468336C11.0179 0.771656 10.7763 1.19281 10.6964 1.65722C10.6166 2.12162 10.7037 2.5993 10.9423 3.00565C11.1809 3.412 11.5556 3.72079 12 3.87734V5.58067C10.6095 5.83724 9.26377 6.29517 8.00535 6.94L6.86668 5.25467C6.76798 5.10922 6.64149 4.98473 6.49449 4.88835C6.3475 4.79197 6.18289 4.7256 6.01015 4.69307C5.83741 4.66055 5.65994 4.66249 5.48796 4.69881C5.31597 4.73512 5.15286 4.80508 5.00802 4.90467L3.90802 5.66667C3.62029 5.86869 3.42339 6.1756 3.35967 6.52135C3.29596 6.86709 3.37054 7.22403 3.56735 7.51534L4.72535 9.23134C3.23543 10.6016 2.04616 12.2662 1.23278 14.1199C0.419398 15.9735 -0.000375817 17.9758 1.74928e-05 20V20ZM38.6667 28C38.6667 30.1097 38.0411 32.172 36.869 33.9261C35.697 35.6802 34.0311 37.0474 32.082 37.8547C30.1329 38.6621 27.9882 38.8733 25.9191 38.4617C23.8499 38.0501 21.9493 37.0342 20.4575 35.5425C18.9658 34.0507 17.9499 32.1501 17.5383 30.081C17.1267 28.0118 17.338 25.8671 18.1453 23.918C18.9526 21.969 20.3198 20.3031 22.0739 19.131C23.8281 17.9589 25.8904 17.3333 28 17.3333C30.828 17.3367 33.5391 18.4616 35.5388 20.4612C37.5385 22.4609 38.6633 25.1721 38.6667 28V28ZM16.2734 30.5267C15.7422 30.6148 15.2051 30.6616 14.6667 30.6667C12.7095 30.6693 10.7894 30.1335 9.11642 29.1177C7.44348 28.102 6.08223 26.6456 5.18172 24.9079C4.28121 23.1702 3.87614 21.2183 4.01086 19.2658C4.14559 17.3132 4.81491 15.4354 5.94556 13.8379C7.0762 12.2404 8.62458 10.9847 10.4212 10.2084C12.2178 9.43206 14.1933 9.16499 16.1316 9.43643C18.0698 9.70787 19.896 10.5073 21.4103 11.7473C22.9245 12.9873 24.0684 14.62 24.7167 16.4667C21.7834 17.2941 19.2764 19.2097 17.7073 21.8226C16.1382 24.4354 15.6253 27.5486 16.2734 30.5267V30.5267ZM23.568 6L24.6607 6.76534L23.594 8.35134C23.2407 8.08467 22.874 7.83 22.4974 7.59267L23.568 6ZM12.6667 1.33334H16.6667C16.8435 1.33334 17.0131 1.40357 17.1381 1.5286C17.2631 1.65362 17.3334 1.82319 17.3334 2C17.3334 2.17681 17.2631 2.34638 17.1381 2.47141C17.0131 2.59643 16.8435 2.66667 16.6667 2.66667H12.6667C12.4899 2.66667 12.3203 2.59643 12.1953 2.47141C12.0703 2.34638 12 2.17681 12 2C12 1.82319 12.0703 1.65362 12.1953 1.5286C12.3203 1.40357 12.4899 1.33334 12.6667 1.33334ZM16 4V5.396C15.56 5.35667 15.116 5.33334 14.6667 5.33334C14.2174 5.33334 13.7727 5.35667 13.3334 5.4V4H16ZM4.66668 6.762L5.76135 6L6.84468 7.6C6.4678 7.83778 6.10313 8.09223 5.75068 8.36334L4.66668 6.762ZM14.6667 6.66667C17.5101 6.66096 20.2803 7.56756 22.5701 9.25321C24.86 10.9389 26.5487 13.3146 27.388 16.0313C26.9305 16.0538 26.4746 16.1025 26.0227 16.1773C25.3179 14.0866 24.05 12.2308 22.3585 10.8142C20.667 9.39765 18.6175 8.47517 16.4355 8.14832C14.2535 7.82147 12.0236 8.10293 9.99128 8.96171C7.95894 9.82048 6.20291 11.2233 4.91646 13.0158C3.63 14.8082 2.86298 16.9209 2.69981 19.1211C2.53664 21.3214 2.98365 23.5241 3.99164 25.4867C4.99963 27.4493 6.52953 29.0958 8.41296 30.245C10.2964 31.3941 12.4604 32.0014 14.6667 32C15.326 31.9939 15.9836 31.9325 16.6327 31.8167C16.7815 32.2542 16.9556 32.6827 17.154 33.1C15.3305 33.4457 13.455 33.4069 11.6474 32.9861C9.83974 32.5653 8.13988 31.7717 6.65658 30.6562C5.17327 29.5407 3.93919 28.1278 3.03331 26.5079C2.12743 24.8881 1.5697 23.0969 1.39583 21.2491C1.22195 19.4013 1.43576 17.5376 2.02356 15.7772C2.61136 14.0168 3.56021 12.3985 4.80939 11.0258C6.05857 9.65319 7.58055 8.55646 9.27794 7.80583C10.9753 7.0552 12.8107 6.6672 14.6667 6.66667V6.66667Z" fill="#AB3534"/>
<path d="M15.3334 18.1228V13.3334C15.3334 13.1566 15.2631 12.987 15.1381 12.862C15.0131 12.737 14.8435 12.6667 14.6667 12.6667C14.4899 12.6667 14.3203 12.737 14.1953 12.862C14.0703 12.987 14 13.1566 14 13.3334V18.1228C13.6114 18.2601 13.2748 18.5142 13.0361 18.8503C12.7974 19.1863 12.6684 19.5879 12.6667 20.0001C12.6678 20.2971 12.7362 20.59 12.8667 20.8568L10.8614 22.8621C10.7977 22.9236 10.7469 22.9972 10.712 23.0785C10.677 23.1598 10.6586 23.2473 10.6579 23.3358C10.6571 23.4243 10.674 23.5121 10.7075 23.5941C10.741 23.676 10.7905 23.7504 10.8531 23.813C10.9157 23.8756 10.9901 23.9251 11.0721 23.9586C11.154 23.9922 11.2418 24.009 11.3303 24.0083C11.4188 24.0075 11.5063 23.9891 11.5876 23.9542C11.669 23.9192 11.7425 23.8684 11.804 23.8048L13.81 21.8001C14.0768 21.9306 14.3697 21.9989 14.6667 22.0001C15.1379 22.001 15.5942 21.8351 15.9549 21.5318C16.3155 21.2284 16.5571 20.8073 16.637 20.3429C16.7168 19.8785 16.6297 19.4008 16.3911 18.9944C16.1525 18.5881 15.7778 18.2793 15.3334 18.1228V18.1228ZM14.6667 20.6668C14.4922 20.6673 14.3245 20.5991 14.2 20.4768V20.4668L14.192 20.4614C14.0855 20.3503 14.0208 20.2058 14.0087 20.0523C13.9967 19.8989 14.0381 19.746 14.1259 19.6196C14.2138 19.4932 14.3426 19.4011 14.4907 19.359C14.6387 19.3168 14.7967 19.3271 14.938 19.3882C15.0793 19.4494 15.195 19.5575 15.2657 19.6942C15.3363 19.831 15.3574 19.988 15.3255 20.1385C15.2935 20.2891 15.2105 20.4239 15.0904 20.5202C14.9703 20.6165 14.8206 20.6683 14.6667 20.6668Z" fill="#AB3534"/>
</g>
<defs>
<clipPath id="clip0_1_641">
<rect width="40" height="40" fill="white"/>
</clipPath>
</defs>
</svg>
