<svg width="32" height="32" viewBox="0 0 32 32" fill="none" xmlns="http://www.w3.org/2000/svg">
<g clip-path="url(#clip0_1_870)">
<path fill-rule="evenodd" clip-rule="evenodd" d="M0 2V9.75C0 10.8546 0.895437 11.75 2 11.75C3.10456 11.75 4 10.8546 4 9.75V4H28V28H4V22.25C4 21.1454 3.10456 20.25 2 20.25C0.895437 20.25 0 21.1454 0 22.25V30C0 31.1046 0.895437 32 2 32H30C31.1046 32 32 31.1046 32 30V2C32 0.895437 31.1046 0 30 0H2C0.895437 0 0 0.895437 0 2ZM13.995 14L13.4897 10.6044C13.394 9.9615 14.2562 9.4935 14.8387 9.86706L23.2501 15.2624C23.7867 15.6066 23.7867 16.393 23.2501 16.7372L14.8387 22.1325C14.2573 22.5054 13.4004 22.0431 13.4897 21.3951L13.9576 18H2C0.895437 18 0 17.1046 0 16C0 14.8954 0.895437 14 2 14H13.995Z" fill="#AB3534"/>
</g>
<defs>
<clipPath id="clip0_1_870">
<rect width="32" height="32" fill="white"/>
</clipPath>
</defs>
</svg>
