<svg width="45" height="44" viewBox="0 0 45 44" fill="none" xmlns="http://www.w3.org/2000/svg">
<g clip-path="url(#clip0_1_770)">
<path d="M26.9 8.80005H18.1C17.6952 8.80005 17.3667 9.12858 17.3667 9.53338V12.4667V15.4C17.3667 15.8048 17.6952 16.1334 18.1 16.1334H26.9C27.3048 16.1334 27.6333 15.8048 27.6333 15.4V12.4667V9.53338C27.6333 9.12858 27.3048 8.80005 26.9 8.80005ZM26.1667 14.6667H18.8333V13.2H26.1667V14.6667ZM26.1667 11.7334H18.8333V10.2667H26.1667V11.7334Z" fill="#AB3534"/>
<path d="M43.7667 19.0667H39.5962L30.5667 12.8157V6.6C30.5667 6.37707 30.4655 6.1666 30.2917 6.02727L29.1 5.07393V0.733333C29.1 0.328533 28.7715 0 28.3667 0H25.4333C25.0285 0 24.7 0.328533 24.7 0.733333V1.55467L22.9583 0.161333C22.6907 -0.0528 22.3101 -0.0528 22.0424 0.161333L14.7091 6.028C14.5345 6.1666 14.4333 6.37707 14.4333 6.6V12.8157L5.4038 19.0667H1.23333C0.828533 19.0667 0.5 19.3952 0.5 19.8V22.7333V25.6667C0.5 26.0715 0.828533 26.4 1.23333 26.4H10.0333C10.4381 26.4 10.7667 26.0715 10.7667 25.6667V22.7333V19.8C10.7667 19.3952 10.4381 19.0667 10.0333 19.0667H7.98073L14.4333 14.5999V18.3333C14.4333 18.7381 14.7619 19.0667 15.1667 19.0667H19.9964L7.52973 31.5333H4.16667C3.76187 31.5333 3.43333 31.8619 3.43333 32.2667V35.2V38.1333C3.43333 38.5381 3.76187 38.8667 4.16667 38.8667H12.9667C13.3715 38.8667 13.7 38.5381 13.7 38.1333V35.2V32.2667C13.7 31.8619 13.3715 31.5333 12.9667 31.5333H9.6036L21.7667 19.3703V36.6667H18.1C17.6952 36.6667 17.3667 36.9952 17.3667 37.4V40.3333V43.2667C17.3667 43.6715 17.6952 44 18.1 44H26.9C27.3048 44 27.6333 43.6715 27.6333 43.2667V40.3333V37.4C27.6333 36.9952 27.3048 36.6667 26.9 36.6667H23.2333V19.3703L35.3964 31.5333H32.0333C31.6285 31.5333 31.3 31.8619 31.3 32.2667V35.2V38.1333C31.3 38.5381 31.6285 38.8667 32.0333 38.8667H40.8333C41.2381 38.8667 41.5667 38.5381 41.5667 38.1333V35.2V32.2667C41.5667 31.8619 41.2381 31.5333 40.8333 31.5333H37.4703L25.0036 19.0667H29.8333C30.2381 19.0667 30.5667 18.7381 30.5667 18.3333V14.5999L37.0193 19.0667H34.9667C34.5619 19.0667 34.2333 19.3952 34.2333 19.8V22.7333V25.6667C34.2333 26.0715 34.5619 26.4 34.9667 26.4H43.7667C44.1715 26.4 44.5 26.0715 44.5 25.6667V22.7333V19.8C44.5 19.3952 44.1715 19.0667 43.7667 19.0667ZM9.3 24.9333H1.96667V23.4667H9.3V24.9333ZM9.3 20.5333V22H1.96667V20.5333H9.3ZM12.2333 37.4H4.9V35.9333H12.2333V37.4ZM12.2333 33V34.4667H4.9V33H12.2333ZM40.1 37.4H32.7667V35.9333H40.1V37.4ZM40.1 33V34.4667H32.7667V33H40.1ZM26.1667 42.5333H18.8333V41.0667H26.1667V42.5333ZM26.1667 38.1333V39.6H18.8333V38.1333H26.1667ZM29.1 17.6H15.9V6.952L22.5 1.672L24.975 3.652C25.195 3.828 25.4964 3.861 25.7509 3.74073C26.0053 3.619 26.1667 3.3616 26.1667 3.08V1.46667H27.6333V5.42667C27.6333 5.6496 27.7345 5.86007 27.9083 5.9994L29.1 6.952V17.6ZM43.0333 24.9333H35.7V23.4667H43.0333V24.9333ZM43.0333 22H35.7V20.5333H43.0333V22Z" fill="#AB3534"/>
</g>
<defs>
<clipPath id="clip0_1_770">
<rect width="44" height="44" fill="white" transform="translate(0.5)"/>
</clipPath>
</defs>
</svg>
