<svg width="45" height="44" viewBox="0 0 45 44" fill="none" xmlns="http://www.w3.org/2000/svg">
<g clip-path="url(#clip0_1_765)">
<path d="M43.6995 9.48734L22.9886 0.114652C22.6501 -0.0385747 22.2619 -0.038145 21.9238 0.115511L1.29881 9.4882C0.838529 9.69737 0.543076 10.1562 0.543076 10.6618V42.7109C0.543076 43.4228 1.12023 43.9999 1.83214 43.9999H43.1681C43.88 43.9999 44.4571 43.4228 44.4571 42.7109V10.6618C44.4571 10.1555 44.1607 9.696 43.6995 9.48734V9.48734ZM30.6211 36.2656C31.333 36.2656 31.9102 35.6884 31.9102 34.9765V33.6874H34.4883V41.4218H26.7539V33.6874H29.3321V34.9765C29.3321 35.6885 29.9092 36.2656 30.6211 36.2656ZM34.4883 31.1093H25.4649C24.753 31.1093 24.1758 31.6865 24.1758 32.3984V41.4218H20.7383C20.7383 39.3749 20.7383 23.9516 20.7383 22.0859C20.7383 21.374 20.1611 20.7968 19.4492 20.7968H10.4258V18.2187H34.4883V31.1093ZM10.4258 31.1093V23.3749H13.0039V24.664C13.0039 25.3759 13.5811 25.9531 14.293 25.9531C15.0049 25.9531 15.5821 25.3759 15.5821 24.664V23.3749H18.1602V31.1093H10.4258ZM10.4258 33.6874H13.0039V34.9765C13.0039 35.6884 13.5811 36.2656 14.293 36.2656C15.0049 36.2656 15.5821 35.6884 15.5821 34.9765V33.6874H18.1602V41.4218H10.4258V33.6874ZM41.8789 41.4218H37.0664V16.9296C37.0664 16.2177 36.4893 15.6406 35.7774 15.6406H9.13674C8.42483 15.6406 7.84768 16.2177 7.84768 16.9296V41.4218H3.12111V11.4919L22.4582 2.70446L41.8789 11.4934V41.4218Z" fill="#AB3534"/>
<path d="M17.3008 10.0547C17.3008 10.7666 17.8779 11.3438 18.5898 11.3438H26.3242C27.0361 11.3438 27.6133 10.7666 27.6133 10.0547C27.6133 9.34278 27.0361 8.76562 26.3242 8.76562H18.5898C17.8779 8.76562 17.3008 9.34278 17.3008 10.0547Z" fill="#AB3534"/>
</g>
<defs>
<clipPath id="clip0_1_765">
<rect width="44" height="44" fill="white" transform="translate(0.5)"/>
</clipPath>
</defs>
</svg>
