<svg width="36" height="36" viewBox="0 0 36 36" fill="none" xmlns="http://www.w3.org/2000/svg">
<g clip-path="url(#clip0_250_20)">
<path d="M0.590454 17.9923H0.611454C0.934996 17.9925 1.20042 17.7361 1.21144 17.4127C1.53603 8.14019 9.31598 0.886501 18.5885 1.21102C22.1551 1.33589 25.5893 2.59324 28.3932 4.80096H25.2001C24.8688 4.80096 24.6001 5.06961 24.6001 5.40095C24.6001 5.73229 24.8688 6.00093 25.2001 6.00093H30H30.0084C30.0553 5.99711 30.1016 5.98788 30.1464 5.97333C30.1771 5.96891 30.2073 5.96231 30.237 5.95353C30.2538 5.94634 30.2664 5.93134 30.2826 5.92234C30.3364 5.89601 30.3859 5.86136 30.429 5.81974L30.435 5.81554C30.4502 5.79469 30.4641 5.77286 30.4764 5.75014C30.5078 5.71189 30.5343 5.66974 30.555 5.62474C30.5715 5.57689 30.5816 5.52709 30.585 5.47655C30.5919 5.4518 30.5969 5.42652 30.6 5.40095V0.601057C30.6 0.269715 30.3313 0.0010713 30 0.0010713C29.6686 0.0010713 29.4 0.269715 29.4 0.601057V4.07618C21.7126 -2.22233 10.3747 -1.09645 4.07615 6.59102C1.57623 9.64225 0.148114 13.4303 0.0114674 17.3725C0.000367606 17.7034 0.259487 17.9809 0.590454 17.9923Z" fill="#AB3534"/>
<path d="M5.44798 29.1659C5.22779 28.9174 4.84785 28.8944 4.5993 29.1146C4.35076 29.3348 4.32781 29.7147 4.548 29.9633C4.96102 30.4268 5.39736 30.869 5.85537 31.288C6.10444 31.5067 6.48348 31.4819 6.7021 31.2329C6.9145 30.9909 6.898 30.6245 6.66476 30.4025C6.23831 30.0114 5.8322 29.5986 5.44798 29.1659Z" fill="#AB3534"/>
<path d="M12.6082 33.9165C12.0596 33.7308 11.5212 33.5167 10.9948 33.2751C10.6979 33.128 10.3379 33.2495 10.1908 33.5465C10.0438 33.8434 10.1653 34.2034 10.4622 34.3504C10.4724 34.3555 10.4827 34.3603 10.4932 34.3647C11.0575 34.6245 11.6352 34.8543 12.2236 35.0535C12.5375 35.1597 12.8782 34.9912 12.9844 34.6773C13.0906 34.3633 12.9222 34.0227 12.6082 33.9165Z" fill="#AB3534"/>
<path d="M9.45647 32.4687V32.4681C8.9578 32.1727 8.47444 31.8523 8.0081 31.5081C7.74793 31.3029 7.37069 31.3474 7.16542 31.6076C6.96014 31.8677 7.00469 32.245 7.26486 32.4503C7.27461 32.4579 7.28451 32.4653 7.29471 32.4724C7.79345 32.8416 8.31072 33.185 8.84448 33.5014C9.12963 33.6703 9.49779 33.5762 9.66677 33.2911C9.83581 33.0058 9.74161 32.6377 9.45647 32.4687Z" fill="#AB3534"/>
<path d="M4.36137 27.8116C4.02313 27.3414 3.70919 26.8541 3.4206 26.3519C3.25492 26.0644 2.88758 25.9657 2.60011 26.1314C2.31264 26.2971 2.21395 26.6644 2.37962 26.9519C2.68876 27.4889 3.0252 28.0098 3.3876 28.5124C3.58657 28.7774 3.96268 28.8309 4.22765 28.6319C4.48505 28.4386 4.54407 28.0767 4.36137 27.8116Z" fill="#AB3534"/>
<path d="M2.68786 25.051C2.68786 24.9673 2.67031 24.8846 2.63649 24.8082L2.63529 24.804C2.40047 24.2751 2.19317 23.7344 2.0143 23.184C1.92731 22.8643 1.59754 22.6756 1.27782 22.7627C0.958102 22.8497 0.769406 23.1794 0.856479 23.4992C0.861579 23.5178 0.867504 23.5361 0.874328 23.5542C1.0658 24.1453 1.28772 24.7261 1.53911 25.2942C1.63534 25.5114 1.85058 25.6513 2.0881 25.6512C2.41944 25.651 2.68794 25.3823 2.68786 25.051Z" fill="#AB3534"/>
<path d="M1.10371 22.2162C1.10379 22.2162 1.10394 22.2161 1.10401 22.2161C1.42778 22.1471 1.63448 21.829 1.566 21.5051C1.44646 20.9384 1.35593 20.3658 1.29481 19.7898C1.25986 19.4601 0.964217 19.2211 0.634524 19.2561C0.304832 19.291 0.0658873 19.5867 0.100836 19.9164C0.166535 20.5334 0.263808 21.1466 0.39243 21.7535C0.461128 22.0777 0.779571 22.2848 1.10371 22.2162Z" fill="#AB3534"/>
<path d="M35.0407 21.6038C35.0405 21.6038 35.0402 21.6038 35.04 21.6037C34.7184 21.524 34.3932 21.7201 34.3134 22.0417C34.1744 22.6041 34.0064 23.1591 33.81 23.7042C33.6977 24.0161 33.8594 24.3598 34.1712 24.4722C34.4831 24.5845 34.8269 24.4228 34.9392 24.111C35.1497 23.5271 35.33 22.9327 35.4792 22.3303C35.5587 22.0086 35.3624 21.6834 35.0407 21.6038Z" fill="#AB3534"/>
<path d="M15.9909 34.6802C15.4158 34.6118 14.8447 34.5137 14.2797 34.3862C13.9565 34.3132 13.6352 34.516 13.5621 34.8392C13.4891 35.1625 13.6919 35.4838 14.0151 35.5568C14.6206 35.6933 15.2329 35.7985 15.8493 35.8718C15.8732 35.8747 15.8972 35.8761 15.9213 35.876C16.2526 35.8753 16.5207 35.6061 16.52 35.2747C16.5194 34.9713 16.2923 34.7161 15.9909 34.6802Z" fill="#AB3534"/>
<path d="M33.9342 25.0259C33.6359 24.8819 33.2774 25.0068 33.1331 25.3049C32.8809 25.8264 32.6017 26.3345 32.2967 26.827C32.1271 27.1117 32.2204 27.48 32.5051 27.6495C32.7828 27.8151 33.1418 27.7307 33.3167 27.4588C33.6433 26.9309 33.9423 26.3863 34.2125 25.8275C34.357 25.5293 34.2324 25.1704 33.9342 25.0259Z" fill="#AB3534"/>
<path d="M32.1616 28.1463C31.9023 27.94 31.5248 27.9831 31.3186 28.2425C31.315 28.247 31.3115 28.2516 31.308 28.2561V28.2549C30.954 28.7142 30.5766 29.1547 30.177 29.5749C29.9486 29.8151 29.9581 30.1951 30.1983 30.4236C30.4386 30.652 30.8186 30.6425 31.047 30.4023C31.4742 29.9521 31.8784 29.4805 32.2578 28.9893C32.464 28.73 32.421 28.3525 32.1616 28.1463Z" fill="#AB3534"/>
<path d="M35.4101 18.0289C35.0841 18.0122 34.8063 18.263 34.7898 18.5889C34.7895 18.595 34.7892 18.6012 34.7891 18.6072C34.7688 19.1862 34.7184 19.7638 34.6385 20.3376C34.5933 20.6654 34.822 20.9679 35.1497 21.0138C35.1775 21.0178 35.2055 21.0199 35.2337 21.0198C35.5327 21.0193 35.7858 20.7988 35.827 20.5026C35.9125 19.888 35.9663 19.2694 35.9884 18.6492C35.9999 18.3183 35.7411 18.0406 35.4101 18.0289Z" fill="#AB3534"/>
<path d="M28.9199 30.7683V30.7701C28.4784 31.1471 28.0178 31.5011 27.54 31.8309C27.2668 32.0197 27.1984 32.3944 27.3873 32.6676C27.5761 32.9408 27.9507 33.0091 28.224 32.8203C28.7349 32.4654 29.2275 32.085 29.6999 31.6803C29.9518 31.4649 29.9813 31.0862 29.7659 30.8343C29.5506 30.5825 29.1718 30.5529 28.9199 30.7683Z" fill="#AB3534"/>
<path d="M22.8668 34.085C22.3124 34.2521 21.7497 34.3903 21.1809 34.499C20.8554 34.5617 20.6424 34.8761 20.705 35.2015C20.7592 35.4836 21.0058 35.6877 21.2931 35.6882C21.3311 35.6884 21.369 35.6849 21.4065 35.678C22.0162 35.5615 22.6194 35.4131 23.2136 35.2334C23.5283 35.1297 23.6994 34.7905 23.5957 34.4758C23.4956 34.1722 23.1751 34.0004 22.8668 34.085Z" fill="#AB3534"/>
<path d="M19.4912 34.7351C19.4802 34.7357 19.4692 34.7367 19.4583 34.7379L19.4613 34.7403C18.9813 34.7811 18.4899 34.8003 18.0003 34.8003H17.7261C17.3989 34.805 17.1315 35.0627 17.1147 35.3895C17.1087 35.7208 17.3724 35.9943 17.7037 36.0003C17.7038 36.0003 17.7039 36.0003 17.7039 36.0003H18.0003C18.5247 36.0003 19.0503 35.9769 19.5603 35.9331C19.8911 35.914 20.1439 35.6304 20.1247 35.2996C20.1056 34.9688 19.822 34.716 19.4912 34.7351Z" fill="#AB3534"/>
<path d="M26.0634 32.7416H26.064C25.5561 33.0198 25.0342 33.2717 24.5005 33.4964C24.1934 33.621 24.0454 33.9709 24.1699 34.2779C24.2944 34.5849 24.6444 34.7329 24.9514 34.6084C24.9559 34.6066 24.9603 34.6047 24.9648 34.6028C25.5367 34.3621 26.0958 34.0922 26.6399 33.794C26.9306 33.6348 27.0371 33.2702 26.8778 32.9795C26.7188 32.6889 26.354 32.5824 26.0634 32.7416Z" fill="#AB3534"/>
<path d="M18.0003 5.40088C11.0416 5.40088 5.40054 11.0419 5.40054 18.0006C5.40054 24.9592 11.0416 30.6003 18.0003 30.6003C24.9589 30.6003 30.6 24.9592 30.6 18.0006C30.5921 11.0452 24.9556 5.40883 18.0003 5.40088ZM27.6 18.6006H29.3694C29.0577 24.4142 24.4139 29.058 18.6002 29.3697V27.6004C18.6002 27.269 18.3316 27.0004 18.0003 27.0004C17.6689 27.0004 17.4003 27.269 17.4003 27.6004V29.3697C11.5866 29.058 6.94281 24.4142 6.63111 18.6006H8.40047C8.73182 18.6006 9.00046 18.3319 9.00046 18.0006C9.00046 17.6692 8.73182 17.4006 8.40047 17.4006H6.63111C6.94281 11.587 11.5866 6.94314 17.4003 6.63145V8.40081C17.4003 8.73215 17.6689 9.0008 18.0003 9.0008C18.3316 9.0008 18.6002 8.73215 18.6002 8.40081V6.63145C24.4139 6.94314 29.0577 11.587 29.3694 17.4006H27.6C27.2687 17.4006 27 17.6692 27 18.0006C27 18.3319 27.2687 18.6006 27.6 18.6006Z" fill="#AB3534"/>
<path d="M18.6002 16.3112V10.8009C18.6002 10.4696 18.3316 10.2009 18.0002 10.2009C17.6689 10.2009 17.4003 10.4696 17.4003 10.8009V16.3112C16.8921 16.4927 16.4922 16.8926 16.3107 17.4008H13.2004C12.869 17.4008 12.6004 17.6694 12.6004 18.0007C12.6004 18.3321 12.869 18.6007 13.2004 18.6007H16.3107C16.6395 19.5364 17.6646 20.0284 18.6002 19.6996C19.5359 19.3708 20.0279 18.3457 19.6991 17.4101C19.5185 16.896 19.1143 16.4919 18.6002 16.3112ZM18.0002 18.6007C17.6689 18.6007 17.4003 18.3321 17.4003 18.0007C17.4003 17.6694 17.6689 17.4008 18.0002 17.4008C18.3316 17.4008 18.6002 17.6694 18.6002 18.0007C18.6002 18.3321 18.3317 18.6007 18.0002 18.6007Z" fill="#AB3534"/>
</g>
<defs>
<clipPath id="clip0_250_20">
<rect width="36" height="36" fill="white" transform="translate(0 0.000244141)"/>
</clipPath>
</defs>
</svg>
