<svg width="32" height="32" viewBox="0 0 32 32" fill="none" xmlns="http://www.w3.org/2000/svg">
<g clip-path="url(#clip0_1_908)">
<path d="M31.4714 3.89968L31.2738 3.30675L30.6809 3.10912C26.9831 1.87656 22.9042 2.83762 20.1456 5.59612L19.2124 6.52931C16.6959 9.04581 15.6531 12.6871 16.4718 16.1658L11.5629 20.9833L13.3139 22.7676L18.1321 18.0393C21.6236 18.9659 25.4174 18.002 28.0512 15.3682L28.9844 14.435C31.7404 11.679 32.7051 7.60081 31.4714 3.89968V3.89968ZM27.2166 12.6673L26.2834 13.6004C24.6808 15.2031 22.5225 16.0024 20.3376 15.8749L28.5177 7.84725L26.7666 6.06294L18.6949 13.9842C18.6427 11.8884 19.4408 9.83644 20.9801 8.29712L21.9133 7.36394C23.8631 5.41419 26.6353 4.65225 29.2772 5.30337C29.9283 7.94531 29.1664 10.7175 27.2166 12.6673V12.6673Z" fill="#AB3534"/>
<path d="M19.5806 21.764H17.0806V24.5C15.7755 24.5 6.22199 24.5 4.99999 24.5V28.2499C4.99999 28.9392 4.43924 29.4999 3.74999 29.4999C3.06074 29.4999 2.5 28.9392 2.5 28.2499C2.5 26.8999 2.5 3.36581 2.5 2.5H17.0806V3.74999H19.5806V0H0V28.2499C0 30.3177 1.68225 31.9999 3.74999 31.9999H20.8306C22.8983 31.9999 24.5806 30.3177 24.5806 28.2499V24.5H19.5806V21.764ZM22.0806 28.2499C22.0806 28.9392 21.5198 29.4999 20.8306 29.4999H7.28499C7.42374 29.1087 7.49999 28.6881 7.49999 28.2499V26.9999H22.0806V28.2499Z" fill="#AB3534"/>
<path d="M5 7.25H14.5806V9.75H5V7.25Z" fill="#AB3534"/>
<path d="M5 12.25H12.0806V14.75H5V12.25Z" fill="#AB3534"/>
<path d="M5 17.25H9.75V19.75H5V17.25Z" fill="#AB3534"/>
</g>
<defs>
<clipPath id="clip0_1_908">
<rect width="32" height="32" fill="white"/>
</clipPath>
</defs>
</svg>
